<ttFont>
          <CharString index="0">
            -20 -66 callsubr
            hintmask 100100111000110000000000
            19 -74 callgsubr
            hintmask 001100111000101000000000
            -77 callsubr
            hintmask 100100111000100100000000
            -1 callsubr
            hintmask 100010111000100010000000
            -96 callsubr
            hintmask 100001110100110000000000
            -95 callgsubr
            hintmask 100100110100100100000000
            -91 callsubr
            hintmask 010100110010010000000000
            -67 callgsubr
            hintmask 100100110001110000000000
            -91 callgsubr
            return
          </CharString>
          <CharString index="1">
            28 208 rmoveto
            -42 0 -41 25 -34 vhcurveto
            -69 51 61 -51 89 hhcurveto
            87 114 28 67 61 hvcurveto
            19 21 9 12 -1 8 rrcurveto
            5 -6 17 -9 -23 -33 -58 -17 -30 vhcurveto
            -30 -52 -56 -3 -22 hhcurveto
            -4 -19 0 1 -3 hvcurveto
            -27 15 -13 50 29 2 1 9 2 vvcurveto
            110 12 151 70 123 vvcurveto
            94 -113 26 -70 -111 -186 -130 -116 vhcurveto
            50 -17 rmoveto
            90 104 95 65 19 vhcurveto
            -30 -59 -29 -71 -67 vvcurveto
            -56 15 -60 20 -53 vhcurveto
            -75 27 -70 33 102 vvcurveto
            return
          </CharString>
          <CharString index="2">
            -10 6 -13 12 vhcurveto
            308 hlineto
            6 1 8 5 hvcurveto
            35 -36 -15 20 vvcurveto
            2 1 6 -33 callsubr
            79 218 rlineto
            -58 callgsubr
            38 2 -58 37 hhcurveto
            22 -3 15 13 15 hvcurveto
            25 25 65 55 2 hhcurveto
            11 hlineto
            88 -273 rlineto
            -12 vlineto
            -12 -46 5 -2 -11 hvcurveto
            -25 -7 -22 -3 -23 vvcurveto
            return
          </CharString>
          <CharString index="3">
            -74 callsubr
            50 -20 107 -20 hstemhm
            -2 40 hintmask 0011011011100000
            38 18 rmoveto
            hintmask 1001011011100000
            -105 callsubr
            hintmask 0101011011100000
            -1 callgsubr
            hintmask 0011011011100000
            -55 callgsubr
            hintmask 0101010111100000
            -102 callgsubr
            hintmask 1000111011100000
            -104 callgsubr
            hintmask 1001011011100000
            -89 callsubr
            hintmask 0011011011100000
            -84 callgsubr
            hintmask 1001011011100000
            -100 callsubr
            return
          </CharString>
          <CharString index="4">
            82 rmoveto
            -94 62 83 -31 98 hhcurveto
            20 93 17 8 19 hvcurveto
            77 33 41 67 74 vvcurveto
            112 -79 158 -135 -132 -173 -86 -130 -46 0 -43 26 -39 vhcurveto
            168 282 rmoveto
            -30 -46 -17 -103 -29 vvcurveto
            -57 23 -58 13 -53 vhcurveto
            -30 -50 49 40 -34 hvcurveto
            -21 24 -8 29 28 vvcurveto
            80 101 96 53 vhcurveto
            -2 -185 rmoveto
            return
          </CharString>
          <CharString index="5">
            -20 -36 callsubr
            hintmask 11110111
            -106 callsubr
            hintmask 11111011
            -90 callsubr
            return
          </CharString>
          <CharString index="6">
            hstem
            -29 callgsubr
            vstem
            -107 callgsubr
            return
          </CharString>
          <CharString index="7">
            -1 -1 -18 -27 -4 hhcurveto
            -74 hlineto
            -14 1 7 9 hvcurveto
            246 275 rmoveto
            -21 callgsubr
            101 256 76 -216 -6 callgsubr
            -3 -1 vvcurveto
            -3 -7 -3 -5 -3 vhcurveto
            -103 -85 -1 -1 -35 25 -16 11 rlinecurve
            -9 7 -3 0 10 vvcurveto
            return
          </CharString>
          <CharString index="8">
            -92 callgsubr
            -103 callgsubr
          </CharString>
          <CharString index="9">
            -20 hstemhm
            31 -22 callgsubr
            hintmask 11011111
            57 -103 callsubr
            hintmask 10111111
            -95 callsubr
            return
          </CharString>
          <CharString index="10">
            -62 callgsubr
            44 -20 107 -12 callsubr
            hintmask 0100101111100100
            -61 callgsubr
            hintmask 0011101111100100
            -22 callsubr
            hintmask 0100101111100100
            17 callgsubr
            hintmask 1000101111101000
            -81 callsubr
            hintmask 1000011111100100
            -17 callsubr
            hintmask 1000101111101000
            -96 callgsubr
            hintmask 0011101111010100
            -82 callgsubr
            hintmask 0100101111100100
            -87 callsubr
            return
          </CharString>
          <CharString index="11">
            49 14 35 36 vvcurveto
            40 -9 61 -40 36 vhcurveto
            36 -40 -66 10 -45 hhcurveto
            -50 -30 -21 -31 -41 hvcurveto
            -22 -17 -42 -64 -28 vvcurveto
            -12 6 -19 12 vhcurveto
            12 39 18 25 hhcurveto
            23 36 0 27 hvcurveto
            55 callsubr
            14 vvcurveto
            return
          </CharString>
          <CharString index="12">
            73 16 125 93 25 21 -81 -50 -82 -1 -144 -93 -49 -12 109 50 vhcurveto
            162 -134 rmoveto
            15 48 19 69 53 vvcurveto
            47 -7 50 -18 51 vhcurveto
            64 -40 42 -53 -84 vvcurveto
            -75 -35 -79 -68 -7 -6 3 6 1 19 callgsubr
            vhcurveto
            return
          </CharString>
          <CharString index="13">
            -55 callsubr
            hintmask 1100011010010000
            -87 callgsubr
            hintmask 1100011001001000
            -83 callgsubr
            hintmask 1100011010010000
            -32 callgsubr
            hintmask 1100011000110000
            -43 callsubr
            hintmask 1001011010010000
            17 callsubr
            hintmask 1000111010010000
            -34 callgsubr
            hintmask 1100011010010000
            8 callgsubr
            hintmask 1010010110010000
            -98 callgsubr
            return
          </CharString>
          <CharString index="14">
            -44 callsubr
            241 -106 callgsubr
            return
          </CharString>
          <CharString index="15">
            400 87 rmoveto
            -66 30 42 -54 79 hhcurveto
            31 62 31 19 2 -47 11 -23 31 hvcurveto
            -32 43 -5 70 61 vvcurveto
            61 16 36 9 59 vhcurveto
            7 2 0 6 5 vvcurveto
            22 -11 4 -15 -82 -89 -1 -32 vhcurveto
            -254 vlineto
            -3 -36 -48 -4 -5 vhcurveto
            return
          </CharString>
          <CharString index="16">
            65 64 28 56 vhcurveto
            -12 -125 rlineto
            -34 -3 -42 -30 -32 hhcurveto
            -27 3 -4 73 20 vvcurveto
            195 187 rmoveto
            31 -6 24 -20 30 vhcurveto
            34 -4 33 -47 -38 vvcurveto
            return
          </CharString>
          <CharString index="17">
            156 12 rmoveto
            72 38 129 56 33 22 -35 -31 -53 -64 -106 -47 -24 -14 11 13 vhcurveto
            176 194 rmoveto
            36 21 -54 -17 -58 -39 -34 -74 -43 hvcurveto
            38 46 36 49 51 vvcurveto
            19 -5 21 -13 20 vhcurveto
            return
          </CharString>
          <CharString index="18">
            -20 -5 -13 -26 -19 -9 12 17 57 46 41 53 26 83 -5 -41 vhcurveto
            39 callsubr
            -3 vvcurveto
            -103 -274 -4 -8 -56 0 -32 -3 rlinecurve
            return
          </CharString>
          <CharString index="19">
            143 31 rmoveto
            -122 hlineto
            -12 -7 -35 -20 hvcurveto
            207 270 3 45 23 hvcurveto
            -15 22 rlineto
            -129 hlineto
            0 -3 10 7 vvcurveto
            2 0 2 1 2 vhcurveto
            14 60 30 72 35 52 rrcurveto
            17 26 56 -11 36 19 -30 -11 19 3 1 4 2 vvcurveto
            5 11 90 145 5 12 rrcurveto
            14 vlineto
            7 7 29 31 8 6 -15 14 rcurveline
            20 15 18 19 7 25 rrcurveto
            10 1 76 0 47 vvcurveto
            return
          </CharString>
          <CharString index="20">
            19 -17 0 1 41 hvcurveto
            -28 494 rmoveto
            1 106 1 16 3 vvcurveto
            98 -5 -6 callgsubr
            -66 -31 -94 -8 -91 -84 -89 9 -43 -73 vvcurveto
            -76 1 -6 6 rlineto
            -8 -12 207 129 hvcurveto
            return
          </CharString>
          <CharString index="21">
            13 2 43 44 61 12 -37 -42 -76 -13 13 -61 -12 vhcurveto
            -143 -27 -99 -41 -98 vvcurveto
            36 8 rmoveto
            55 70 32 50 23 vhcurveto
            return
          </CharString>
          <CharString index="22">
            -37 38 -5 -31 vvcurveto
            -167 vlineto
            -70 58 -94 95 59 105 51 57 14 vhcurveto
            18 209 rmoveto
            36 2 47 11 vhcurveto
            88 7 rlineto
            -61 -26 -40 -57 vvcurveto
            -72 12 -95 51 -43 vhcurveto
            return
          </CharString>
          <CharString index="23">
            -19 -11 -20 -72 vhcurveto
            -5 -7 1 -6 hhcurveto
            -143 44 rlineto
            -1 -1 -3 0 -2 hhcurveto
            -15 -92 20 4 hvcurveto
            0 1 1 1 vvcurveto
            93 192 13 12 rlineto
            -1 7 27 0 21 hhcurveto
            27 29 2 22 hvcurveto
            29 -81 -23 24 vvcurveto
            1 39 callgsubr
            204 266 6 25 rlineto
            -25 hlineto
            -50 -44 -13 -55 hhcurveto
            -204 44 rlineto
            -16 hlineto
            -105 -177 -40 -137 -36 28 -55 41 9 10 7 9 hvcurveto
            18 -39 15 42 vvcurveto
            112 153 21 84 28 53 -3 -28 12 vhcurveto
            -180 -247 -99 -19 rlineto
            -19 -4 0 -15 -12 vvcurveto
            -13 1 -7 27 18 11 0 7 18 vhcurveto
            -6 -16 -25 -9 -13 vhcurveto
            -105 -253 rlineto
            -1 -1 -5 -1 vvcurveto
            62 75 rmoveto
            273 452 rlineto
            return
          </CharString>
          <CharString index="24">
            -18 -27 -13 -27 -30 vvcurveto
            -40 12 -32 13 -30 vhcurveto
            -3 -7 -7 -1 -6 hhcurveto
            -38 -56 32 48 hvcurveto
            130 32 rmoveto
            return
          </CharString>
          <CharString index="25">
            rmoveto
            -21 callsubr
            -73 callgsubr
            vhcurveto
            return
          </CharString>
          <CharString index="26">
            -13 -13 -39 -150 -33 -66 2 -15 hhcurveto
            -6 12 rlineto
            -3 6 -3 152 8 vvcurveto
            27 1 4 82 1 hhcurveto
            62 4 rlineto
            -15 4 18 -4 17 hhcurveto
            return
          </CharString>
          <CharString index="27">
            0 52 -1 14 3 4 -4 -3 2 vhcurveto
            7 -83 -4 -113 7 -81 rrcurveto
            -13 -38 7 -23 vvcurveto
            -15 14 -21 15 29 callgsubr
            3 vhcurveto
            return
          </CharString>
          <CharString index="28">
            18 4 -57 -58 hvcurveto
            -118 -7 -215 -108 -3 1 -27 -7 -7 -1 -17 -1 vvcurveto
            29 callsubr
            -92 hlineto
            -8 -4 476 135 hvcurveto
            return
          </CharString>
          <CharString index="29">
            112 -41 1 -34 -30 -34 -1 -27 vhcurveto
            92 427 rmoveto
            6 17 10 0 18 hhcurveto
            43 51 -80 -45 36 hvcurveto
            39 -56 33 -74 34 -58 rrcurveto
            -9 -9 -44 -13 -7 -15 40 10 -5 vhcurveto
            -45 80 -46 82 -66 79 -22 27 -31 16 -22 26 rrcurveto
            return
          </CharString>
          <CharString index="30">
            -14 24 12 -5 39 hhcurveto
            57 34 45 20 12 -5 9 -16 hvcurveto
            -7 -7 -8 -8 hhcurveto
            return
          </CharString>
          <CharString index="31">
            -31 49 44 -62 vvcurveto
            -64 -50 -49 -17 -58 vhcurveto
            -4 vlineto
            -9 6 -19 -6 vvcurveto
            37 23 rmoveto
            267 526 7 15 42 40 11 4 rlinecurve
            1 2 35 4 13 hhcurveto
            9 35 -4 -1 7 hvcurveto
            -310 -585 rlineto
            -2 -109 -14 -9 vhcurveto
            return
          </CharString>
          <CharString index="32">
            48 60 64 30 26 hvcurveto
            7 8 1 10 callgsubr
            -21 -30 callgsubr
            -39 1 -4 vhcurveto
            -33 callgsubr
            return
          </CharString>
          <CharString index="33">
            -5 46 -28 -21 26 -21 209 18 callsubr
            57 45 194 45 9 -20 return
          </CharString>
          <CharString index="34">
            -37 -107 54 -55 hhcurveto
            -51 -37 -18 -22 -33 hvcurveto
            -29 -18 -27 -15 -34 vvcurveto
            endchar
          </CharString>
          <CharString index="35">
            -25 -27 2 -30 hhcurveto
            -25 -5 -16 -29 -12 1 -13 1 -4 hvcurveto
            -144 -284 rlineto
            -14 hlineto
            -15 -41 122 141 -32 hvcurveto
            1 -1 6 2 vvcurveto
            1 1 5 0 vhcurveto
            59 28 -6 callgsubr
            6 1 vvcurveto
            return
          </CharString>
          <CharString index="36">
            -64 callsubr
            -76 callsubr
            return
          </CharString>
          <CharString index="37">
            -95 -47 46 -31 45 -45 86 150 248 -174 174 -61 61 return
          </CharString>
          <CharString index="38">
            36 -20 12 rrcurveto
            8 8 50 17 12 hhcurveto
            19 14 1 5 16 hvcurveto
            6 -19 rlineto
            return
          </CharString>
          <CharString index="39">
            -21 -26 5 -21 hhcurveto
            -9 70 -2 84 74 133 9 136 127 vvcurveto
            10 19 -2 19 hhcurveto
            return
          </CharString>
          <CharString index="40">
            5 -19 -29 20 callsubr
            -67 -9 -84 5 -47 vvcurveto
            -27 45 -2 18 -7 vhcurveto
            69 -29 42 -55 40 -66 rrcurveto
            50 -82 68 -62 -82 vvcurveto
            -58 -62 -107 -32 -33 -18 31 23 -20 vhcurveto
            return
          </CharString>
          <CharString index="41">
            -51 callgsubr
            110 45 24 -40 callgsubr
            return
          </CharString>
          <CharString index="42">
            31 21 19 callsubr
            -14 21 -26 return
          </CharString>
          <CharString index="43">
            -22 -102 -14 -22 hhcurveto
            -3 -1 -10 -3 vvcurveto
            -42 59 0 30 -1 vhcurveto
            -15 vlineto
            3 -17 39 -125 1 -4 7 -21 40 -92 11 -18 rrcurveto
            -15 -2 -31 -11 -9 return
          </CharString>
          <CharString index="44">
            -40 30 -15 95 -44 1 rrcurveto
            -11 -8 -3 -11 -4 hvcurveto
            -6 -62 -2 -25 -53 -6 1 -28 -6 vvcurveto
            66 566 rmoveto
            35 -175 377 27 -204 vvcurveto
            -91 -38 -53 -25 vhcurveto
            9 26 5 26 25 vvcurveto
            49 -20 42 -75 24 vhcurveto
            -223 70 -23 47 -13 43 rrcurveto
            -5 15 -5 17 17 11 1 74 10 vvcurveto
            return
          </CharString>
          <CharString index="45">
            rlinecurve
            -2 -6 -16 callsubr
            -129 return
          </CharString>
          <CharString index="46">
            13 -5 -4 6 -16 hhcurveto
            -51 -33 -39 -19 -62 return
          </CharString>
          <CharString index="47">
            -61 callsubr
            hhcurveto
            return
          </CharString>
          <CharString index="48">
            24 -74 rmoveto
            -30 113 -167 94 77 100 210 94 33 vhcurveto
            40 113 43 107 17 118 rrcurveto
            30 2 51 -1 24 vvcurveto
            return
          </CharString>
          <CharString index="49">
            -420 51 callsubr
            hstem
            59 -70 callgsubr
            endchar
          </CharString>
          <CharString index="50">
            42 -66 -48 28 -75 hhcurveto
            -65 -63 -22 -54 -32 hvcurveto
            -27 -45 -7 -58 -40 vvcurveto
            -101 18 -35 153 -77 vhcurveto
            3 -6 1 -8 -8 vvcurveto
            -4 0 -5 -1 -7 vhcurveto
            12 24 23 13 hhcurveto
            49 98 -70 -45 -67 -44 -53 -73 -72 -73 44 4 -5 hvcurveto
            return
          </CharString>
          <CharString index="51">
            -47 callsubr
            9 3 3 7 1 1 rlinecurve
            return
          </CharString>
          <CharString index="52">
            -20 hstemhm
            18 150 -39 39 106 33 -33 97 -97 128 197 63 -37 37 return
          </CharString>
          <CharString index="53">
            22 20 -1 15 hhcurveto
            13 14 1 6 10 hvcurveto
            8 76 10 94 73 vvcurveto
            8 -1 8 -11 2 vhcurveto
            -124 11 rlineto
            return
          </CharString>
          <CharString index="54">
            195 -21 348 -20 hstem
            12 336 -2 callsubr
            -15 10 vhcurveto
            -68 105 rlineto
            5 1 9 5 4 vhcurveto
            124 143 rlineto
            31 vlineto
            6 -14 1 -5 -6 -7 -1 -6 -5 vhcurveto
            return
          </CharString>
          <CharString index="55">
            -56 callsubr
            14 -1 -9 9 -12 hhcurveto
            return
          </CharString>
          <CharString index="56">
            -124 -43 callgsubr
            51 -27 callsubr
            -47 -25 callgsubr
          </CharString>
          <CharString index="57">
            rmoveto
            -9 2 -13 5 -7 vhcurveto
            56 -48 callgsubr
            return
          </CharString>
          <CharString index="58">
            -32 37 -23 30 -23 callsubr
            -36 -45 -25 -39 vhcurveto
            return
          </CharString>
          <CharString index="59">
            44 12 110 265 vvcurveto
            107 0 20 -1 vhcurveto
            -8 vlineto
            -1 4 0 2 4 vvcurveto
            32 20 14 42 36 57 -6 -119 42 vhcurveto
            -10 5 13 -3 9 hhcurveto
            0 17 3 3 vvcurveto
            31 134 rlineto
            return
          </CharString>
          <CharString index="60">
            50 2 -8 51 hhcurveto
            19 48 -8 callgsubr
            hvcurveto
            83 7 return
          </CharString>
          <CharString index="61">
            -28 40 -27 -21 64 -21 627 52 -4 -20 23 -20 return
          </CharString>
          <CharString index="62">
            hstemhm
            31 83 -45 45 72 51 -35 35 -35 54 116 46 75 44 return
          </CharString>
          <CharString index="63">
            11 -33 50 -38 51 -51 81 310 42 -30 48 return
          </CharString>
          <CharString index="64">
            19 4 63 12 34 vvcurveto
            11 -14 2 -9 vhcurveto
            return
          </CharString>
          <CharString index="65">
            hstemhm
            19 36 17 153 -81 41 -41 return
          </CharString>
          <CharString index="66">
            1 9 -1 2 hhcurveto
            20 19 3 23 return
          </CharString>
          <CharString index="67">
            39 14 -15 32 hhcurveto
            18 18 4 15 5 -1 4 -6 1 hvcurveto
            -44 4 -29 14 47 vvcurveto
            20 198 rlineto
            29 3 33 45 36 hhcurveto
            51 1 -101 -33 hvcurveto
            return
          </CharString>
          <CharString index="68">
            67 13 26 37 vvcurveto
            23 -5 28 -19 45 vhcurveto
            46 -19 -60 27 -28 hhcurveto
            -29 -34 -14 -28 -62 hvcurveto
            -4 -5 -19 -12 -5 hhcurveto
            -2 -5 2 0 hvcurveto
            5 49 return
          </CharString>
          <CharString index="69">
            -1 29 -10 115 -2 257 rrcurveto
            16 vlineto
            15 6 97 2 20 vhcurveto
            28 17 14 2 25 9 13 1 rlinecurve
            -2 23 rlineto
            4 -1 -16 5 -21 hhcurveto
            return
          </CharString>
          <CharString index="70">
            21 1 13 44 26 24 -4 -30 -27 -24 -32 -29 -27 -15 38 21 vhcurveto
            endchar
          </CharString>
          <CharString index="71">
            hstemhm
            28 50 110 46 -46 58 137 45 39 41 return
          </CharString>
          <CharString index="72">
            35 hmoveto
            -24 3 8 -4 23 hhcurveto
            84 hlineto
            return
          </CharString>
          <CharString index="73">
            36 11 5 32 5 -1 7 -6 2 hvcurveto
            return
          </CharString>
          <CharString index="74">
            1 1 vhcurveto
            return
          </CharString>
          <CharString index="75">
            49 4 rmoveto
            -17 8 -9 17 vhcurveto
            return
          </CharString>
          <CharString index="76">
            2 18 -69 7 -19 vhcurveto
            -100 hlineto
            return
          </CharString>
          <CharString index="77">
            -3 -107 26 -3 hhcurveto
            -73 -118 -26 -63 -70 hvcurveto
            -21 -19 -49 -89 -12 -140 rrcurveto
            -19 -4 -29 -6 -24 vvcurveto
            -7 2 -8 6 vhcurveto
            return
          </CharString>
          <CharString index="78">
            103 96 30 96 hhcurveto
            16 67 -8 -17 55 hvcurveto
            -7 7 5 0 7 hhcurveto
            21 -1 27 19 4 hvcurveto
            12 32 14 59 6 vvcurveto
            return
          </CharString>
          <CharString index="79">
            rmoveto
            27 15 17 32 5 vhcurveto
            -120 275 -102 -78 vvcurveto
            -33 -33 -6 -19 -9 vhcurveto
            117 -270 110 72 vvcurveto
            return
          </CharString>
          <CharString index="80">
            0 8 119 vhcurveto
            16 9 10 15 17 -15 2 -19 hvcurveto
            -48 return
          </CharString>
          <CharString index="81">
            -29 -37 -19 -33 hvcurveto
            -90 callgsubr
          </CharString>
          <CharString index="82">
            6 -72 hhcurveto
            -12 -5 -14 -9 -15 vvcurveto
            endchar
          </CharString>
          <CharString index="83">
            rmoveto
            1 9 9 1 7 hhcurveto
            37 8 -12 -23 -11 -3 -14 -1 -17 hvcurveto
            -14 18 -35 40 -17 17 rrcurveto
            endchar
          </CharString>
          <CharString index="84">
            37 27 25 37 30 -18 27 -32 return
          </CharString>
          <CharString index="85">
            13 13 rlineto
            3 3 27 0 hvcurveto
            return
          </CharString>
          <CharString index="86">
            -25 31 -18 23 return
          </CharString>
          <CharString index="87">
            -2 7 7 -1 7 hhcurveto
            54 37 47 52 19 -10 9 -19 -12 -2 -5 -7 hvcurveto
            -7 2 -9 -9 vvcurveto
            return
          </CharString>
          <CharString index="88">
            -5 -25 -2 -4 hhcurveto
            -29 -12 -22 -33 -31 vvcurveto
            49 hmoveto
            return
          </CharString>
          <CharString index="89">
            86 55 18 60 58 hvcurveto
            6 6 20 27 2 4 rrcurveto
            13 -7 17 -21 -35 3 -31 -18 -15 vhcurveto
            return
          </CharString>
          <CharString index="90">
            36 12 17 32 29 -9 7 -14 hvcurveto
            return
          </CharString>
          <CharString index="91">
            -1 0 hvcurveto
            return
          </CharString>
          <CharString index="92">
            -131 40 -98 88 22 89 2 24 25 -34 -9 -13 13 vhcurveto
            -7 4 -16 55 -3 13 rrcurveto
            return
          </CharString>
          <CharString index="93">
            rmoveto
            12 27 12 11 7 vhcurveto
            6 -20 11 -67 -1 vvcurveto
            -8 hlineto
            -4 -43 51 6 hvcurveto
            endchar
          </CharString>
          <CharString index="94">
            -19 -271 58 -58 225 60 -21 378 38 return
          </CharString>
          <CharString index="95">
            -20 4 callsubr
            101 37 -37 186 return
          </CharString>
          <CharString index="96">
            -82 -29 208 225 50 return
          </CharString>
          <CharString index="97">
            9 47 40 4 44 hhcurveto
            return
          </CharString>
          <CharString index="98">
            -14 -27 -67 35 -50 vvcurveto
            return
          </CharString>
          <CharString index="99">
            1 2 1 return
          </CharString>
          <CharString index="100">
            rmoveto
            -82 43 -54 82 160 vvcurveto
            93 10 119 74 61 vhcurveto
            10 13 42 29 18 hhcurveto
            return
          </CharString>
          <CharString index="101">
            40 32 rmoveto
            -32 38 -23 29 38 26 25 37 30 -17 27 -33 -35 -46 -25 -39 vhcurveto
            return
          </CharString>
          <CharString index="102">
            rmoveto
            3 6 50 9 10 vhcurveto
            15 -10 41 -56 7 -18 -51 4 -18 7 -9 10 rrcurveto
            return
          </CharString>
          <CharString index="103">
            15 19 12 rrcurveto
            -1 -6 -1 -17 -18 vvcurveto
            -17 1 -17 1 -6 vhcurveto
            1 -6 17 -44 return
          </CharString>
          <CharString index="104">
            402 51 -29 -21 50 192 36 -20 hstemhm
            34 168 -142 142 -55 55 return
          </CharString>
          <CharString index="105">
            rmoveto
            117 -162 rlineto
            33 hlineto
            15 0 19 return
          </CharString>
          <CharString index="106">
            -29 -26 64 39 hvcurveto
            return
          </CharString>
          <CharString index="107">
            -40 hhcurveto
            -63 76 18 46 -6 vhcurveto
            10 -2 2 -147 -31 -13 2 -11 -8 vvcurveto
            return
          </CharString>
          <CharString index="108">
            -144 -33 42 -42 189 -139 -21 289 163 -51 51 -2 -20 return
          </CharString>
          <CharString index="109">
            -3 -9 43 -33 -21 23 31 -25 -21 366 90 -40 40 -19 -20 25 -20 return
          </CharString>
          <CharString index="110">
            -20 hstemhm
            99 -11 callgsubr
            return
          </CharString>
          <CharString index="111">
            hstemhm
            27 136 -36 36 return
          </CharString>
          <CharString index="112">
            -54 -22 47 -47 167 -148 -21 32 43 247 149 -70 53 return
          </CharString>
          <CharString index="113">
            20 35 -3 9 52 41 -1 -41 31 vhcurveto
            62 -87 41 -60 21 -35 rrcurveto
            return
          </CharString>
          <CharString index="114">
            3 -8 callgsubr
            hhcurveto
            return
          </CharString>
          <CharString index="115">
            86 -120 -75 hlineto
            -10 -2 -14 -8 hvcurveto
            106 578 rmoveto
            36 vlineto
            return
          </CharString>
          <CharString index="116">
            -20 hstemhm
            49 125 -43 43 87 38 return
          </CharString>
          <CharString index="117">
            -1 -2 hhcurveto
            return
          </CharString>
          <CharString index="118">
            23 15 rmoveto
            -17 9 -15 19 -3 vhcurveto
            10 44 48 13 48 hhcurveto
            return
          </CharString>
          <CharString index="119">
            4 -33 38 8 vvcurveto
            608 -246 rmoveto
            35 -8 31 34 vvcurveto
            return
          </CharString>
          <CharString index="120">
            -177 -46 callsubr
            return
          </CharString>
          <CharString index="121">
            vhcurveto
            20 -58 -61 20 -61 hhcurveto
            -14 -15 -1 -2 -14 hvcurveto
            -7 return
          </CharString>
          <CharString index="122">
            6 rlineto
            -1 -9 0 -26 -25 vvcurveto
            -63 1 -6 6 -39 vhcurveto
            return
          </CharString>
          <CharString index="123">
            -62 26 -58 -64 vvcurveto
            -7 0 -3 return
          </CharString>
          <CharString index="124">
            -15 -33 -8 -33 hhcurveto
            return
          </CharString>
          <CharString index="125">
            46 -46 116 return
          </CharString>
          <CharString index="126">
            19 32 23 return
          </CharString>
          <CharString index="127">
            1 -2 hhcurveto
            return
          </CharString>
          <CharString index="128">
            96 44 -93 31 hhcurveto
            12 21 11 13 hvcurveto
            114 vlineto
            return
          </CharString>
          <CharString index="129">
            -32 10 -8 23 -1 vhcurveto
            7 206 2 74 3 hvcurveto
            return
          </CharString>
          <CharString index="130">
            32 callsubr
            -43 -29 return
          </CharString>
          <CharString index="131">
            56 27 54 56 vvcurveto
            7 -1 8 -1 7 vhcurveto
            endchar
          </CharString>
          <CharString index="132">
            4 1 1 return
          </CharString>
          <CharString index="133">
            16 vhcurveto
            endchar
          </CharString>
          <CharString index="134">
            -4 -9 -16 vhcurveto
            -53 -47 -22 -51 -69 -7 1 -30 return
          </CharString>
          <CharString index="135">
            -20 21 -20 hstemhm
            return
          </CharString>
          <CharString index="136">
            -6 -6 rlineto
            return
          </CharString>
          <CharString index="137">
            -52 31 -5 -78 hhcurveto
            -6 -7 0 1 -8 hvcurveto
            return
          </CharString>
          <CharString index="138">
            19 11 rlinecurve
            43 26 13 52 45 vvcurveto
            71 -55 return
          </CharString>
          <CharString index="139">
            27 hvcurveto
            6 8 2 10 callgsubr
            -22 30 return
          </CharString>
          <CharString index="140">
            27 9 10 -2 31 vvcurveto
            10 -8 3 -10 vhcurveto
            return
          </CharString>
          <CharString index="141">
            516 205 hstem
            return
          </CharString>
          <CharString index="142">
            182 3 46 -28 -21 23 -21 23 -21 return
          </CharString>
          <CharString index="143">
            -162 -30 -21 736 -20 35 -20 hstemhm
            return
          </CharString>
          <CharString index="144">
            21 -3 26 -28 -17 -19 -11 -14 -8 vhcurveto
            return
          </CharString>
          <CharString index="145">
            -19 13 -25 21 -6 rrcurveto
            return
          </CharString>
          <CharString index="146">
            -2 -1 -2 return
          </CharString>
          <CharString index="147">
            50 33 rmoveto
            -10 1 2 -19 16 hhcurveto
            return
          </CharString>
          <CharString index="148">
            140 -47 47 16 -20 hstemhm
            33 56 return
          </CharString>
          <CharString index="149">
            1 -7 -3 return
          </CharString>
          <CharString index="150">
            29 1 rmoveto
            -22 15 -1 13 vhcurveto
            return
          </CharString>
          <CharString index="151">
            -392 703 -21 87 -20 hstem
            return
          </CharString>
          <CharString index="152">
            vvcurveto
            -5 -43 rlineto
            -88 hlineto
            -11 -11 return
          </CharString>
          <CharString index="153">
            -15 0 12 -17 hhcurveto
            -24 14 -7 return
          </CharString>
          <CharString index="154">
            477 179 rmoveto
            33 6 80 return
          </CharString>
          <CharString index="155">
            -52 vhcurveto
            -5 46 -2 23 42 vvcurveto
            return
          </CharString>
          <CharString index="156">
            -94 -55 -6 -76 hhcurveto
            return
          </CharString>
          <CharString index="157">
            33 -37 5 -23 vhcurveto
            return
          </CharString>
          <CharString index="158">
            -136 205 return
          </CharString>
          <CharString index="159">
            -1 rrcurveto
            -1 return
          </CharString>
          <CharString index="160">
            -211 rlineto
            return
          </CharString>
          <CharString index="161">
            1 -1 hhcurveto
            return
          </CharString>
          <CharString index="162">
            14 -9 2 return
          </CharString>
        <CharString name=".notdef">
          -634 endchar
        </CharString>
        <CharString name="A">
          -74 callsubr
          hstemhm
          -2 40 hintmask 0011011010000000
          38 18 rmoveto
          hintmask 1001011010000000
          -105 callsubr
          hintmask 0101011010000000
          -1 callgsubr
          hintmask 0011011010000000
          -55 callgsubr
          hintmask 0101010110000000
          -102 callgsubr
          hintmask 1000111010000000
          -104 callgsubr
          hintmask 1001011010000000
          -89 callsubr
          hintmask 0011011010000000
          -84 callgsubr
          hintmask 1001011010000000
          -100 callsubr
          endchar
        </CharString>
        <CharString name="AE">
          272 -3 46 -22 -21 429 -20 21 -20 190 45 -23 39 7 -20 hstemhm
          431 39 -39 172 hintmask 0110101100000000
          416 21 rmoveto
          hintmask 1010101010000000
          -9 2 -15 12 vhcurveto
          399 hlineto
          1 10 24 8 3 hvcurveto
          3 9 10 33 5 vvcurveto
          2 9 3 48 8 vvcurveto
          -54 18 -77 -20 -35 hvcurveto
          -9 -43 -1 -8 hhcurveto
          -59 -42 -15 78 -12 hvcurveto
          -2 3 3 25 -1 3 -2 9 -11 105 -1 8 rrcurveto
          18 vlineto
          20 8 9 17 vhcurveto
          20 12 -17 17 hhcurveto
          6 hlineto
          3 6 9 32 1 10 rrcurveto
          2 6 2 38 6 vvcurveto
          -39 -19 -33 -39 hhcurveto
          246 160 vlineto
          1 19 -23 -8 7 hvcurveto
          3 -6 19 -37 4 -4 rrcurveto
          -1 1 10 -1 2 hhcurveto
          2 10 -8 callgsubr
          hvcurveto
          8 10 27 55 5 13 rrcurveto
          hintmask 1010010100000000
          1 2 15 6 vvcurveto
          15 -2 24 -20 vhcurveto
          hintmask 1010101100000000
          -53 -54 -16 -53 hhcurveto
          -33 hlineto
          hintmask 1010010100000000
          1 -9 -64 15 -7 hhcurveto
          hintmask 1010101100000000
          2 -41 -187 5 -39 hhcurveto
          hintmask 1010010100000000
          -46 80 vlineto
          -17 -29 -84 -135 -19 -29 rrcurveto
          -5 -3 -9 -10 -1 -6 -42 15 -6 hhcurveto
          hintmask 0101101100000000
          -1 -23 1 -10 hhcurveto
          -26 -45 1 -33 -14 hvcurveto
          -2 9 -12 4 -1 vhcurveto
          7 -1 53 2 7 -1 rrcurveto
          16 -2 36 -11 -2 vvcurveto
          -15 vlineto
          -4 -74 -109 -32 -43 vhcurveto
          -32 -43 -56 -107 -48 -17 rrcurveto
          0 -1 -4 -3 vvcurveto
          -8 4 -15 10 vhcurveto
          137 hlineto
          26 -26 14 -17 7 vhcurveto
          17 29 114 203 19 27 rrcurveto
          13 7 10 19 16 35 callgsubr
          67 -78 rlineto
          1 7 -1 3 hhcurveto
          26 21 15 16 22 hvcurveto
          -10 1 -99 -12 -20 -1 -55 -2 vvcurveto
          -13 -62 rlineto
          0 -1 -7 -1 vvcurveto
          133 593 rmoveto
          4 -10 9 -56 1 -10 rrcurveto
          -14 -1 -112 1 -14 vhcurveto
          -18 13 -193 1 -19 vhcurveto
          -109 vlineto
          hintmask 1010101100000000
          -7 -32 -43 -9 -36 hhcurveto
          20 3 144 1 22 vhcurveto
          6 110 19 258 1 3 rrcurveto
          -187 -210 rmoveto
          1 1 6 1 vvcurveto
          2 6 18 33 6 8 6 7 56 76 19 26 rrcurveto
          12 9 3 6 16 hhcurveto
          -7 -1 -36 -7 vvcurveto
          -3 -26 -8 -119 -3 -24 -7 -9 -37 -22 -10 -1 rrcurveto
          -19 -4 -48 63 10 vvcurveto
          520 217 rmoveto
          7 0 -16 -7 -6 0 16 6 hhcurveto
          endchar
        </CharString>
        <CharString name="Aacute">
          -104 callsubr
          -20 388 -105 callgsubr
        </CharString>
        <CharString name="Acircumflex">
          -74 callsubr
          41 40 callgsubr
          133 -20 hstemhm
          -2 40 hintmask 0011011001110000
          38 18 rmoveto
          hintmask 1001011001110000
          -105 callsubr
          hintmask 0101011001110000
          -1 callgsubr
          hintmask 0011011001110000
          -55 callgsubr
          hintmask 0101010101110000
          -102 callgsubr
          hintmask 1000111001110000
          -104 callgsubr
          hintmask 1001011001110000
          -89 callsubr
          hintmask 0011011001110000
          -84 callgsubr
          hintmask 1001011001110000
          -100 callsubr
          -180 377 -92 callgsubr
          hintmask 1001011010110000
          -103 callgsubr
        </CharString>
        <CharString name="Adieresis">
          -74 callsubr
          71 95 hstemhm
          -2 40 292 106 96 106 hintmask 0011011011110000
          38 18 rmoveto
          hintmask 1001011011110000
          -105 callsubr
          hintmask 0101011011110000
          -1 callgsubr
          hintmask 0011011011110000
          -55 callgsubr
          hintmask 0101010111110000
          -102 callgsubr
          hintmask 1000111011110000
          -104 callgsubr
          hintmask 1001011011110000
          -89 callsubr
          hintmask 0011011011110000
          -84 callgsubr
          hintmask 1001011011110000
          -100 callsubr
          -108 434 -97 callgsubr
        </CharString>
        <CharString name="Agrave">
          -104 callsubr
          85 388 -101 callgsubr
        </CharString>
        <CharString name="Aring">
          -74 callsubr
          84 45 93 44 hstemhm
          -2 40 -40 150 180 43 101 43 hintmask 0011011011101100
          38 18 rmoveto
          hintmask 1001011011101100
          -105 callsubr
          hintmask 0101011011101100
          -1 callgsubr
          hintmask 0011011011101100
          -55 callgsubr
          hintmask 0101010111101100
          -102 callgsubr
          hintmask 1000111011011100
          -104 callgsubr
          hintmask 1001011011101100
          -89 callsubr
          hintmask 0011011011101100
          -84 callgsubr
          hintmask 1001011011101100
          -100 callsubr
          -110 508 -57 callgsubr
        </CharString>
        <CharString name="Atilde">
          -74 callsubr
          47 -44 callgsubr
          -2 40 hintmask 0011011010001000
          38 18 rmoveto
          hintmask 1001011010001000
          -105 callsubr
          hintmask 0101011010001000
          -1 callgsubr
          hintmask 0011011010001000
          -55 callgsubr
          hintmask 0101010110001000
          -102 callgsubr
          hintmask 1000111010001000
          -104 callgsubr
          hintmask 1001011010001000
          -89 callsubr
          hintmask 0011011010001000
          -84 callgsubr
          hintmask 1001011010001000
          -100 callsubr
          -257 392 -10 callgsubr
          hintmask 1001011001101000
          -66 callgsubr
          hintmask 1001011001011000
          -60 callsubr
          hintmask 1001011010001000
          -73 callsubr
        </CharString>
        <CharString name="B">
          87 -35 49 -47 -21 54 -21 502 200 -81 81 -61 61 -49 49 hstemhm
          55 162 -81 81 -37 37 130 38 200 50 10 44 hintmask 0111000100111000
          55 -25 rmoveto
          -16 5 -13 18 vhcurveto
          28 23 33 32 hhcurveto
          hintmask 1001000100111000
          17 6 -14 14 hhcurveto
          hintmask 0111000010111000
          10 4 3 11 5 hvcurveto
          44 hlineto
          hintmask 1001000100111000
          59 58 -14 59 hhcurveto
          27 225 8 211 78 -39 47 -73 28 hvcurveto
          41 34 17 28 49 vvcurveto
          7 -2 20 53 callgsubr
          1 2 0 3 4 vvcurveto
          44 -54 152 -312 -106 -108 -59 -102 -41 vhcurveto
          -1 -2 0 -7 -1 vvcurveto
          -14 11 -15 15 vhcurveto
          hintmask 1000100010111000
          36 27 119 55 hhcurveto
          21 -153 -2 -73 -5 vvcurveto
          -21 -1 -17 -8 -23 vvcurveto
          hintmask 1001000001111000
          -33 44 17 -26 vvcurveto
          -249 vlineto
          29 callsubr
          hintmask 1000001100111000
          -32 -4 -87 -15 -46 vvcurveto
          162 78 rmoveto
          -3 103 -1 66 44 63 2 17 16 33 -4 31 23 65 -7 -8 119 vvcurveto
          8 31 19 -1 37 hhcurveto
          9 11 -2 -5 5 hvcurveto
          32 -134 -8 -109 7 -137 rrcurveto
          7 -65 1 -74 -80 vvcurveto
          -25 3 -98 2 -9 9 rrcurveto
          162 235 rmoveto
          4 vlineto
          4 1 4 5 1 vhcurveto
          129 19 rlineto
          19 hlineto
          90 -28 16 -14 -101 vvcurveto
          -112 -143 -38 -82 -7 -17 2 7 2 39 callgsubr
          -7 82 -5 82 83 vvcurveto
          -14 344 rmoveto
          20 hlineto
          hintmask 1000010100111000
          1 2 0 3 32 157 -30 -128 -29 -17 -48 -48 -29 vhcurveto
          -1 -66 -9 -26 -2 vhcurveto
          -7 -29 -2 -6 hhcurveto
          104 -15 69 104 vvcurveto
          endchar
        </CharString>
        <CharString name="C">
          14 -50 41 callgsubr
          18 109 -51 51 153 35 -35 47 hintmask 11100110
          76 293 rmoveto
          -285 19 154 -58 126 -28 callgsubr
          -17 -16 1 -16 hhcurveto
          -9 -4 6 23 hvcurveto
          hintmask 11101001
          -48 callsubr
          hintmask 11011010
          37 callsubr
          hintmask 11101010
          -30 callsubr
          hintmask 11100110
          237 -273 -7 callsubr
          -37 callgsubr
        </CharString>
        <CharString name="Ccedilla">
          18 -258 37 171 41 callgsubr
          22 109 -51 51 153 47 -43 31 -31 43 56 38 hintmask 1111010010100000
          276 -50 callgsubr
          vvcurveto
          4 0 3 1 3 vhcurveto
          -1 7 8 0 8 -28 callgsubr
          hhcurveto
          -12 hlineto
          7 -1 -3 4 -9 hhcurveto
          -8 -5 -4 -6 -5 hvcurveto
          -6 hlineto
          -9 -4 6 23 hvcurveto
          hintmask 1111010001100000
          -48 callsubr
          hintmask 1110110100100000
          37 callsubr
          hintmask 1111010100100000
          -30 callsubr
          hintmask 1111001010100000
          50 hlineto
          16 -243 114 -77 111 -18 rrcurveto
          -2 -11 0 -9 -6 vvcurveto
          -19 callgsubr
          4 callgsubr
          -9 224 -7 callsubr
          hintmask 1111010100100000
          -37 callgsubr
        </CharString>
        <CharString name="D">
          129 -38 40 -19 37 614 40 -23 23 -23 43 hstemhm
          143 40 -21 21 130 35 325 49 hintmask 0110010110000000
          67 -18 rmoveto
          1 14 15 0 14 hhcurveto
          hintmask 1000110110000000
          101 76 -21 86 hhcurveto
          211 138 122 222 238 -157 150 -155 hvcurveto
          hintmask 0110001110000000
          -56 -23 -20 -93 hhcurveto
          -34 -44 3 12 -32 hvcurveto
          -56 -4 -38 -18 -37 -46 rrcurveto
          -10 vlineto
          -18 15 -3 17 vhcurveto
          23 26 23 28 42 hhcurveto
          7 5 -1 -6 2 hvcurveto
          19 -241 rlineto
          -20 vlineto
          -9 -21 -27 -21 -18 -10 18 -9 19 -8 14 -10 rrcurveto
          3 -80 9 -103 -81 vvcurveto
          -5 -1 -5 -6 vhcurveto
          -61 hlineto
          -30 -4 0 -16 -6 1 -10 6 -6 hvcurveto
          290 635 rmoveto
          2 -1 3 5 vvcurveto
          hintmask 1001010110000000
          21 21 3 23 196 77 -197 -146 -160 -93 -146 -176 -39 -17 7 54 vhcurveto
          179 9 197 178 vvcurveto
          -170 14 rmoveto
          hintmask 0110010110000000
          40 23 3 41 hhcurveto
          6 5 52 callgsubr
          hvcurveto
          6 -14 1 -15 -22 -22 -1 -75 -50 -12 1 1 -23 -56 -5 -251 -32 vvcurveto
          1 -7 0 -35 -8 vvcurveto
          -10 -4 1 -18 hhcurveto
          -25 -41 -2 0 hvcurveto
          -7 7 rlineto
          4 -22 326 110 44 4 99 28 vvcurveto
          endchar
        </CharString>
        <CharString name="E">
          -62 callgsubr
          4 callsubr
          101 37 -37 186 hintmask 0100101110010000
          -61 callgsubr
          hintmask 0011101110010000
          -22 callsubr
          hintmask 0100101110010000
          17 callgsubr
          hintmask 1000101110100000
          -81 callsubr
          hintmask 1000011110010000
          -17 callsubr
          hintmask 1000101110100000
          -96 callgsubr
          hintmask 0011101101010000
          -82 callgsubr
          hintmask 0100101110010000
          -87 callsubr
          endchar
        </CharString>
        <CharString name="Eacute">
          -97 callsubr
          52 349 -105 callgsubr
        </CharString>
        <CharString name="Ecircumflex">
          -62 callgsubr
          35 40 callgsubr
          133 -12 callsubr
          hintmask 0100101100110010
          -61 callgsubr
          hintmask 0011101100110010
          -22 callsubr
          hintmask 0100101100110010
          17 callgsubr
          hintmask 1000101100110100
          -81 callsubr
          hintmask 1000011100110010
          -17 callsubr
          hintmask 1000101100110100
          -96 callgsubr
          hintmask 0011101100101010
          -82 callgsubr
          hintmask 0100101001110010
          -87 callsubr
          -55 338 -92 callgsubr
          hintmask 1000101010110010
          -103 callgsubr
        </CharString>
        <CharString name="Edieresis">
          -62 callgsubr
          65 95 4 callsubr
          -10 106 5 37 54 95 hintmask 0100101111001100
          -61 callgsubr
          hintmask 0011101111001100
          -22 callsubr
          hintmask 0100101111001100
          17 callgsubr
          hintmask 1000101111001100
          -81 callsubr
          36 12 17 32 hvcurveto
          hintmask 1000011111001100
          29 -9 7 -14 vhcurveto
          hintmask 1000101111001100
          -96 callgsubr
          hintmask 0011101110101100
          -82 callgsubr
          hintmask 0100101111001100
          -87 callsubr
          hintmask 1000101110011100
          -10 395 -97 callgsubr
        </CharString>
        <CharString name="Egrave">
          -97 callsubr
          255 349 -101 callgsubr
        </CharString>
        <CharString name="Eth">
          142 1 71 221 76 -59 59 229 49 17 -20 55 -20 23 -20 hstemhm
          146 43 135 40 hintmask 1101001110000000
          29 21 rmoveto
          14 -16 rlineto
          -1 7 93 -3 33 hhcurveto
          98 124 -14 51 98 hvcurveto
          30 16 81 47 5 5 6 6 41 59 12 20 4 6 21 49 4 12 1 3 -3 13 2 1 rrcurveto
          1 4 13 11 3 vvcurveto
          21 49 -5 28 58 vvcurveto
          13 0 59 -1 12 vhcurveto
          -15 14 -71 59 -16 12 rrcurveto
          19 -27 -57 31 -33 hhcurveto
          -306 hlineto
          hintmask 1100110110000000
          -5 4 -20 11 -5 2 rrcurveto
          2 -1 -12 -2 -1 hhcurveto
          -6 3 -47 29 -5 3 rrcurveto
          hintmask 1100101110000000
          -3 -19 3 -3 hhcurveto
          -6 6 -26 4 -6 vhcurveto
          7 -10 41 -36 11 -4 rrcurveto
          -245 -124 vlineto
          hintmask 1011001110000000
          0 3 -42 4 -17 vhcurveto
          hintmask 1101001110000000
          -6 1 10 -11 3 hhcurveto
          101 hlineto
          -8 2 -36 -8 vvcurveto
          -15 -169 rlineto
          -31 -55 -7 -44 -16 hvcurveto
          306 69 rmoveto
          15 237 14 -3 60 0 13 3 rlinecurve
          2 11 11 6 2 hvcurveto
          3 11 -8 30 0 vvcurveto
          -89 hlineto
          0 3 113 3 48 vhcurveto
          1 15 16 26 12 10 rrcurveto
          10 40 1 9 hhcurveto
          91 86 -27 -92 56 hvcurveto
          4 -7 11 -36 -8 vvcurveto
          -3 -11 -47 -4 -18 vhcurveto
          -13 -50 -21 -63 -24 -39 -35 -57 -53 -45 -58 -16 rrcurveto
          -12 -39 -91 -24 -1 hhcurveto
          -161 545 rmoveto
          132 -20 rlineto
          0 3 -41 -17 -23 -3 -64 -6 vvcurveto
          -1 -7 -11 -23 -3 -3 -13 -5 -62 -12 -13 52 callsubr
          -4 -21 -1 -4 hhcurveto
          hintmask 1011001110000000
          -65 vmoveto
          118 hlineto
          -6 -1 -23 -6 vvcurveto
          -14 -169 rlineto
          -10 -3 -9 -24 -3 hhcurveto
          -88 hlineto
          endchar
        </CharString>
        <CharString name="Euro">
          87 5 37 -15 -21 220 41 361 49 hstemhm
          39 139 -32 186 -61 199 hintmask 01110100
          146 226 rmoveto
          5 -102 110 -66 77 -39 4 -2 12 -8 3 -3 rrcurveto
          hintmask 10111010
          8 37 -1 8 hhcurveto
          122 46 18 101 76 hvcurveto
          10 13 4 6 15 vvcurveto
          14 -6 2 -14 vhcurveto
          -2 -8 -1 -1 hhcurveto
          -103 -41 -83 -28 -107 hhcurveto
          -17 -22 3 11 -4 hvcurveto
          -50 173 7 13 117 19 rlineto
          17 1 16 11 16 vvcurveto
          16 -16 -1 -17 vhcurveto
          -9 -1 -80 -10 -10 -2 rrcurveto
          hintmask 10110100
          -1 -3 20 callsubr
          62 vlineto
          24 150 -24 42 vvcurveto
          13 -3 6 -19 vhcurveto
          -39 -36 -4 -39 hhcurveto
          75 39 97 65 43 vhcurveto
          8 37 2 8 hhcurveto
          64 42 -4 -60 39 hvcurveto
          1 5 -16 callsubr
          14 11 8 15 75 -139 16 -45 -177 -128 -120 -172 -37 hvcurveto
          hintmask 10111010
          -43 -71 3 -32 -8 1 -7 14 hvcurveto
          86 -74 -93 hlineto
          -13 -5 -15 -10 hvcurveto
          -5 2 8 -11 2 hhcurveto
          hintmask 10110100
          hintmask 10111010
          137 65 rmoveto
          36 149 14 55 68 83 55 18 rlinecurve
          -13 vlineto
          -68 -298 rlineto
          -7 -6 -5 -14 -2 -24 7 2 -20 vvcurveto
          -5 0 -5 -1 -7 vhcurveto
          36 -124 rlineto
          -12 vlineto
          -97 28 -38 132 63 vvcurveto
          endchar
        </CharString>
        <CharString name="F">
          38 -25 56 212 180 -112 112 97 169 -12 -20 hstemhm
          81 94 -44 44 -30 30 123 31 -31 150 -150 199 hintmask 1101010001000000
          50 -3 rmoveto
          -24 27 2 35 95 97 4 3 94 vhcurveto
          18 1 32 1 25 vvcurveto
          17 -11 5 -17 vhcurveto
          -24 -24 -6 -25 hhcurveto
          -5 -5 1 5 -1 hvcurveto
          hintmask 1011010010000000
          -7 73 0 58 73 vvcurveto
          63 vlineto
          7 13 rlineto
          99 -57 hlineto
          hintmask 1101010000100000
          -4 19 -7 0 31 12 106 30 14 -2 30 -23 -28 14 -52 -10 -23 vhcurveto
          -12 -6 -46 -7 0 vvcurveto
          hintmask 1101010010000000
          -12 -25 4 9 -11 hvcurveto
          64 vlineto
          66 0 34 7 71 vhcurveto
          13 3 138 12 33 hhcurveto
          11 hlineto
          94 -100 rlineto
          0 10 -1 4 32 6 33 33 vhcurveto
          hintmask 1100110010000000
          42 -3 29 20 vvcurveto
          hintmask 1101010010000000
          -6 12 rlineto
          -93 hlineto
          -198 -37 rlineto
          -1 -3 -32 0 -11 hhcurveto
          hintmask 1010100110000000
          -97 -94 26 -98 hhcurveto
          -13 -5 0 -10 -10 vvcurveto
          -9 0 -14 13 -2 vhcurveto
          105 -13 7 -25 rlineto
          -26 1 -78 -24 vvcurveto
          -63 -1 -36 -7 -26 vhcurveto
          hintmask 1011010010000000
          -12 -44 0 -25 -27 45 2 11 hvcurveto
          hintmask 1101001010000000
          -44 -6 -28 -40 -37 7 -30 -36 vvcurveto
          -25 -1 -15 -25 -27 -35 -2 -32 vhcurveto
          123 127 rmoveto
          25 1 83 1 11 vhcurveto
          4 103 12 251 2 5 6 12 rcurveline
          88 -18 6 -12 rlineto
          -1 -14 0 -41 -39 -93 6 -52 -84 -19 -5 -154 -19 -2 1 -6 -7 vvcurveto
          -8 -1 -7 -6 -2 vhcurveto
          -5 -24 -28 -1 -24 hhcurveto
          -30 hlineto
          -6 13 rlineto
          -1 5 -1 55 20 vvcurveto
          410 513 rmoveto
          9 18 0 6 12 2 -1 -18 -4 -4 -17 -2 -4 vhcurveto
          -11 6 -21 12 17 vvcurveto
          endchar
        </CharString>
        <CharString name="G">
          159 -42 -21 63 -21 36 -21 238 49 363 48 -31 -20 hstemhm
          116 177 0 50 0 94 158 198 -149 33 hintmask 1101101011000000
          62 302 rmoveto
          -240 41 134 -125 167 hhcurveto
          139 122 53 146 32 hvcurveto
          7 27 -8 45 15 31 rrcurveto
          14 30 68 -23 61 vvcurveto
          13 -14 8 -13 vhcurveto
          -32 -26 -48 -15 -43 -32 -38 4 -17 hhcurveto
          -33 -92 -9 -41 -15 17 -16 15 hvcurveto
          7 40 28 18 hhcurveto
          31 -45 30 -26 -53 vvcurveto
          -37 -28 -35 -33 -23 vhcurveto
          -14 -31 -74 -20 -7 hhcurveto
          hintmask 1011100100100000
          -15 -14 0 15 -9 hvcurveto
          -2 3 -16 119 -3 13 rrcurveto
          -15 75 -5 78 77 vvcurveto
          97 9 97 11 90 vhcurveto
          2 10 1 2 hhcurveto
          106 72 -96 -42 94 hvcurveto
          10 18 6 15 hvcurveto
          144 vlineto
          0 -19 21 -4 vhcurveto
          hintmask 1101011011000000
          -32 3 -31 -56 hhcurveto
          hintmask 1011101010100000
          -69 -60 31 -67 hhcurveto
          -127 -110 -81 -124 -46 hvcurveto
          -9 -26 -21 -110 -4 -1 -54 -21 rcurveline
          -1 -1 -7 -2 vvcurveto
          -3 0 -14 7 vhcurveto
          108 39 rmoveto
          121 49 83 96 65 vhcurveto
          2 5 24 11 1 hhcurveto
          5 2 -2 -5 4 hvcurveto
          -1 -20 0 -59 -58 -58 -8 -67 -20 vvcurveto
          -114 28 -113 18 -113 vhcurveto
          -18 hlineto
          -5 -57 31 13 -19 hvcurveto
          -53 39 -71 146 118 vvcurveto
          427 279 rmoveto
          46 4 48 1 7 2 rrcurveto
          -69 vlineto
          -19 18 -71 36 -11 8 rrcurveto
          46 -379 rmoveto
          22 45 -9 -28 hvcurveto
          -7 -43 -11 -40 -2 -5 -1 45 -19 38 -27 42 rrcurveto
          endchar
        </CharString>
        <CharString name="H">
          261 -32 72 -60 65 -53 53 -49 -21 28 -21 32 -21 22 14 callgsubr
          341 48 69 -20 144 60 -30 30 -30 50 1 -20 hstemhm
          173 35 106 43 -43 125 -113 31 254 131 -131 206 -118 43 -43 186 hintmask 000000101110011100100000
          48 -6 rmoveto
          hintmask 001000001110011100100000
          -1 14 15 -1 18 hhcurveto
          hintmask 000001001110011100100000
          21 23 1 23 hhcurveto
          62 66 -3 -21 42 hvcurveto
          hintmask 100000001110011100100000
          0 3 53 callgsubr
          hintmask 000010001110011100100000
          16 7 14 22 hhcurveto
          hintmask 000100001110011100100000
          19 8 -7 17 hhcurveto
          hintmask 000010001110011100001000
          7 3 32 12 13 vvcurveto
          30 -65 -3 -35 vhcurveto
          -8 7 1 56 21 68 7 67 67 vvcurveto
          17 10 24 3 22 21 18 -1 10 hhcurveto
          230 -50 rlineto
          -211 vlineto
          -7 -31 rlineto
          hintmask 010000001110011100010000
          1 -7 -10 1 -10 hhcurveto
          -30 -24 -7 -31 hvcurveto
          hintmask 000000101110011100100000
          -5 1 -7 6 -1 vhcurveto
          hintmask 000000011110011100100000
          6 7 1 6 hhcurveto
          hintmask 010000001110011100100000
          51 48 -15 51 hhcurveto
          hintmask 000010001110011100010000
          16 14 4 19 hvcurveto
          hintmask 100000001110011100100000
          31 -54 -2 -21 11 vhcurveto
          -4 94 -2 66 88 vvcurveto
          hintmask 100000001100101100000100
          43 19 106 66 58 vvcurveto
          9 -10 10 -9 vhcurveto
          -12 -91 -107 -7 -4 -3 4 -13 hhcurveto
          hintmask 100000001100101100001000
          86 6 83 88 vvcurveto
          7 6 rlineto
          -1 5 12 0 11 hhcurveto
          23 29 4 25 25 -31 -9 -67 -69 -88 -3 -32 -6 0 -9 7 hvcurveto
          99 hlineto
          hintmask 100000001110011100001000
          10 9 -26 -4 hvcurveto
          -240 vlineto
          -230 47 rlineto
          -105 hlineto
          -7 12 rlineto
          9 1 25 25 64 -7 11 41 vvcurveto
          34 17 5 19 vhcurveto
          8 9 -1 8 hhcurveto
          hintmask 100000001110011010100000
          15 12 3 23 19 -15 4 -18 hvcurveto
          -81 -80 -21 -80 -15 -8 9 -14 hhcurveto
          -15 -5 -5 -15 -5 hvcurveto
          -4 -12 1 -12 hhcurveto
          -24 -22 0 -17 -6 12 -27 0 hvcurveto
          75 hlineto
          37 -199 rlineto
          -37 vlineto
          -87 -37 rlineto
          -8 -4 1 -5 -8 vvcurveto
          -11 7 -10 12 vhcurveto
          25 21 20 25 hhcurveto
          23 1 -80 -25 hvcurveto
          -48 -6 -49 -44 vvcurveto
          -126 hlineto
          -3 -4 -28 0 hvcurveto
          hintmask 000000101101011100100000
          -9 2 -4 12 -5 vhcurveto
          160 204 rmoveto
          -49 384 rlineto
          11 70 14 78 vhcurveto
          3 -3 4 -12 -4 vvcurveto
          hintmask 100000001110011001100000
          6 -90 6 -113 -88 vvcurveto
          hintmask 100000001110011100100000
          -16 -12 -128 -17 vvcurveto
          0 2 -99 -9 vhcurveto
          -86 hlineto
          -6 6 rlineto
          -1 1 -6 52 22 vvcurveto
          endchar
        </CharString>
        <CharString name="I">
          13 callsubr
          hstemhm
          99 221 -182 182 -32 32 -32 136 hintmask 1001001000000000
          -35 callsubr
          hintmask 0111001000000000
          -47 callsubr
          rlineto
          10 3 3 8 0 vvcurveto
          13 -9 10 -13 vhcurveto
          hintmask 1001001000000000
          -68 callsubr
          hintmask 1000010001000000
          -34 callsubr
          hintmask 1001001000000000
          18 callgsubr
          hintmask 1000101000000000
          -71 callgsubr
          hintmask 1001001000000000
          -80 callsubr
          hintmask 1001000100000000
          -81 callgsubr
          hintmask 1001000010000000
          -79 callsubr
          endchar
        </CharString>
        <CharString name="Iacute">
          -177 -94 callgsubr
          -47 114 -105 callgsubr
        </CharString>
        <CharString name="Icircumflex">
          13 callsubr
          45 40 callgsubr
          133 3 callsubr
          136 hintmask 1001000111000000
          -35 callsubr
          hintmask 0111000111000000
          -56 callsubr
          13 -9 10 -13 vhcurveto
          hintmask 1001000111000000
          -68 callsubr
          hintmask 1000010110010000
          -34 callsubr
          hintmask 1001000111000000
          18 callgsubr
          hintmask 1000100111000000
          -71 callgsubr
          hintmask 1001000111000000
          -80 callsubr
          hintmask 1001000110100000
          -81 callgsubr
          hintmask 1001000110010000
          -79 callsubr
          -126 103 -92 callgsubr
          hintmask 1001001010010000
          -103 callgsubr
        </CharString>
        <CharString name="Idieresis">
          -178 -46 callsubr
          58 95 hstemhm
          81 106 -88 -11 callgsubr
          32 -32 101 -101 136 hintmask 1001001100100000
          -35 callsubr
          hintmask 0111001100100000
          -52 callsubr
          hintmask 1001001010000000
          -68 callsubr
          hintmask 1000011100001000
          -34 callsubr
          hintmask 1001001100100000
          18 callgsubr
          hintmask 1000101100100000
          -71 callgsubr
          hintmask 1001001010000000
          -80 callsubr
          hintmask 1001001001000000
          -81 callgsubr
          hintmask 1001001100010000
          -79 callsubr
          -90 143 -97 callgsubr
        </CharString>
        <CharString name="Igrave">
          -178 -94 callgsubr
          174 114 -101 callgsubr
        </CharString>
        <CharString name="J">
          12 -95 50 479 248 -61 61 -12 -20 26 -20 hstemhm
          21 158 -106 54 -54 154 87 62 -49 49 124 66 -51 51 hintmask 1000110010010000
          21 109 rmoveto
          -157 82 -47 109 134 138 51 256 58 vhcurveto
          25 111 -1 192 58 vvcurveto
          62 -9 41 -34 vhcurveto
          hintmask 1001010010100000
          -14 -62 -6 -33 hhcurveto
          hintmask 1100000110100000
          -47 -18 12 -59 hhcurveto
          -200 -17 -146 -3 -32 44 -67 52 25 33 16 18 hvcurveto
          hintmask 1010001001100000
          30 -100 -34 67 vvcurveto
          44 43 41 32 5 vhcurveto
          99 12 25 -6 -6 callgsubr
          -15 -7 vvcurveto
          hintmask 1100010010100000
          -160 -12 -79 -1 -240 vhcurveto
          -39 -1 -51 -12 -49 vhcurveto
          -26 -33 -51 -6 -41 hhcurveto
          -25 3 39 18 -1 hvcurveto
          4 9 22 58 35 vvcurveto
          25 -12 -7 -33 23 vhcurveto
          22 -30 -15 27 -27 hhcurveto
          -43 2 -72 -23 hvcurveto
          hintmask 1010001010010000
          52 -13 rmoveto
          1 -1 3 7 vvcurveto
          11 2 15 8 3 33 -19 -7 7 vhcurveto
          -12 -39 -2 -39 -45 vvcurveto
          -28 21 -4 31 -6 60 rrcurveto
          303 518 rmoveto
          2 12 56 5 13 hhcurveto
          13 35 -5 -2 2 hvcurveto
          6 -6 rlineto
          -5 2 -54 -17 vvcurveto
          hintmask 1100010010100000
          -25 -5 -108 -10 -133 vhcurveto
          -9 -121 -64 -134 -81 -23 rrcurveto
          20 183 10 262 181 vvcurveto
          endchar
        </CharString>
        <CharString name="K">
          193 2 39 -37 14 callgsubr
          632 61 -18 -20 36 28 callsubr
          130 60 -43 28 147 49 -49 145 -126 30 235 225 -162 162 hintmask 1001000100100100
          146 62 rmoveto
          -15 -1 -18 -12 -13 -3 -28 -6 -11 -2 -1 -36 rrcurveto
          341 hlineto
          15 51 8 28 5 -12 17 -4 hvcurveto
          -64 -14 rlineto
          -16 25 -3 27 31 vvcurveto
          29 0 37 4 33 vhcurveto
          26 16 31 6 28 hhcurveto
          89 67 -126 -58 50 hvcurveto
          10 -13 6 1 -12 vvcurveto
          hintmask 0101000101001000
          -21 -63 15 -46 vvcurveto
          -14 16 -3 14 vhcurveto
          hintmask 0010100100011000
          6 5 1 3 hhcurveto
          30 151 7 46 hvcurveto
          -44 -27 7 32 -32 hvcurveto
          -78 77 -68 123 -104 43 69 91 191 142 69 91 rrcurveto
          18 -5 -11 -2 -12 hhcurveto
          -21 -5 -2 -14 -21 hvcurveto
          -45 -31 -271 -261 -44 -32 rrcurveto
          7 -1 36 9 vvcurveto
          hintmask 1001000101001000
          65 1 110 15 70 vhcurveto
          3 21 65 -1 17 vvcurveto
          hintmask 1000001101001000
          18 -13 5 -18 vhcurveto
          hintmask 1000010101001000
          -1 -2 -9 0 -11 hhcurveto
          hintmask 1001000101001000
          -105 -9 2 -88 hhcurveto
          -27 -92 -10 -21 -57 hvcurveto
          -2 -1 -11 -2 vvcurveto
          -15 6 -16 18 vhcurveto
          8 1 11 3 53 10 11 2 rlinecurve
          -282 vlineto
          -26 -14 -24 -22 hvcurveto
          40 hlineto
          hintmask 1001000011001000
          8 -76 9 -52 -67 -6 -1 -20 -5 vvcurveto
          hintmask 1001000101001000
          44 hmoveto
          hintmask 1001000011001000
          -2 25 -10 116 -3 25 rrcurveto
          15 vlineto
          hintmask 1001000100011000
          3 45 10 283 2 45 rrcurveto
          152 hlineto
          -6 0 -32 -1 -7 vhcurveto
          hintmask 1001000101001000
          -8 -200 -11 -158 -172 vvcurveto
          -46 -64 4 17 -22 hvcurveto
          endchar
        </CharString>
        <CharString name="L">
          117 -19 64 -46 46 -40 -21 35 -21 622 42 1 -20 33 -20 hstemhm
          130 199 354 56 hintmask 1000100110000000
          23 39 rmoveto
          -33 2 -5 17 -5 vhcurveto
          -15 50 32 0 47 hhcurveto
          hintmask 0001100110000000
          92 81 5 12 89 hvcurveto
          hintmask 0100100110000000
          2 27 1 11 hhcurveto
          hintmask 0010100110000000
          63 61 -15 62 hhcurveto
          52 28 165 34 30 -7 24 -23 8 hvcurveto
          -21 -23 -93 -101 -23 -21 -12 -13 -57 -28 -12 -5 rrcurveto
          hintmask 1000001110000000
          -7 -15 -15 -2 -14 -23 -24 5 -26 hhcurveto
          -41 -3 21 33 hvcurveto
          33 -1 43 44 vvcurveto
          51 1 51 7 37 vhcurveto
          3 15 17 184 3 13 rrcurveto
          2 13 13 30 1 vvcurveto
          6 4 60 8 6 2 rrcurveto
          11 4 5 9 9 vvcurveto
          20 -29 1 -14 vhcurveto
          hintmask 1000100110000000
          -33 -237 -12 -2 -31 hvcurveto
          hintmask 1000010110000000
          -3 -11 1 -8 hhcurveto
          -12 -41 -13 -8 hvcurveto
          hintmask 1000100110000000
          -13 7 -9 14 vhcurveto
          21 46 5 12 hhcurveto
          -7 2 -47 -9 vvcurveto
          -1 -19 -20 -154 -3 -11 rrcurveto
          -6 -27 -38 -15 -24 vvcurveto
          -15 32 -3 16 -3 vhcurveto
          -12 4 -61 -47 vvcurveto
          -2 -14 0 -20 -21 -35 1 -34 -8 vvcurveto
          43 hmoveto
          -1 10 0 46 10 16 -8 46 4 vvcurveto
          8 76 14 333 5 10 15 30 rcurveline
          112 -16 hlineto
          -9 -6 -399 -23 -112 vhcurveto
          -2 -13 -10 -29 -2 -3 rrcurveto
          -3 -68 -14 -10 hhcurveto
          -11 -4 2 12 -6 hvcurveto
          511 115 rmoveto
          -75 -15 -40 -55 -18 -31 0 3 -13 vhcurveto
          58 24 44 56 30 32 rrcurveto
          endchar
        </CharString>
        <CharString name="M">
          489 -5 42 -14 -21 619 50 9 -20 hstemhm
          235 78 hintmask 10101000
          230 608 rmoveto
          3 -16 2 -16 -16 vvcurveto
          -118 -71 -132 -39 -135 vhcurveto
          -2 -10 -36 -68 -17 -35 rrcurveto
          -23 -39 -58 29 -57 vvcurveto
          194 hlineto
          44 -1 34 8 3 hvcurveto
          -74 hlineto
          0 -8 10 9 vvcurveto
          7 7 30 7 13 vhcurveto
          35 69 66 287 16 48 25 -135 54 -138 49 -131 rrcurveto
          -30 12 11 -23 33 hhcurveto
          40 47 70 34 22 hvcurveto
          27 43 90 202 21 48 18 15 rcurveline
          115 -411 rlineto
          hintmask 01101000
          49 -52 rlineto
          222 hlineto
          13 4 18 6 hvcurveto
          hintmask 10011000
          3 -1 7 1 vvcurveto
          -64 13 -19 5 -23 66 -13 33 -36 98 -2 9 rrcurveto
          26 vlineto
          42 38 -6 32 vvcurveto
          13 -38 2 -17 9 vhcurveto
          -25 13 -41 166 38 43 68 -28 43 vvcurveto
          26 -36 0 -13 vhcurveto
          -31 -6 -137 -23 -31 -5 rrcurveto
          -15 -3 -22 -4 hvcurveto
          -19 1 -39 -1 vvcurveto
          -63 -24 -71 -222 -36 -1 -6 2 -1 hhcurveto
          hintmask 10101000
          -37 132 -50 204 -3 57 rrcurveto
          -163 -53 0 -17 -115 hvcurveto
          -13 -7 -6 -7 -12 vvcurveto
          -21 39 -5 13 vhcurveto
          19 24 6 22 hhcurveto
          520 -45 rmoveto
          36 10 21 8 38 hhcurveto
          36 81 -363 -156 40 hvcurveto
          -2 34 -38 -2 vvcurveto
          -13 -24 -8 -22 hhcurveto
          -26 -23 3 38 -15 hvcurveto
          -40 103 -26 106 -31 108 rrcurveto
          -10 50 -30 83 34 vvcurveto
          -437 13 rmoveto
          45 20 0 38 7 29 0 -1 6 vhcurveto
          49 -159 38 -180 28 -74 -1 -6 -43 -69 -12 -11 rrcurveto
          -10 hlineto
          -8 -14 5 13 -3 hvcurveto
          -123 413 rlineto
          -1 1 0 18 5 vvcurveto
          endchar
        </CharString>
        <CharString name="N">
          35 callsubr
          678 -20 24 -20 hstemhm
          140 40 281 249 -73 73 -42 29 hintmask 0001011100000000
          40 callsubr
          hintmask 0010011100000000
          -60 callgsubr
          hintmask 0100011010000000
          22 callsubr
          hintmask 1000011001000000
          -38 callsubr
          hintmask 1000101001000000
          -78 callgsubr
          6 callsubr
          hintmask 1000011010000000
          -35 callgsubr
          endchar
        </CharString>
        <CharString name="Ntilde">
          35 callsubr
          623 150 -95 -20 24 -20 33 -44 callgsubr
          140 40 281 249 -73 73 -42 29 hintmask 0001100001011000
          40 callsubr
          hintmask 0010100001011000
          -60 callgsubr
          hintmask 0100100001010100
          22 callsubr
          hintmask 1000001100010010
          -38 callsubr
          hintmask 1000010100010010
          -78 callgsubr
          hintmask 1000100001010100
          6 callsubr
          -35 callgsubr
          -49 114 rmoveto
          hintmask 1000001100011000
          -14 6 -11 16 vhcurveto
          hintmask 1000001011011000
          -66 callgsubr
          hintmask 1000100000111000
          -60 callsubr
          hintmask 1000001100011000
          -73 callsubr
        </CharString>
        <CharString name="O">
          -24 callgsubr
          -101 callsubr
          endchar
        </CharString>
        <CharString name="OE">
          187 7 49 385 -20 152 41 -13 62 -1 -20 61 -20 hstemhm
          46 41 0 84 0 31 0 241 0 29 0 70 hintmask 1110111010100000
          46 286 rmoveto
          -133 31 -50 97 -63 vhcurveto
          15 -10 40 -23 0 vvcurveto
          199 hlineto
          6 7 42 23 9 3 17 4 138 23 42 5 rrcurveto
          2 22 1 6 36 -9 -18 22 hhcurveto
          18 33 117 25 hvcurveto
          -45 14 -36 -23 -28 hvcurveto
          -35 -46 -61 2 -56 -5 -25 1 -5 hhcurveto
          4 7 10 34 8 vvcurveto
          4 25 10 115 25 vvcurveto
          7 3 29 11 8 2 rrcurveto
          13 hlineto
          6 -4 18 -23 4 -5 rrcurveto
          3 10 10 6 1 hvcurveto
          1 4 11 68 2 26 rrcurveto
          2 1 19 2 vvcurveto
          -44 -10 -57 -46 -1 -11 20 callsubr
          -85 188 rlineto
          184 hlineto
          11 34 103 27 hvcurveto
          -2 -13 -6 -1 -1 hvcurveto
          -7 -6 -42 -55 -8 -6 rrcurveto
          -4 -8 -49 -11 -14 hhcurveto
          -19 -109 11 4 -27 hvcurveto
          -12 4 -89 27 -12 2 rrcurveto
          hintmask 1101011001010000
          -1 -10 1 -3 hhcurveto
          -23 -7 -3 -14 -27 hvcurveto
          -129 -64 -69 -138 -158 vvcurveto
          156 -32 rmoveto
          9 10 105 3 33 vhcurveto
          57 8 18 143 69 hhcurveto
          5 14 -1 -4 hvcurveto
          5 -2 40 -45 11 -17 rrcurveto
          44 -60 14 -84 -77 vvcurveto
          -57 -2 -101 -28 -47 vhcurveto
          -15 -7 -30 -35 -5 hhcurveto
          -113 hlineto
          0 -10 13 -4 3 vhcurveto
          -7 14 -20 35 -2 1 rrcurveto
          -3 17 -10 93 22 vvcurveto
          -115 12 rmoveto
          113 30 61 57 92 vhcurveto
          13 7 2 5 12 1 5 -1 1 hhcurveto
          hintmask 1101010101010000
          -28 -145 -3 -154 -149 vvcurveto
          -3 -6 3 2 -2 hvcurveto
          -48 41 -25 51 68 vvcurveto
          385 29 rmoveto
          107 -6 67 -38 96 vhcurveto
          1 1 4 0 1 hhcurveto
          2 6 0 -1 hvcurveto
          84 -73 16 -117 -115 vvcurveto
          -31 3 -46 -18 -28 vhcurveto
          -9 -14 -49 -56 -12 -13 rrcurveto
          4 -1 11 3 3 1 12 1 7 14 52 6 5 1 86 33 vvcurveto
          endchar
        </CharString>
        <CharString name="Oacute">
          -88 callgsubr
          -312 409 -105 callgsubr
        </CharString>
        <CharString name="Ocircumflex">
          -24 callgsubr
          23 40 callgsubr
          133 -20 hstemhm
          -29 callgsubr
          hintmask 1101111110000000
          -107 callgsubr
          -419 398 -92 callgsubr
          hintmask 1110111110000000
          -103 callgsubr
        </CharString>
        <CharString name="Odieresis">
          -24 callgsubr
          36 95 hstemhm
          40 53 97 50 -11 106 96 106 17 48 91 46 hintmask 1111101110000000
          -107 callgsubr
          hintmask 1111011110000000
          -373 438 -97 callgsubr
        </CharString>
        <CharString name="Ograve">
          -88 callgsubr
          -136 409 -101 callgsubr
        </CharString>
        <CharString name="Oslash">
          197 12 37 584 44 -26 50 -43 -20 33 -20 25 -20 hstemhm
          84 43 -16 154 410 44 hintmask 1100001010000000
          -15 33 rmoveto
          -18 4 -3 18 vhcurveto
          11 hlineto
          124 106 rlineto
          -83 56 125 -23 92 hhcurveto
          76 78 34 59 49 hvcurveto
          13 16 35 51 2 7 50 162 rcurveline
          1 1 39 16 43 -8 39 42 vvcurveto
          124 100 rlineto
          0 2 8 4 vvcurveto
          hintmask 1001001010000000
          17 0 8 -18 -1 -7 54 callgsubr
          -124 -93 -69 81 rlineto
          hintmask 1000011010000000
          -4 6 -61 21 -21 4 rrcurveto
          hintmask 1100001010000000
          -1 -27 1 -11 hhcurveto
          hintmask 1000101010000000
          -30 -25 -6 -29 hhcurveto
          9 2 7 5 vvcurveto
          hintmask 1010001010000000
          6 -3 3 -15 -82 -103 -63 -49 -30 vhcurveto
          -80 -180 rlineto
          -11 -24 -3 -41 -30 vvcurveto
          hintmask 1100000110000000
          -51 27 -46 -46 vvcurveto
          -1 0 -8 -1 vhcurveto
          -124 -118 rlineto
          0 -1 -8 -3 vvcurveto
          299 141 rmoveto
          372 304 rlineto
          3 3 11 4 5 hhcurveto
          -163 vlineto
          -57 -148 rlineto
          -61 -23 -109 -64 -60 -8 -9 -1 -8 hhcurveto
          -26 -31 4 22 -10 hvcurveto
          -69 217 rmoveto
          62 230 1 3 48 56 19 22 rlinecurve
          26 24 46 5 34 hhcurveto
          2 6 -16 callsubr
          93 -30 rlineto
          14 -5 37 -47 -11 vvcurveto
          -2 -1 -4 0 vhcurveto
          -385 -309 rlineto
          hintmask 1010001010000000
          -138 88 rmoveto
          9 1 31 1 2 vhcurveto
          62 173 2 6 34 43 14 13 rlinecurve
          32 32 51 30 47 hhcurveto
          -24 -37 -51 4 -12 -60 -62 -291 rcurveline
          -5 6 -50 -1 vvcurveto
          58 -137 rlineto
          -15 hlineto
          -4 -49 22 9 -15 hvcurveto
          -62 38 -14 103 66 vvcurveto
          endchar
        </CharString>
        <CharString name="Otilde">
          -24 callgsubr
          12 -44 callgsubr
          -29 callgsubr
          hintmask 1110001111000000
          -107 callgsubr
          -487 396 -10 callgsubr
          hintmask 1101101111000000
          -66 callgsubr
          hintmask 1101011111000000
          -60 callsubr
          hintmask 1110001111000000
          -73 callsubr
        </CharString>
        <CharString name="P">
          10 -12 39 616 39 hstemhm
          137 25 -25 37 -37 149 -11 38 184 42 49 41 hintmask 11100111
          61 8 rmoveto
          -8 2 -12 10 vhcurveto
          365 hlineto
          13 13 rlineto
          25 -18 -14 1 -50 hhcurveto
          -19 -19 0 -1 -6 hvcurveto
          -12 12 rlineto
          240 vlineto
          42 1 119 -6 80 56 rrcurveto
          70 49 5 73 28 vvcurveto
          29 -5 21 -8 17 vhcurveto
          134 -61 -305 2 -43 hhcurveto
          -67 -45 1 -4 -59 hvcurveto
          -10 -4 -4 -5 -10 vvcurveto
          -15 9 -4 12 vhcurveto
          9 14 2 6 hhcurveto
          56 5 -196 -57 hvcurveto
          -13 -35 -11 -7 -15 9 -4 11 hvcurveto
          11 14 4 7 hhcurveto
          -336 vlineto
          -8 -37 5 -12 hhcurveto
          -16 -3 -8 -10 hvcurveto
          hintmask 11010111
          113 30 rmoveto
          hintmask 11100111
          49 -10 292 -2 50 vhcurveto
          -2 18 -11 151 1 19 rrcurveto
          -1 4 -1 17 4 vvcurveto
          90 hlineto
          11 19 -248 -104 7 hvcurveto
          -36 2 -50 -70 vvcurveto
          -50 -1 -58 -29 vhcurveto
          hintmask 11010111
          -5 2 -62 9 -6 1 rrcurveto
          hintmask 11001011
          112 605 rmoveto
          16 53 -3 -13 45 hvcurveto
          84 -25 13 -54 -70 vvcurveto
          -63 -6 -86 -79 -4 vhcurveto
          -6 -10 -1 -24 hhcurveto
          -40 -10 3 14 -7 hvcurveto
          -17 36 -12 144 122 vvcurveto
          227 -57 rmoveto
          24 51 -32 -81 -83 -57 -42 -33 -5 hvcurveto
          36 36 5 50 42 vvcurveto
          40 -4 33 -22 42 vhcurveto
          endchar
        </CharString>
        <CharString name="Q">
          195 -81 39 -39 157 -136 41 43 -21 91 79 -49 49 451 56 -9 54 -46 -20 hstemhm
          11 104 -57 57 96 45 283 88 53 42 67 40 hintmask 1001011001011110
          570 3 rmoveto
          1 2 -16 callsubr
          -62 77 25 -21 41 hhcurveto
          69 44 53 56 36 -18 55 -40 5 hvcurveto
          -8 1 -7 -16 -1 -24 33 -24 -28 vvcurveto
          -35 -25 -39 -38 -31 -68 53 25 6 0 4 8 4 vhcurveto
          54 70 33 156 91 vvcurveto
          80 -2 109 -73 54 vhcurveto
          61 -82 -51 9 -34 hhcurveto
          hintmask 1001100011011110
          -15 -11 -1 -6 hhcurveto
          -19 5 19 6 -13 hvcurveto
          hintmask 1001100101011110
          13 -26 -30 8 -27 hhcurveto
          -28 -27 -8 -19 -26 hvcurveto
          -103 -74 -65 -134 -22 -128 rrcurveto
          -7 -49 -1 -23 -17 43 -11 6 -2 hvcurveto
          hintmask 0011101000111110
          -1 -11 -1 -10 -9 vvcurveto
          -226 207 -112 99 69 74 32 30 60 vhcurveto
          -58 callgsubr
          -292 71 rmoveto
          -15 69 -7 72 60 vvcurveto
          129 69 220 156 149 50 -103 -180 vhcurveto
          hintmask 0100011001011110
          -29 -46 -236 -44 -1 -2 2 0 vhcurveto
          55 -50 -33 40 -68 hhcurveto
          -32 -36 -19 -30 hvcurveto
          hintmask 1001101001011110
          8 callgsubr
          hintmask 0011010101011110
          22 10 30 22 hhcurveto
          21 68 -48 -34 -29 -118 -32 -32 -47 -46 54 39 -18 hvcurveto
          -163 188 rmoveto
          199 97 210 126 19 19 -7 -13 20 vhcurveto
          -132 -96 -53 -113 -165 vvcurveto
          -103 17 -118 43 -52 vhcurveto
          -50 20 -106 83 155 vvcurveto
          endchar
        </CharString>
        <CharString name="R">
          118 -21 -21 33 30 -24 -21 35 -21 39 -21 614 39 hstemhm
          26 44 -44 203 -16 198 -43 43 -43 130 116 32 -32 52 -52 150 hintmask 1000111010000100
          501 237 rmoveto
          17 22 -9 -8 13 hvcurveto
          58 -36 2 -51 1 -47 rrcurveto
          -7 -1 -6 -6 vvcurveto
          -34 3 -30 24 -19 vhcurveto
          -18 23 10 -8 22 hhcurveto
          41 28 52 34 10 -8 -1 -6 -29 -16 -29 -16 -18 hvcurveto
          -3 -13 13 6 -6 hvcurveto
          hintmask 1100011010001000
          10 1 13 12 vvcurveto
          76 -14 96 -80 28 vhcurveto
          7 vlineto
          68 105 rlineto
          hintmask 1001011010010000
          1 1 5 31 8 vvcurveto
          215 -209 32 -143 -56 -49 -7 -25 -51 vhcurveto
          -77 -51 -35 -82 -90 vvcurveto
          -35 16 -121 59 vhcurveto
          8 3 18 9 10 vvcurveto
          -53 48 -4 27 74 vvcurveto
          29 1 30 17 24 vhcurveto
          39 27 43 55 21 hhcurveto
          3 -1 6 -18 rlineto
          17 -163 8 -179 -160 -6 -1 -26 -6 vvcurveto
          -24 -12 -69 19 -37 vvcurveto
          -9 3 -5 10 -5 vhcurveto
          hintmask 1100011010010000
          11 10 1 10 hhcurveto
          hintmask 0010111000110000
          91 91 -15 91 hhcurveto
          18 44 3 25 hvcurveto
          hintmask 1100010101010000
          19 -26 -2 -24 vhcurveto
          -31 hlineto
          -12 186 6 6 rlineto
          -1 65 21 25 4 vhcurveto
          -232 -198 rmoveto
          -3 7 -4 8 -6 4 rrcurveto
          -16 153 -11 155 154 vvcurveto
          25 1 67 1 4 vhcurveto
          13 6 rlineto
          86 hlineto
          1 13 -91 -39 5 hvcurveto
          14 -115 -3 -117 8 -115 rrcurveto
          -2 6 -21 -1 vvcurveto
          1 -14 2 -62 -13 vvcurveto
          -37 -36 3 4 -35 hvcurveto
          136 242 rmoveto
          -17 103 0 110 -8 103 rrcurveto
          3 -1 13 3 vvcurveto
          20 hlineto
          3 78 -30 -14 31 hvcurveto
          65 -28 27 -75 -64 vvcurveto
          -87 -27 -66 -44 -93 hhcurveto
          -6 -4 0 7 -2 hvcurveto
          endchar
        </CharString>
        <CharString name="S">
          2 callgsubr
          hstemhm
          71 39 -39 83 287 33 49 40 hintmask 1010100011100000
          -64 callgsubr
          hintmask 1011000101100000
          6 callgsubr
          hintmask 1010001101100000
          13 -4 -13 1 -12 hhcurveto
          hintmask 1010010101100000
          37 callgsubr
          hintmask 1011000101100000
          -57 callsubr
          hintmask 0111000101100000
          -63 callsubr
          366 29 -14 callsubr
        </CharString>
        <CharString name="Scaron">
          2 callgsubr
          245 -20 hstemhm
          71 39 -39 83 287 33 49 40 hintmask 1010100101110000
          -64 callgsubr
          hintmask 1011000110110000
          6 callgsubr
          hintmask 1010001110110000
          13 -4 -13 1 -12 hhcurveto
          hintmask 1010010110110000
          37 callgsubr
          hintmask 1011000110110000
          -57 callsubr
          hintmask 0111000110110000
          -63 callsubr
          15 312 -86 callgsubr
          351 -283 -14 callsubr
        </CharString>
        <CharString name="T">
          59 -18 44 578 40 -20 67 hstemhm
          236 46 -22 32 110 32 hintmask 11010100
          148 4 rmoveto
          -8 1 -14 12 vhcurveto
          304 hlineto
          62 4 rlineto
          11 1 2 15 8 vvcurveto
          17 -13 -1 -17 vhcurveto
          -17 -24 -5 -13 hhcurveto
          -15 -7 23 124 hvcurveto
          52 6 126 90 vvcurveto
          143 8 25 31 vhcurveto
          83 -32 116 -49 rlineto
          1 -2 18 21 4 vvcurveto
          -1 2 -67 137 rlineto
          hintmask 10110100
          5 -3 -4 1 -4 hhcurveto
          -31 -3 -13 -12 -24 hvcurveto
          hintmask 11001100
          -19 -40 -35 -3 -45 -28 -31 1 -38 -23 -26 -2 -28 hhcurveto
          -29 -29 1 8 -25 hvcurveto
          -113 35 -67 -176 rlineto
          -15 12 -16 15 vhcurveto
          2 1 9 1 hhcurveto
          165 106 61 9 rlineto
          -243 vlineto
          hintmask 11010100
          -143 -19 -131 -5 -67 vhcurveto
          -75 hlineto
          -12 -1 -8 -8 hvcurveto
          148 454 rmoveto
          21 3 100 3 24 vhcurveto
          -4 19 17 -3 17 hhcurveto
          18 17 3 6 18 hvcurveto
          -12 -580 rlineto
          -3 -28 -53 -1 -33 hhcurveto
          hintmask 10101100
          79 10 55 99 84 4 102 18 vvcurveto
          -177 165 rmoveto
          19 10 -1 -12 19 hvcurveto
          -99 -56 rlineto
          3 16 67 22 vhcurveto
          4 4 -1 5 hhcurveto
          hintmask 11010100
          431 -19 rmoveto
          20 9 33 5 20 hhcurveto
          21 10 -39 -11 hvcurveto
          endchar
        </CharString>
        <CharString name="Thorn">
          69 -19 47 120 44 -44 59 247 -20 236 -20 27 -20 25 -7 callgsubr
          hintmask 1101010001001100
          75 6 rmoveto
          -10 6 -15 -39 callgsubr
          11 8 1 61 26 31 callsubr
          51 -64 22 14 callsubr
          16 1 8 46 callgsubr
          hintmask 1101010100011100
          33 callsubr
          hintmask 1101100100101100
          -61 -58 -7 -60 hhcurveto
          hintmask 1101001010101100
          46 callsubr
          -12 -15 hvcurveto
          -20 -15 -55 19 -35 vvcurveto
          -10 15 -15 10 vhcurveto
          4 35 6 5 hhcurveto
          12 hlineto
          7 -111 rlineto
          -5 -1 -21 -5 vvcurveto
          hintmask 1101010100101100
          -41 -40 8 0 callsubr
          -19 -8 -6 23 callgsubr
          -8 21 -21 11 vhcurveto
          hintmask 1011010001001100
          8 callsubr
          10 23 30 -2 33 callgsubr
          hintmask 1011010100101100
          6 -34 1 -61 -111 -78 -2 -177 -78 45 callsubr
          296 50 -2 hvcurveto
          -2 68 7 callgsubr
          -63 rlineto
          6 -5 22 callgsubr
          82 83 9 callgsubr
          1 0 -8 callsubr
          vvcurveto
          44 -17 37 -41 -46 vvcurveto
          hintmask 1101010100101100
          47 callgsubr
          42 53 vvcurveto
          endchar
        </CharString>
        <CharString name="U">
          107 -32 44 509 163 -58 58 -8 -20 27 -55 callsubr
          hintmask 1100010100100000
          -87 callgsubr
          hintmask 1100010010010000
          -83 callgsubr
          hintmask 1100010100100000
          -32 callgsubr
          hintmask 1100010001100000
          -43 callsubr
          hintmask 1001010100100000
          17 callsubr
          hintmask 1000110100100000
          -34 callgsubr
          hintmask 1100010100100000
          8 callgsubr
          hintmask 1010001100100000
          -98 callgsubr
          endchar
        </CharString>
        <CharString name="Uacute">
          -36 callgsubr
          56 -20 107 -55 callsubr
          hintmask 1100011101001000
          -87 callgsubr
          hintmask 1100011100100100
          -83 callgsubr
          hintmask 1100011101001000
          -32 callgsubr
          hintmask 1100011100011000
          -43 callsubr
          hintmask 1001011101001000
          17 callsubr
          hintmask 1000111101001000
          -34 callgsubr
          hintmask 1100011101001000
          8 callgsubr
          hintmask 1010011011001000
          -98 callgsubr
          131 217 -105 callgsubr
        </CharString>
        <CharString name="Ucircumflex">
          -36 callgsubr
          180 -94 callsubr
          16 224 -99 callsubr
        </CharString>
        <CharString name="Udieresis">
          -36 callgsubr
          77 95 hstemhm
          18 150 -39 39 46 106 -46 33 -33 97 -97 128 14 106 77 63 -37 37 hintmask 1100011010001100
          -87 callgsubr
          hintmask 1100011000101010
          -83 callgsubr
          hintmask 1100011001001100
          26 -3 142 25 vvcurveto
          hintmask 1100011010001100
          30 9 54 4 9 vhcurveto
          hintmask 1100011000011100
          -43 callsubr
          hintmask 1001011010001100
          17 callsubr
          hintmask 1000111010001100
          -34 callgsubr
          hintmask 1100011010001100
          8 callgsubr
          hintmask 1010010110001100
          -98 callgsubr
          43 263 -97 callgsubr
        </CharString>
        <CharString name="Ugrave">
          -36 callgsubr
          152 -94 callsubr
          316 226 -101 callgsubr
        </CharString>
        <CharString name="V">
          27 -2 -21 658 40 -40 52 -13 -20 hstemhm
          hintmask 10100000
          263 3 rmoveto
          -12 49 45 -14 49 hhcurveto
          13 12 1 18 5 hvcurveto
          171 641 rlineto
          3 11 -2 14 hhcurveto
          19 22 3 17 31 -71 1 -10 -18 -83 -5 -2 -17 hvcurveto
          -13 -4 -7 -5 -12 vvcurveto
          -5 1 -20 6 vhcurveto
          74 hlineto
          7 0 -12 -3 hvcurveto
          -7 vlineto
          -1 -6 -10 -68 -2 -6 rrcurveto
          -6 vlineto
          -108 -437 rlineto
          -6 hlineto
          -139 523 rlineto
          hintmask 10010000
          -18 22 18 28 -30 12 rrcurveto
          hintmask 11000000
          -8 -37 1 -8 hhcurveto
          -55 -20 -3 -4 -40 hvcurveto
          -23 -3 -64 4 -35 vvcurveto
          -4 0 -12 7 vhcurveto
          98 hlineto
          51 -272 rlineto
          -27 -57 27 -34 vvcurveto
          -3 0 -13 7 vhcurveto
          61 hlineto
          84 -268 1 -10 9 -10 8 -5 rlinecurve
          12 43 rmoveto
          -145 566 rlineto
          5 15 7 5 vhcurveto
          85 hlineto
          152 -578 rlineto
          -32 vlineto
          -18 -68 19 -1 hhcurveto
          endchar
        </CharString>
        <CharString name="W">
          256 -12 49 -42 -21 28 -21 626 44 6 -20 hstemhm
          20 57 420 50 -30 75 97 207 hintmask 0101011010000000
          640 6 rmoveto
          -1 -3 -1 -3 -3 vvcurveto
          -13 11 -10 14 12 13 13 13 2 vhcurveto
          131 595 rlineto
          1 9 5 3 5 34 -5 -1 4 vhcurveto
          15 5 9 12 37 -92 -2 -10 -30 -75 -1 -49 -13 8 0 11 hvcurveto
          20 16 5 20 hhcurveto
          -35 vlineto
          -99 -490 -6 6 -112 354 rlineto
          23 vlineto
          46 10 36 15 50 vhcurveto
          hintmask 1001010110000000
          16 12 4 11 19 vvcurveto
          16 -12 10 -20 vhcurveto
          -93 -6 rlineto
          -12 -1 -7 -11 -11 vvcurveto
          -1 4 -9 3 -5 vhcurveto
          20 34 -7 -5 8 hvcurveto
          hintmask 0010111010000000
          -48 -20 -45 -46 vvcurveto
          -5 0 -5 1 -6 vhcurveto
          -50 -267 -25 -61 -6 6 -136 477 rlineto
          1 -1 7 2 16 20 0 15 vvcurveto
          11 -22 10 -9 vhcurveto
          -137 hlineto
          -4 -47 -22 -9 -17 hvcurveto
          -45 -25 1 -81 -43 vvcurveto
          -50 10 -13 28 14 5 2 14 vhcurveto
          19 -7 12 22 vvcurveto
          33 3 30 15 31 vhcurveto
          7 -6 143 -503 rlineto
          -25 vlineto
          -17 -40 -4 -27 -8 3 -6 10 -4 hvcurveto
          279 -13 rlineto
          25 0 2 17 hvcurveto
          hintmask 1001011010000000
          33 -43 -6 10 vvcurveto
          50 217 rlineto
          0 17 81 6 vhcurveto
          2 1 -2 4 hhcurveto
          -4 vlineto
          -404 264 rmoveto
          8 0 6 14 vhcurveto
          85 hlineto
          169 -564 -12 -6 rlineto
          -88 hlineto
          -1 -17 20 5 hvcurveto
          -149 521 rlineto
          0 -1 7 3 vvcurveto
          endchar
        </CharString>
        <CharString name="X">
          139 -26 49 -41 -21 39 14 callgsubr
          452 -20 207 43 20 -20 hstemhm
          -13 249 hintmask 01001101
          390 -16 rmoveto
          -18 15 -5 16 vhcurveto
          hintmask 10001101
          18 51 102 -5 77 hhcurveto
          hintmask 00011101
          10 78 1 5 42 hvcurveto
          6 1 1 7 6 vvcurveto
          26 -23 5 -31 vhcurveto
          hintmask 10001011
          -14 -13 -1 -1 -6 hvcurveto
          -6 6 -205 354 18 13 199 229 43 19 rlineto
          2 2 4 8 4 vvcurveto
          21 -22 3 -20 -9 -159 -10 -3 -7 vhcurveto
          -12 -7 rlineto
          -1 0 -9 -3 hvcurveto
          hintmask 00011101
          -13 2 -18 18 5 39 5 1 6 vhcurveto
          5 30 -1 7 hhcurveto
          -12 vlineto
          -167 -179 rlineto
          0 -1 -1 -2 vhcurveto
          0 -9 3 4 vvcurveto
          -99 173 rlineto
          8 1 41 9 16 vvcurveto
          6 -15 18 -4 vhcurveto
          -335 hlineto
          -8 -23 -9 -13 hvcurveto
          -4 3 -3 -11 20 hhcurveto
          18 14 -8 -17 11 hvcurveto
          196 -304 -203 -260 rlineto
          -13 -14 -80 24 -44 vvcurveto
          -3 13 -14 6 -5 vhcurveto
          hintmask 00101101
          5 21 -1 5 hhcurveto
          18 181 2 36 6 -5 19 -8 hvcurveto
          -85 hlineto
          166 204 rlineto
          19 callgsubr
          3 4 -3 -4 2 vhcurveto
          124 53 callsubr
          -12 vlineto
          -18 -3 -32 -7 -23 vvcurveto
          -43 269 rmoveto
          -6 6 -214 360 rlineto
          185 hlineto
          hintmask 10001101
          342 -596 rlineto
          -164 hlineto
          endchar
        </CharString>
        <CharString name="Y">
          -23 callgsubr
          hstemhm
          11 207 hintmask 11000110
          -88 callsubr
          hintmask 10010010
          49 callsubr
          hintmask 11001010
          -72 callsubr
          hintmask 10100010
          50 callsubr
          hintmask 11000110
          -71 callsubr
          endchar
        </CharString>
        <CharString name="Yacute">
          -23 callgsubr
          52 -20 107 -20 hstemhm
          11 207 hintmask 1100011110000000
          -88 callsubr
          hintmask 1001001110000000
          49 callsubr
          hintmask 1100101110000000
          -72 callsubr
          hintmask 1010001110000000
          50 callsubr
          hintmask 1100011110000000
          -71 callsubr
          75 699 -105 callgsubr
        </CharString>
        <CharString name="Ydieresis">
          -23 callgsubr
          56 95 hstemhm
          11 207 -14 113 85 106 hintmask 1100011101000000
          -88 callsubr
          hintmask 1001001101000000
          49 callsubr
          hintmask 1100101101000000
          -72 callsubr
          hintmask 1010001101000000
          50 callsubr
          hintmask 1100011101000000
          -64 callsubr
          vvcurveto
          hintmask 1100011011000000
          -76 callsubr
          31 728 -97 callgsubr
        </CharString>
        <CharString name="Z">
          11 callgsubr
          hstemhm
          36 49 634 43 hintmask 00101110
          -3 callgsubr
          hintmask 01001110
          -20 callsubr
          hintmask 10001110
          -84 callsubr
          hintmask 10010110
          -15 callgsubr
          endchar
        </CharString>
        <CharString name="Zcaron">
          11 callgsubr
          32 -20 187 -20 hstemhm
          36 49 634 43 hintmask 0010111110000000
          -3 callgsubr
          hintmask 0100111110000000
          -20 callsubr
          hintmask 1000111110000000
          -84 callsubr
          hintmask 1001011110000000
          -15 callgsubr
          92 795 -86 callgsubr
          endchar
        </CharString>
        <CharString name="a">
          -70 callsubr
          -66 callsubr
          hintmask 1001001100011000
          19 -74 callgsubr
          hintmask 0011001100010100
          -77 callsubr
          hintmask 1001001100010010
          -1 callsubr
          hintmask 1000101100010001
          -96 callsubr
          hintmask 1000011010011000
          -95 callgsubr
          hintmask 1001001010010010
          -91 callsubr
          hintmask 0101001001001000
          -67 callgsubr
          hintmask 1001001000111000
          -91 callgsubr
          endchar
        </CharString>
        <CharString name="aacute">
          -99 callgsubr
          13 199 -105 callgsubr
        </CharString>
        <CharString name="acircumflex">
          -70 callsubr
          229 -107 callsubr
          -67 197 -99 callsubr
        </CharString>
        <CharString name="acute">
          44 callsubr
          11 700 -105 callgsubr
        </CharString>
        <CharString name="adieresis">
          -70 callsubr
          153 95 -42 callsubr
          115 -115 43 callgsubr
          -25 102 -53 -40 callgsubr
          hintmask 100100111000010100000000
          19 -74 callgsubr
          hintmask 001100111000010010000000
          -77 callsubr
          hintmask 100100111000010001000000
          -1 callsubr
          hintmask 100010111000010000100000
          -96 callsubr
          hintmask 100001110100010100000000
          -95 callgsubr
          hintmask 100100110100010001000000
          -91 callsubr
          hintmask 010100110001000100000000
          -67 callgsubr
          hintmask 100100110000110100000000
          -91 callgsubr
          -30 263 rmoveto
          -21 callsubr
          vhcurveto
          hintmask 100100110010001000000000
          -73 callgsubr
          hvcurveto
          -76 callgsubr
          vhcurveto
          hintmask 100100111000010001000000
          23 -15 21 -25 vhcurveto
          hintmask 100100111000001000000000
          -30 -36 -19 -33 hvcurveto
          endchar
        </CharString>
        <CharString name="ae">
          92 -65 44 -44 72 -72 194 -177 39 -34 -21 87 -21 27 -21 150 38 -22 44 11 39 -39 233 -88 67 hstemhm
          40 39 73 43 120 50 -25 130 -50 50 -50 181 49 43 hintmask 000011010101111010100000
          327 46 rmoveto
          18 -35 28 -38 29 -14 5 -4 70 -15 18 -4 rrcurveto
          hintmask 001000010101111010100000
          1 5 -1 4 hhcurveto
          hintmask 100000110101111010100000
          55 85 29 44 36 hvcurveto
          hintmask 100001010101111010100000
          5 6 1 4 5 3 -1 3 5 vvcurveto
          3 5 20 2 13 vhcurveto
          -3 6 -27 29 -14 7 rrcurveto
          hintmask 001000010101111010100000
          1 -1 -33 16 -6 hhcurveto
          hintmask 100001010101110100100000
          -33 34 -150 -71 hhcurveto
          -50 -19 97 15 hvcurveto
          1 -1 5 5 vvcurveto
          hintmask 001000010101110100100000
          10 1 15 2 17 -7 10 21 3 1 14 2 vvcurveto
          26 -16 46 3 27 -3 rrcurveto
          hintmask 100001001101111010100000
          -5 16 4 -1 23 hhcurveto
          43 hlineto
          11 5 33 79 21 vvcurveto
          8 -15 40 -4 7 vhcurveto
          -30 52 -10 11 -59 20 rrcurveto
          9 -27 -39 15 -8 hhcurveto
          -50 -57 -36 -43 -17 hvcurveto
          -31 60 -61 14 -63 21 rrcurveto
          hintmask 100001010010110100100000
          3 -10 -3 2 -11 hhcurveto
          -89 -26 -38 -67 -28 hvcurveto
          -3 -5 -22 -92 -9 vvcurveto
          -16 10 -6 17 vhcurveto
          27 94 11 1 hhcurveto
          6 6 2 54 4 62 24 50 rlinecurve
          1 1 5 4 1 hhcurveto
          56 -8 28 -17 34 -46 rrcurveto
          -91 vlineto
          hintmask 000100110101111001100000
          -28 -3 -23 -22 -2 vhcurveto
          -3 -28 -42 -3 -30 hhcurveto
          -25 -31 -15 -13 -36 hvcurveto
          -19 -7 -24 -1 -7 -14 rrcurveto
          -29 -34 -4 -8 -30 vvcurveto
          -53 8 -29 75 -33 vhcurveto
          -7 12 9 0 14 hhcurveto
          32 15 1 16 42 hvcurveto
          39 15 12 37 29 25 rrcurveto
          38 134 rmoveto
          8 18 -10 17 20 42 7 30 11 54 14 21 rrcurveto
          21 13 51 20 -1 hhcurveto
          -14 -14 -3 -12 vvcurveto
          -30 -59 -14 -31 -72 vvcurveto
          3 -24 17 -117 5 -25 rrcurveto
          12 -35 25 -20 -17 vvcurveto
          -46 1 -35 21 -24 33 rrcurveto
          -4 7 -8 15 1 vvcurveto
          -168 -33 rmoveto
          -1 3 -1 18 4 vvcurveto
          46 49 68 60 10 1 -13 -9 -30 -53 -92 -15 vhcurveto
          hintmask 100001001101111010100000
          -4 -6 -18 -8 -1 hhcurveto
          -4 -20 14 3 -1 hvcurveto
          266 217 rmoveto
          51 18 36 26 45 vhcurveto
          3 2 5 3 3 hhcurveto
          25 15 -78 -22 hvcurveto
          -7 -11 -3 -12 -3 -22 rrcurveto
          -1 4 -8 2 -1 vhcurveto
          -20 -23 -1 -12 hhcurveto
          -22 -10 2 16 hvcurveto
          -384 -170 rmoveto
          hintmask 000101010101111001100000
          66 77 5 41 21 vhcurveto
          35 callgsubr
          -35 -35 -16 -37 -43 vvcurveto
          -8 2 -20 0 vhcurveto
          12 -23 rlineto
          -48 -39 34 41 hvcurveto
          87 351 rmoveto
          -26 -149 rlineto
          -61 hlineto
          24 9 31 9 23 vhcurveto
          24 9 23 47 37 hhcurveto
          428 -194 rmoveto
          7 23 0 18 21 vvcurveto
          6 vlineto
          22 -8 44 -18 32 vhcurveto
          0 3 1 1 16 17 -24 -9 7 vhcurveto
          18 -23 13 -13 -27 vvcurveto
          -23 -14 -59 -23 -6 -10 6 5 -3 vhcurveto
          32 -146 rmoveto
          10 13 -7 -8 hvcurveto
          hintmask 010000110101111010100000
          -13 -17 -42 -17 vhcurveto
          0 -1 1 -1 vhcurveto
          6 20 7 26 23 vvcurveto
          endchar
        </CharString>
        <CharString name="agrave">
          -99 callgsubr
          234 199 -101 callgsubr
        </CharString>
        <CharString name="ampersand">
          85 -4 41 0 105 295 -20 220 42 hstemhm
          36 39 67 54 160 107 108 39 hintmask 10111111
          36 187 rmoveto
          -118 85 -73 117 vhcurveto
          36 hlineto
          39 33 3 24 37 hvcurveto
          27 14 40 27 rlineto
          4 7 18 10 2 hhcurveto
          -7 51 43 -34 53 hhcurveto
          13 14 4 15 hvcurveto
          47 -122 -27 47 vvcurveto
          7 vlineto
          67 94 3 2 9 8 2 3 rlinecurve
          54 14 97 13 9 vhcurveto
          5 9 46 9 11 hhcurveto
          26 -200 -26 vlineto
          26 -4 33 -10 8 -13 rrcurveto
          1 -10 0 -41 -10 vvcurveto
          -16 0 -42 -1 -2 vhcurveto
          hintmask 01111111
          -31 -2 -79 -90 -26 hhcurveto
          -1 -10 1 1 -2 hvcurveto
          -55 31 -88 49 -44 53 18 17 85 85 17 18 rrcurveto
          33 35 47 66 53 vvcurveto
          25 -3 31 -23 16 vhcurveto
          43 -59 -18 13 -39 hhcurveto
          -98 -43 -11 -97 -23 hvcurveto
          -4 -15 -9 -46 -6 vvcurveto
          -8 vlineto
          -15 1 -36 -25 vvcurveto
          -11 0 -9 -1 -3 vhcurveto
          -3 -9 -46 -51 -6 -7 -12 -21 -37 -75 -3 -10 rrcurveto
          -1 -2 0 -26 -9 vvcurveto
          134 64 rmoveto
          -22 -47 -6 -19 -42 vvcurveto
          -47 18 -30 36 -29 vhcurveto
          -13 hlineto
          -87 34 -21 10 93 vvcurveto
          50 0 20 29 33 vhcurveto
          9 10 45 48 12 8 rrcurveto
          39 36 1 5 0 vvcurveto
          16 23 47 27 17 16 64 60 25 30 17 56 rrcurveto
          1 5 2 1 hhcurveto
          13 11 -14 -13 -4 hvcurveto
          -24 -102 -60 -56 -76 -70 -34 -24 -39 -30 -20 -38 rrcurveto
          26 -100 rmoveto
          21 7 66 26 7 51 -43 -12 17 vhcurveto
          20 -15 101 -63 -8 vvcurveto
          -15 -52 -27 -17 -5 vhcurveto
          -4 -12 -37 -9 -3 hhcurveto
          -26 -37 27 14 -18 hvcurveto
          -25 18 -2 25 30 vvcurveto
          108 486 rmoveto
          20 16 2 -16 16 hvcurveto
          -7 -92 -84 -49 -69 -45 rrcurveto
          59 vlineto
          86 9 55 99 vhcurveto
          endchar
        </CharString>
        <CharString name="aring">
          -70 callsubr
          76 45 93 44 -2 -20 -51 callgsubr
          -12 49 73 45 -23 43 4 -40 callgsubr
          hintmask 100100110110000101000000
          19 -74 callgsubr
          hintmask 001100110110000100100000
          -77 callsubr
          hintmask 100100110110000100010000
          -1 callsubr
          hintmask 100010110110000100001000
          -96 callsubr
          hintmask 100001110101001101000000
          -95 callgsubr
          hintmask 100100110101001100010000
          -91 callsubr
          hintmask 010100110100100011000000
          -67 callgsubr
          hintmask 100100110100010101000000
          -91 callgsubr
          hintmask 100100110101001011000000
          30 247 -50 callsubr
          hintmask 100100101101001101000000
          -19 callsubr
          hintmask 100100110101001011000000
          -37 callsubr
        </CharString>
        <CharString name="asciicircum">
          -225 448 -21 237 -20 hstem
          12 440 rmoveto
          -11 6 6 -2 10 hhcurveto
          16 5 5 14 14 hvcurveto
          148 161 rlineto
          -69 callgsubr
          130 -105 rlineto
          11 14 2 14 2 -9 17 -3 2 hvcurveto
          -131 118 -10 8 -19 3 -13 2 -62 callsubr
          -155 -35 -17 -14 -12 -8 -39 rlinecurve
          endchar
        </CharString>
        <CharString name="asciitilde">
          10 260 139 -95 42 8 45 17 -20 hstemhm
          hintmask 10000000
          42 284 rmoveto
          -13 6 -11 16 vhcurveto
          hintmask 01100000
          41 19 94 99 hhcurveto
          12 hlineto
          217 -50 rlineto
          14 hlineto
          61 74 25 68 12 hvcurveto
          hintmask 01010000
          -61 callsubr
          -2 -6 54 callsubr
          -185 50 rlineto
          hintmask 10000000
          -3 -25 2 -8 hhcurveto
          -42 -51 -9 -30 -33 hvcurveto
          -25 -23 -31 -18 -35 vvcurveto
          endchar
        </CharString>
        <CharString name="asterisk">
          -291 461 -21 221 -20 30 -20 41 -20 hstemhm
          94 98 -69 69 -25 25 hintmask 11010010
          167 529 rmoveto
          -89 25 89 vlineto
          8 -5 40 -18 9 -2 rrcurveto
          -5 9 27 -9 2 hhcurveto
          3 9 9 5 hvcurveto
          -22 33 -47 -3 -19 32 29 6 30 8 29 11 -8 13 -17 8 -12 4 rrcurveto
          10 16 4 10 19 vvcurveto
          -30 -27 -9 -23 -21 hvcurveto
          63 -31 -57 vlineto
          0 -14 -10 -5 4 vhcurveto
          hintmask 10111000
          15 -23 -4 27 -27 hhcurveto
          hintmask 11010100
          -41 29 1 -34 vvcurveto
          -9 -2 -3 -10 -6 vhcurveto
          -11 -7 -54 -26 -11 -5 rrcurveto
          -1 -1 -4 -1 vvcurveto
          -11 9 -9 10 vhcurveto
          15 9 14 14 hhcurveto
          7 hlineto
          -11 -6 -2 -5 -8 vvcurveto
          -11 9 -9 10 vhcurveto
          7 hlineto
          hintmask 11010010
          8 6 40 26 8 7 rrcurveto
          endchar
        </CharString>
        <CharString name="at">
          70 35 51 100 229 -203 25 178 99 50 -20 hstemhm
          46 50 26 36 114 190 76 49 27 38 hintmask 1011111111000000
          46 269 rmoveto
          -55 28 -62 36 -40 vhcurveto
          -65 56 96 -12 79 hhcurveto
          106 65 14 63 88 hvcurveto
          9 6 28 28 16 vvcurveto
          9 -11 4 -7 -3 -62 -41 -10 -17 vhcurveto
          -28 -51 -51 -10 -56 hhcurveto
          -76 -92 25 63 -51 hvcurveto
          -1 8 -1 40 8 vvcurveto
          53 3 38 36 41 vhcurveto
          62 55 86 90 93 hhcurveto
          36 65 -33 -43 5 hvcurveto
          -1 1 -35 -14 vvcurveto
          -38 -4 -81 -47 -19 vhcurveto
          -1 26 callgsubr
          -8 -21 8 -4 hhcurveto
          16 11 14 18 vvcurveto
          41 -14 69 -55 -61 -40 -80 -48 -19 vhcurveto
          50 callgsubr
          -56 69 -13 32 vhcurveto
          5 29 12 5 1 9 -12 2 hhcurveto
          hintmask 1100111111000000
          -15 24 31 -11 7 hhcurveto
          82 84 93 81 49 -15 93 -50 24 hvcurveto
          15 -37 -81 23 -27 hhcurveto
          -18 hlineto
          -128 -21 -128 -11 -72 -119 rrcurveto
          -27 -46 -23 -45 -53 vvcurveto
          264 11 rmoveto
          23 42 44 34 28 vhcurveto
          1 25 callsubr
          hhcurveto
          20 0 -18 -14 hvcurveto
          hintmask 1011111111000000
          -13 -19 -94 -44 -1 -38 34 9 vhcurveto
          -214 -9 rmoveto
          108 71 69 94 40 vhcurveto
          -15 -11 -62 -62 -12 -14 -39 -48 -7 -86 -4 -55 -12 -13 rcurveline
          -13 12 -2 19 17 9 1 7 8 vvcurveto
          491 142 rmoveto
          26 -12 23 26 vvcurveto
          38 -19 1 -55 -41 vvcurveto
          -44 -2 -31 -50 -36 vhcurveto
          15 48 10 54 49 vvcurveto
          endchar
        </CharString>
        <CharString name="atilde">
          -70 callsubr
          93 -44 callgsubr
          4 36 89 41 -41 43 callgsubr
          24 137 -120 22 -22 36 hintmask 100100100010011100000000
          4 -74 callgsubr
          hintmask 001100100010011100000000
          -77 callsubr
          hintmask 100100100010011010000000
          -1 callsubr
          hintmask 100010100010011001000000
          -96 callsubr
          hintmask 100001100010011100000000
          -86 callsubr
          hintmask 100100100011001001000000
          -83 callsubr
          -91 callsubr
          hintmask 010100100010100100000000
          -67 callgsubr
          hintmask 100100100010011100000000
          -91 callgsubr
          -144 185 -10 callgsubr
          hintmask 100100011010011100000000
          -66 callgsubr
          hintmask 100100010110011100000000
          -60 callsubr
          hintmask 100100100010011100000000
          -73 callsubr
        </CharString>
        <CharString name="b">
          -60 -37 70 -23 -21 380 50 274 -20 hstemhm
          -18 130 -38 38 52 44 181 38 69 45 hintmask 1011101110000000
          64 2 rmoveto
          -29 3 -10 29 43 45 39 19 36 vhcurveto
          8 0 -2 -5 4 hvcurveto
          hintmask 0111101110000000
          -17 29 18 -8 35 hhcurveto
          137 22 90 81 98 vvcurveto
          131 -79 98 -126 -80 -15 -26 -32 -33 vhcurveto
          3 88 26 145 2 28 rrcurveto
          2 17 12 7 16 vvcurveto
          20 -6 11 -20 -29 -46 -31 -8 -25 vhcurveto
          -13 -5 -79 -28 -21 -5 rrcurveto
          -9 -3 -23 -1 -25 vvcurveto
          -19 14 -5 26 17 16 2 1 3 vhcurveto
          hintmask 1011011110000000
          10 -111 6 -190 -102 -53 -10 -56 -52 vvcurveto
          39 369 rmoveto
          -1 7 -1 147 19 16 -3 29 8 vvcurveto
          95 39 rlineto
          -13 -109 -16 -148 -104 vvcurveto
          -23 0 -123 6 -21 vhcurveto
          2 -12 17 -29 -3 vvcurveto
          -13 -70 -36 -14 -11 vhcurveto
          28 7 66 16 vvcurveto
          99 -6 79 -3 79 vhcurveto
          225 -2 rmoveto
          43 18 -62 -70 -94 -33 -110 -53 -50 -45 51 43 hvcurveto
          147 vlineto
          57 79 38 41 vhcurveto
          83 -8 rmoveto
          34 -6 51 -76 -93 vvcurveto
          -43 -49 -72 -27 -13 vhcurveto
          -25 -9 rlineto
          23 50 9 61 57 vvcurveto
          54 -7 50 -9 40 vhcurveto
          endchar
        </CharString>
        <CharString name="backslash">
          -268 3 -21 687 -20 hstem
          330 -1 rmoveto
          26 -88 215 -15 39 vhcurveto
          -33 79 19 -13 -61 154 rrcurveto
          55 -23 -50 115 -26 hhcurveto
          -8 -12 -8 -8 -32 175 -428 26 -65 hvcurveto
          -57 23 40 -89 15 hhcurveto
          11 7 6 11 hvcurveto
          endchar
        </CharString>
        <CharString name="bar">
          -413 39 -21 615 -20 hstemhm
          79 52 -40 40 hintmask 11100000
          97 40 rmoveto
          -14 2 9 -8 12 hhcurveto
          14 5 53 57 65 -6 70 -2 351 hvcurveto
          9 -17 10 -8 -23 -4 -79 -55 vhcurveto
          hintmask 11010000
          -154 12 13 -79 vvcurveto
          -37 0 -165 6 -37 vhcurveto
          endchar
        </CharString>
        <CharString name="braceleft">
          27 callgsubr
          5 105 -55 55 69 75 -36 36 hintmask 00111010
          415 hmoveto
          13 4 1 7 10 vvcurveto
          16 -5 17 -15 8 vhcurveto
          hintmask 01011010
          -3 -9 -9 -1 -9 hhcurveto
          -63 -65 57 64 hvcurveto
          34 13 33 35 26 -20 19 21 vvcurveto
          2 13 22 6 13 vhcurveto
          39 75 -31 79 30 82 rrcurveto
          16 45 96 -2 25 vvcurveto
          22 -34 0 -17 -60 -172 -72 -61 -9 vhcurveto
          -25 -168 -1 -5 -21 -22 -9 -3 rlinecurve
          -23 -13 -40 16 -36 vvcurveto
          -27 42 10 15 -25 vhcurveto
          -25 vlineto
          hintmask 10010110
          -29 -7 -26 -28 vvcurveto
          -110 91 -99 111 vhcurveto
          hintmask 01011010
          50 42 14 47 hhcurveto
          hintmask 00111010
          7 6 -1 6 hhcurveto
          -205 171 rmoveto
          hintmask 10011010
          -59 32 -37 43 -38 vhcurveto
          -28 hlineto
          -143 -4 117 105 29 0 30 -11 29 hvcurveto
          88 70 -66 107 65 65 18 19 35 38 33 5 -49 -255 rcurveline
          -5 -27 -39 8 -31 vvcurveto
          hintmask 10011001
          -29 39 -9 -43 -32 -8 -30 -32 vvcurveto
          endchar
        </CharString>
        <CharString name="braceright">
          27 callgsubr
          7 211 -36 36 -36 75 69 55 -55 105 hintmask 0011100010000000
          21 hmoveto
          hintmask 0101100010000000
          6 6 1 7 hhcurveto
          hintmask 1001100100000000
          47 42 -14 50 hhcurveto
          111 91 99 110 hvcurveto
          28 -7 26 29 vvcurveto
          25 vlineto
          hintmask 0101010010000000
          15 25 42 -10 27 vvcurveto
          36 -40 -16 -23 13 vhcurveto
          -9 3 -21 22 -1 5 -25 168 rcurveline
          61 -9 -172 72 -60 hhcurveto
          -17 -34 0 -22 -25 96 2 16 -45 hvcurveto
          30 -82 -31 -79 39 -75 rrcurveto
          6 -13 13 -22 -2 -21 -20 -19 -26 -35 13 -33 -34 vvcurveto
          -64 -65 -57 -63 -9 -9 1 3 -9 vhcurveto
          hintmask 0011100010000000
          -15 -8 -5 -17 -16 vvcurveto
          -10 1 -7 13 -4 vhcurveto
          205 171 rmoveto
          32 -8 30 32 vvcurveto
          hintmask 1001001010000000
          43 39 9 29 vvcurveto
          31 -39 -8 -5 27 vhcurveto
          -49 255 33 -5 35 -38 18 -19 rlinecurve
          65 -65 -66 -107 88 -70 rrcurveto
          -11 -29 0 -30 -29 vvcurveto
          -105 -4 -117 -143 vhcurveto
          -28 hlineto
          43 38 32 37 59 vvcurveto
          endchar
        </CharString>
        <CharString name="bracketleft">
          36 callsubr
          86 29 -29 172 hintmask 11001000
          96 685 rmoveto
          -3 -11 -13 -6 hvcurveto
          -1 -1 -3 -27 -1 -9 -1 -9 -2 -25 1 -3 23 -586 rcurveline
          4 -37 23 -3 32 -3 71 -6 69 22 70 -6 33 -2 17 -19 32 -3 rrcurveto
          2 -1 11 2 vvcurveto
          -9 28 -16 56 -29 23 -30 -6 28 -58 -28 2 -88 8 rcurveline
          -36 586 rlineto
          13 vlineto
          7 2 19 14 -3 vhcurveto
          149 -25 8 -13 7 -14 14 -1 rlinecurve
          23 -2 0 29 1 15 2 25 3 23 -13 23 rrcurveto
          hintmask 10101000
          1 -4 0 -2 -2 -3 1 -1 -2 vhcurveto
          -6 -4 -30 -30 -5 -6 rrcurveto
          hintmask 11001000
          -247 -645 rmoveto
          -2 -8 10 4 -1 hvcurveto
          -6 76 rlineto
          10 -7 81 -1 11 vhcurveto
          hintmask 11010000
          -1 16 -4 348 -4 55 rrcurveto
          2 1 9 1 vvcurveto
          64 -5 rlineto
          0 7 -18 3 -8 vhcurveto
          20 -64 7 -64 1 -9 -3 -249 1 -9 rlinecurve
          3 -13 10 -89 2 -26 rrcurveto
          -2 -1 -10 -1 vvcurveto
          2 -9 4 -44 2 -11 rrcurveto
          endchar
        </CharString>
        <CharString name="bracketright">
          36 callsubr
          218 171 -28 28 hintmask 10110000
          80 660 rmoveto
          -5 6 -29 30 -7 4 rrcurveto
          1 -2 -3 10 callsubr
          -2 -4 0 -1 hvcurveto
          -13 -23 3 -23 2 -25 2 -15 -1 -29 23 2 14 1 7 14 8 13 150 25 rcurveline
          13 3 2 -19 -7 vvcurveto
          1 -4 -1 -8 1 -1 -37 -586 rcurveline
          -88 -8 -28 -2 28 58 -30 6 rlinecurve
          -29 -23 -16 -56 -9 -28 rrcurveto
          -2 -1 -11 -2 vvcurveto
          32 3 17 19 33 2 70 6 69 -22 72 6 31 3 23 3 4 37 23 586 rcurveline
          1 3 -2 25 -1 9 -1 9 -2 27 -1 1 rrcurveto
          hintmask 11010000
          6 -1 -11 13 -3 hhcurveto
          -142 -678 rmoveto
          2 11 5 44 1 9 rrcurveto
          13 vlineto
          1 26 10 89 3 13 1 9 -3 249 1 9 7 64 rcurveline
          20 64 rlineto
          3 8 7 18 0 vvcurveto
          64 5 rlineto
          hintmask 10101000
          -1 1 -9 -2 vvcurveto
          -4 -55 -3 -348 -2 -16 -8 -102 rcurveline
          -6 -76 rlineto
          -4 -1 -8 -10 -2 hhcurveto
          endchar
        </CharString>
        <CharString name="breve">
          -156 655 45 -45 139 -139 176 hstemhm
          hintmask 00100000
          19 762 rmoveto
          -74 48 62 -33 90 hhcurveto
          83 152 52 105 13 -11 6 -12 -29 -15 -57 -12 -8 hvcurveto
          hintmask 10000000
          -48 -40 -64 -14 -57 hhcurveto
          -31 -38 0 19 -25 hvcurveto
          hintmask 01000000
          31 -42 5 44 -62 hhcurveto
          -7 -8 0 -6 -9 0 1 -8 -1 vvcurveto
          endchar
        </CharString>
        <CharString name="brokenbar">
          -460 86 -21 555 -20 hstemhm
          64 37 -25 38 hintmask 11100000
          64 78 rmoveto
          hintmask 11010000
          12 -13 13 13 rlineto
          hintmask 11100000
          3 3 9 80 30 vvcurveto
          20 -7 46 -30 vhcurveto
          32 363 rmoveto
          hintmask 11010000
          -7 -13 -5 -9 hvcurveto
          -202 vlineto
          hintmask 11100000
          25 hlineto
          hintmask 11010000
          8 64 5 40 56 vvcurveto
          13 4 43 -22 vhcurveto
          endchar
        </CharString>
        <CharString name="bullet">
          -356 165 171 hstem
          42 190 vstem
          42 245 rmoveto
          -47 55 -33 42 54 39 36 54 42 -26 39 -47 -52 -65 -36 -55 vhcurveto
          endchar
        </CharString>
        <CharString name="bullet.001">
          34 callgsubr
          50 -30 131 -114 -20 hstemhm
          34 38 204 48 112 166 -31 94 -38 38 hintmask 1101001110100000
          34 187 rmoveto
          -109 61 -41 104 30 21 -7 20 24 vhcurveto
          27 22 23 23 37 vvcurveto
          47 -15 19 -35 28 vhcurveto
          20 -25 -35 -3 -28 hhcurveto
          -42 vlineto
          9 45 -9 -4 9 hvcurveto
          5 -2 18 -17 2 -6 rrcurveto
          -1 2 -17 -7 vvcurveto
          -48 -42 -16 -41 -67 -54 37 70 34 2 47 24 27 vhcurveto
          10 13 45 44 8 6 rrcurveto
          38 49 62 1 59 hhcurveto
          18 48 -1 -1 3 hvcurveto
          3 26 -8 -4 8 hvcurveto
          11 -5 54 -26 10 -7 -4 -1 -17 -9 -4 -2 rrcurveto
          -40 -32 -11 -20 -48 vvcurveto
          -67 10 -48 74 34 48 16 42 17 -25 40 -20 -16 -20 -12 -14 -9 vhcurveto
          7 -3 26 -17 6 -5 1 -5 rcurveline
          -24 -24 2 -16 -8 -26 -3 17 -3 vhcurveto
          -1 2 -1 30 9 vvcurveto
          10 1 24 1 vhcurveto
          3 11 36 35 11 5 rrcurveto
          hintmask 1110001110100000
          2 19 3 8 hhcurveto
          60 47 -55 -36 41 hvcurveto
          10 5 2 5 9 vvcurveto
          51 -126 76 -37 30 vhcurveto
          -7 6 -18 17 -1 3 rrcurveto
          1 -2 22 9 8 2 21 1 vvcurveto
          3 7 26 26 9 5 rrcurveto
          1 14 0 4 5 14 0 53 callgsubr
          9 -4 17 -14 -14 vvcurveto
          hintmask 1100101101000000
          -20 -56 19 -59 vvcurveto
          57 37 1 61 58 -40 11 -49 -34 -37 -4 -35 -18 hvcurveto
          hintmask 1100011110100000
          -5 -11 -18 -53 -2 -11 rrcurveto
          -6 hlineto
          hintmask 1101001110100000
          -50 -48 13 -51 hhcurveto
          -105 -74 -49 -78 -68 hvcurveto
          -2 -2 -9 -18 -2 -5 rrcurveto
          -15 -46 2 -7 -49 vvcurveto
          endchar
        </CharString>
        <CharString name="bullet.002">
          34 callgsubr
          37 -37 50 -30 131 hstemhm
          75 39 -39 94 -30 50 -50 166 111 48 204 38 hintmask 1100101010110000
          706 187 rmoveto
          49 2 7 -15 46 vhcurveto
          -2 5 -9 18 -2 2 rrcurveto
          78 -67 -74 49 -106 hhcurveto
          hintmask 1101001010110000
          -51 -48 -13 -50 hhcurveto
          -6 hlineto
          -2 11 -18 53 -5 11 rrcurveto
          hintmask 1100010100110000
          35 -18 -37 4 -34 hhcurveto
          -49 -40 -11 -58 -61 37 -1 57 hvcurveto
          hintmask 1110001010110000
          59 -55 -19 20 vvcurveto
          14 16 14 9 4 vhcurveto
          1 1 14 0 5 hhcurveto
          5 13 0 -1 hvcurveto
          9 -5 27 -26 2 -7 rrcurveto
          -1 2 -21 -8 -9 -2 -22 -1 vvcurveto
          -1 -3 -17 -17 -8 -6 rrcurveto
          -37 -30 -126 -76 -51 vvcurveto
          -9 2 -5 11 -5 vhcurveto
          36 41 46 55 60 8 20 -3 1 hhcurveto
          11 -5 36 -35 3 -11 rrcurveto
          1 1 -24 -10 -9 -1 -30 -1 -2 hvcurveto
          -17 -2 -27 3 -8 hhcurveto
          -15 -24 -2 24 hvcurveto
          5 vlineto
          6 5 27 17 6 3 rrcurveto
          14 -9 -20 12 -16 hhcurveto
          -19 -25 -40 -17 -42 47 -16 34 hvcurveto
          hintmask 1101001001110000
          74 11 48 67 48 -12 20 -40 32 hvcurveto
          -4 2 -17 9 -4 1 11 7 53 26 11 5 rrcurveto
          4 8 27 8 2 hhcurveto
          1 3 48 1 18 hhcurveto
          59 62 -1 -38 50 hvcurveto
          8 -6 44 -44 10 -13 rrcurveto
          24 -27 2 -47 -34 vvcurveto
          -70 -54 -37 -67 -41 -42 16 48 vhcurveto
          7 2 17 1 vvcurveto
          2 6 18 17 5 2 rrcurveto
          4 9 45 9 10 hhcurveto
          42 vlineto
          -29 -35 3 -20 -25 hvcurveto
          -35 -28 -15 -19 -47 vvcurveto
          -37 23 -23 27 -22 vhcurveto
          -20 24 21 7 30 hhcurveto
          105 60 41 109 hvcurveto
          endchar
        </CharString>
        <CharString name="bullet.003">
          78 5 26 127 38 49 51 -38 38 36 191 -127 127 -102 -20 33 28 callsubr
          288 37 14 177 -164 103 -40 40 hintmask 1101100001010000
          24 258 rmoveto
          -12 5 -13 14 vhcurveto
          7 hlineto
          302 25 rlineto
          25 hlineto
          hintmask 1110100001100000
          83 83 -13 83 hhcurveto
          15 27 -4 24 13 -12 2 -15 3 hvcurveto
          -18 3 -79 9 -16 1 rrcurveto
          -170 hlineto
          -114 -108 2 -27 -111 hvcurveto
          hintmask 1101100001001000
          -2 -1 -9 -2 vvcurveto
          264 -171 rmoveto
          -62 53 -20 52 33 29 6 40 4 -1 14 53 callgsubr
          -5 8 -26 26 -7 3 rrcurveto
          -1 -16 1 -6 hhcurveto
          hintmask 1110100001010000
          -15 -25 3 -23 hvcurveto
          hintmask 1110100001001000
          -40 63 42 -40 vvcurveto
          -15 -12 -4 -13 -26 -39 22 29 4 1 8 -33 callsubr
          3 5 36 35 11 10 rrcurveto
          16 20 12 -3 24 hhcurveto
          89 24 -34 -42 70 hvcurveto
          35 callgsubr
          11 9 9 11 2 -1 4 0 hvcurveto
          -5 7 -36 35 -9 8 rrcurveto
          39 -45 -49 0 -58 hhcurveto
          -17 -42 0 -1 -3 hvcurveto
          hintmask 1110100001010000
          -1 -18 -9 -4 -6 hvcurveto
          -40 -24 -24 -22 -49 vvcurveto
          hintmask 1110100001100000
          51 329 rmoveto
          hintmask 1110100001010000
          -28 -7 -2 20 -15 vhcurveto
          -35 46 32 -4 58 hhcurveto
          57 39 15 37 45 hvcurveto
          hintmask 1110000011100000
          12 10 14 6 15 vvcurveto
          11 -9 9 -11 vhcurveto
          hintmask 1110000101100000
          -2 -3 -1 -1 hhcurveto
          -7 -5 -61 -41 -7 -4 rrcurveto
          -15 -28 -20 1 -30 -10 -25 54 callsubr
          hintmask 1110010001100000
          -10 2 -44 17 -9 6 rrcurveto
          7 vlineto
          31 23 37 28 13 vhcurveto
          3 5 20 -12 5 hhcurveto
          -4 10 -9 -3 -3 vhcurveto
          hintmask 1110001001100000
          -2 -5 -33 -28 -2 -5 rrcurveto
          hintmask 1110000011100000
          -1 -1 -5 -1 hvcurveto
          hintmask 1110010001100000
          -12 13 -7 14 22 41 41 21 55 -27 10 -49 -26 -33 1 -28 -17 vhcurveto
          -6 -10 -18 -36 -1 -4 rrcurveto
          265 -182 rmoveto
          6 0 -12 -6 -7 0 12 7 hhcurveto
          endchar
        </CharString>
        <CharString name="bullet.004">
          78 5 26 127 38 62 38 100 127 -102 -20 33 -20 21 -20 31 -20 hstemhm
          257 40 -40 103 27 37 hintmask 1111000001100000
          688 258 rmoveto
          2 -1 9 2 vvcurveto
          27 -111 -108 -2 -114 hhcurveto
          -170 hlineto
          -16 -1 -79 -9 -18 -3 rrcurveto
          -16 -3 -11 -2 -13 vvcurveto
          -24 27 4 15 vhcurveto
          83 83 13 83 hhcurveto
          25 hlineto
          30 -2 241 -21 31 -2 rrcurveto
          7 hlineto
          14 5 13 12 hvcurveto
          -264 -171 rmoveto
          49 -24 22 -40 24 vhcurveto
          4 -6 -18 9 -1 hhcurveto
          1 -3 -43 0 -16 hhcurveto
          -58 -49 0 -39 -45 hvcurveto
          -9 -8 -36 -35 -5 -7 rrcurveto
          50 callgsubr
          -11 9 -9 10 vhcurveto
          29 callgsubr
          hhcurveto
          42 70 23 34 90 hhcurveto
          24 12 3 -16 20 hvcurveto
          11 -10 35 -35 4 -5 rrcurveto
          1 -1 1 -8 -4 vvcurveto
          -29 -40 -22 -25 vhcurveto
          hintmask 1111000010100000
          -13 -12 4 15 hvcurveto
          hintmask 1111000001100000
          40 63 -42 40 vvcurveto
          23 -25 -3 -15 vhcurveto
          hintmask 1110100110100000
          -6 -17 -16 callsubr
          -7 -3 -26 -26 -5 -8 rrcurveto
          26 callgsubr
          -14 -4 vvcurveto
          -40 29 -6 33 52 53 20 62 vhcurveto
          -51 329 rmoveto
          8 0 22 -1 vhcurveto
          4 -18 36 -7 10 vhcurveto
          hintmask 1111000001100000
          28 -17 -32 -1 -26 hhcurveto
          -50 -26 -10 -55 -21 41 -41 22 hvcurveto
          hintmask 1110001001100000
          13 14 7 12 hvcurveto
          hintmask 1110100101100000
          1 -1 5 -1 vhcurveto
          -3 5 -32 28 -2 5 rrcurveto
          -3 3 10 9 4 vvcurveto
          5 20 12 -3 5 hvcurveto
          28 -13 23 -37 -31 vvcurveto
          hintmask 1111000001100000
          -7 vlineto
          -9 -6 -45 -17 -9 -2 rrcurveto
          -1 -25 -1 -10 hhcurveto
          -31 -19 -1 15 -28 hvcurveto
          hintmask 1110010001100000
          -7 4 -61 41 -7 5 rrcurveto
          hintmask 1110001001100000
          -1 -3 20 callsubr
          -11 -9 -9 -11 -15 14 -6 12 -10 hvcurveto
          -37 45 39 -15 57 hhcurveto
          58 32 4 35 46 hvcurveto
          20 15 -7 2 28 vvcurveto
          -265 -152 rmoveto
          6 0 -12 -6 -6 0 12 6 hhcurveto
          endchar
        </CharString>
        <CharString name="bullet.005">
          -73 24 26 125 26 177 37 77 37 hstemhm
          36 38 101 35 154 152 -26 26 hintmask 11111101
          36 239 rmoveto
          -56 76 -93 50 -28 vhcurveto
          75 -37 rlineto
          -1 2 40 0 15 hhcurveto
          57 54 2 36 47 hvcurveto
          18 16 44 43 5 vvcurveto
          12 -12 vlineto
          -48 -75 -50 -40 -90 hhcurveto
          -91 -122 102 93 24 1 5 11 28 hvcurveto
          108 47 95 82 124 hhcurveto
          64 74 -43 -71 hvcurveto
          -3 -1 -10 -1 vvcurveto
          -3 -19 -9 -53 -3 vvcurveto
          -3 -5 -44 -44 -16 -14 rrcurveto
          -22 -25 -39 -3 -31 hhcurveto
          -24 -13 -4 16 -19 hvcurveto
          -13 11 -36 36 -2 4 rrcurveto
          -1 1 -1 17 6 vvcurveto
          46 60 44 42 vhcurveto
          hintmask 11111110
          17 35 -11 -21 hvcurveto
          -15 -14 -9 -14 vvcurveto
          -10 2 -4 11 -5 vhcurveto
          8 4 26 27 4 7 rrcurveto
          1 1 0 11 5 vvcurveto
          15 0 20 -14 11 vhcurveto
          -6 5 -35 17 -9 3 rrcurveto
          -18 hlineto
          -65 -80 -56 -70 -2 9 -26 3 -9 hvcurveto
          -62 24 62 -15 59 hhcurveto
          63 55 22 55 39 hvcurveto
          7 9 18 35 6 vvcurveto
          -8 callsubr
          44 16 vvcurveto
          10 -1 44 -1 10 vhcurveto
          69 -37 -58 32 -79 hhcurveto
          -58 -60 -15 -36 -47 hvcurveto
          -72 -55 -67 -88 -96 vvcurveto
          endchar
        </CharString>
        <CharString name="bullet.006">
          -37 10 39 -16 -21 125 38 -38 141 74 39 125 38 hstemhm
          27 39 100 50 -50 153 62 26 124 26 hintmask 0110111101100000
          27 185 rmoveto
          -91 56 -49 83 -33 vhcurveto
          hintmask 1010111101100000
          12 53 -2 11 hhcurveto
          hintmask 0110111101100000
          19 54 2 2 hhcurveto
          4 1 53 26 19 11 63 36 54 66 34 61 rrcurveto
          13 26 0 34 29 vvcurveto
          47 -6 42 -33 37 vhcurveto
          68 -60 -65 58 -95 hhcurveto
          -56 hlineto
          -22 -2 -70 -15 -35 vvcurveto
          51 48 14 50 hhcurveto
          89 64 -44 -69 54 hvcurveto
          1 -2 9 -27 2 -10 rrcurveto
          5 -14 8 -45 -3 vvcurveto
          -84 -78 -83 -60 -47 vhcurveto
          hintmask 1010111101100000
          -36 -47 -53 -3 -55 -16 -41 20 callsubr
          -6 1 -35 18 -9 7 rrcurveto
          -40 29 -23 28 49 vvcurveto
          70 63 94 75 6 vhcurveto
          1 3 48 1 19 hhcurveto
          10 48 -1 -1 10 hvcurveto
          16 -11 23 -23 -22 vvcurveto
          -63 -59 -58 -62 -14 -30 15 17 15 13 8 13 9 vhcurveto
          3 -4 18 -18 4 -4 rrcurveto
          13 hlineto
          10 3 26 9 1 2 rrcurveto
          hintmask 1001111011100000
          1 1 8 2 38 -34 3 -28 -48 -43 -15 -56 -54 44 -16 47 28 23 -4 18 22 hvcurveto
          10 9 44 44 9 9 rrcurveto
          18 22 -4 21 27 vvcurveto
          47 -12 45 -53 15 vhcurveto
          -10 -48 1 -10 hhcurveto
          -43 -37 4 -17 -40 hvcurveto
          -71 -31 -56 -89 -73 vvcurveto
          endchar
        </CharString>
        <CharString name="bullet.007">
          187 14 14 callgsubr
          226 126 51 38 -3 -20 61 50 0 50 hstemhm
          26 39 341 50 303 37 hintmask 0111001111000000
          26 333 rmoveto
          -125 151 -15 90 -36 vhcurveto
          73 -29 49 -65 79 -19 6 -1 51 -9 6 -3 7 -2 50 -32 6 -3 rrcurveto
          hintmask 1011001111000000
          35 callgsubr
          20 3 28 10 8 hvcurveto
          13 15 102 121 11 15 rrcurveto
          23 29 16 29 37 vvcurveto
          84 -79 74 -82 -51 -34 -39 -37 -32 vhcurveto
          -28 17 -32 3 -27 17 4 9 18 44 3 10 rrcurveto
          26 vlineto
          54 -50 34 -51 -62 -45 -36 -41 -44 vhcurveto
          17 -23 -16 10 -24 -1 -9 10 callsubr
          -59 -51 -44 -57 -81 vvcurveto
          303 -96 rmoveto
          58 22 51 67 20 29 -4 -9 14 vhcurveto
          9 -5 35 -35 6 -10 27 14 -7 51 30 23 rrcurveto
          7 9 27 18 2 1 17 1 7 hhcurveto
          70 45 -53 -68 -7 -1 -23 -1 hvcurveto
          -1 -3 -16 -27 -8 -8 -18 -24 -88 -105 -20 -22 rrcurveto
          -1 -9 -1 -2 -4 -8 54 callsubr
          -18 5 -115 35 -30 10 rrcurveto
          -53 18 -36 58 54 vvcurveto
          -264 96 rmoveto
          40 34 57 17 29 vhcurveto
          hintmask 1010110111000000
          16 9 7 -2 16 34 3 -41 31 28 21 91 95 hhcurveto
          46 0 -1 -46 hvcurveto
          -30 vlineto
          -3 -8 -27 -43 -9 -11 -2 -2 -21 -9 -2 -2 -19 -16 -24 -21 -7 -26 rrcurveto
          -24 -7 5 -64 -40 hhcurveto
          -59 -126 37 76 hvcurveto
          endchar
        </CharString>
        <CharString name="bullet.008">
          250 -11 -21 354 49 165 23 -23 38 -14 39 62 28 callsubr
          130 50 -11 151 214 226 -48 34 hintmask 1110101101000000
          17 -6 rmoveto
          -5 9 -18 4 -2 vhcurveto
          0 8 -1 3 31 36 17 9 23 vhcurveto
          2 2 9 8 -8 callsubr
          3 -3 20 2 3 6 8 35 36 9 6 rrcurveto
          1 1 8 0 4 57 36 -66 47 hhcurveto
          3 8 2 0 hvcurveto
          189 189 rlineto
          0 3 1 2 vhcurveto
          15 0 -15 18 hhcurveto
          4 8 1 1 hvcurveto
          3 3 19 42 3 5 10 13 93 99 10 13 3 4 18 35 4 11 rrcurveto
          52 callgsubr
          1 vvcurveto
          hintmask 1110110100100000
          29 -14 26 30 vvcurveto
          2 1 8 0 vhcurveto
          3 5 27 18 7 2 rrcurveto
          4 12 53 9 11 hhcurveto
          2 2 9 1 vvcurveto
          4 -2 9 0 vhcurveto
          -4 3 -42 18 -5 4 -2 2 3 21 -1 3 -1 6 -9 17 -2 2 rrcurveto
          hintmask 1110101101000000
          0 -9 1 -4 vhcurveto
          hintmask 1110110101000000
          -2 -8 10 callsubr
          -6 -15 -25 -61 -7 -13 rrcurveto
          -13 -7 -5 0 -13 hhcurveto
          hintmask 1101001101000000
          -34 -17 15 -43 -12 -30 -2 -2 hhcurveto
          hintmask 1110101101000000
          -5 -1 -29 -12 -5 1 rrcurveto
          5 -38 -20 34 -50 hhcurveto
          -41 -52 -81 -40 hvcurveto
          -30 26 -18 -27 vvcurveto
          -7 vlineto
          -1 -11 -10 -2 -1 vhcurveto
          -3 -4 -18 -32 -4 -2 -3 -1 -19 13 -3 1 -5 2 -36 9 -9 1 rrcurveto
          -7 hlineto
          -70 -37 -85 -60 hvcurveto
          hintmask 1110101011000000
          -35 39 -23 -37 vvcurveto
          -2 0 -8 -1 -1 vhcurveto
          -25 -50 -63 24 -25 -37 rrcurveto
          202 63 rmoveto
          12 16 51 23 17 vvcurveto
          11 -9 9 -11 vhcurveto
          -6 hlineto
          -76 -39 rlineto
          hintmask 1110101101000000
          -27 21 -11 26 33 vvcurveto
          47 19 38 51 vhcurveto
          32 20 -27 31 29 1 90 81 hhcurveto
          55 35 -21 -57 -103 -131 -67 -59 -67 hvcurveto
          37 416 rmoveto
          27 16 47 35 8 35 -9 -4 7 vhcurveto
          6 -2 39 -33 5 -2 rrcurveto
          -1 1 8 -1 4 hhcurveto
          hintmask 1101001100100000
          26 9 28 40 hhcurveto
          68 24 -26 -68 hvcurveto
          -9 -3 -23 -1 vvcurveto
          -138 -151 18 146 -89 -5 -105 47 rlinecurve
          -18 8 4 16 16 vvcurveto
          endchar
        </CharString>
        <CharString name="c">
          -87 -29 35 275 41 callsubr
          83 47 hintmask 10101100
          294 -29 rmoveto
          -18 callsubr
          -14 callgsubr
          hintmask 11001100
          21 callsubr
          hintmask 10011100
          30 callgsubr
          hintmask 11001100
          31 callgsubr
          -182 112 -51 149 hvcurveto
          -205 208 -54 callgsubr
        </CharString>
        <CharString name="caron">
          -219 675 -21 167 -20 hstem
          18 778 -86 callgsubr
          endchar
        </CharString>
        <CharString name="ccedilla">
          -87 -258 37 -37 62 167 35 -35 145 165 41 callsubr
          80 50 61 38 hintmask 1001100111000000
          169 -50 callgsubr
          vvcurveto
          11 4 11 3 10 vhcurveto
          -1 13 13 -1 13 hhcurveto
          -18 callsubr
          hintmask 1010010111000000
          -14 callgsubr
          hintmask 1010100111000000
          21 callsubr
          hintmask 1010001111000000
          30 callgsubr
          hintmask 1010100111000000
          31 callgsubr
          -150 75 -60 110 -17 hvcurveto
          -5 -18 -1 -20 -10 vvcurveto
          -19 callgsubr
          hintmask 0110100111000000
          4 callgsubr
          -80 383 -54 callgsubr
        </CharString>
        <CharString name="cedilla">
          -442 -258 37 -37 62 212 -20 hstemhm
          62 50 18 38 hintmask 10111000
          19 -50 callgsubr
          21 14 17 21 vvcurveto
          10 -2 6 -11 -30 -7 -66 -21 vhcurveto
          -19 callgsubr
          hintmask 01111000
          4 callgsubr
          endchar
        </CharString>
        <CharString name="cent">
          -140 14 -21 111 43 560 -20 hstem
          35 44 vstem
          165 21 rmoveto
          -14 4 -14 18 1 15 9 4 vhcurveto
          25 99 rlineto
          -1 11 12 0 11 hhcurveto
          42 38 10 29 35 hvcurveto
          17 13 27 19 27 vvcurveto
          10 -11 6 -8 51 callgsubr
          -38 -34 -40 -32 -51 hhcurveto
          -36 -18 6 20 -38 hvcurveto
          -8 2 0 8 6 2 1 6 1 vvcurveto
          81 341 rlineto
          17 3 27 3 22 hhcurveto
          63 28 -26 -43 36 hvcurveto
          2 6 -1 2 hhcurveto
          13 9 9 14 hvcurveto
          0 -1 8 1 vvcurveto
          -25 45 -111 45 5 21 7 20 21 vvcurveto
          12 -2 17 -18 vhcurveto
          -16 -16 -18 -51 -9 -38 -137 -39 -79 -109 -19 -138 rrcurveto
          -3 -1 -10 -2 vvcurveto
          -89 76 -45 68 -37 vhcurveto
          2 -3 4 -2 -5 vvcurveto
          -2 vlineto
          -7 -33 -13 -62 -2 vvcurveto
          -86 283 rmoveto
          59 29 63 39 45 vhcurveto
          9 8 26 22 4 hhcurveto
          6 hlineto
          -56 -291 -6 -13 rlineto
          -35 28 -15 35 43 vvcurveto
          endchar
        </CharString>
        <CharString name="circumflex">
          -225 675 -20 39 -21 115 -20 hstemhm
          hintmask 10100000
          12 689 -92 callgsubr
          hintmask 01100000
          -103 callgsubr
        </CharString>
        <CharString name="colon">
          -393 -23 119 238 119 hstem
          55 131 vstem
          55 32 rmoveto
          -49 callsubr
          357 vmoveto
          -49 callsubr
          endchar
        </CharString>
        <CharString name="comma">
          -58 callsubr
        </CharString>
        <CharString name="copyright">
          6 121 25 0 51 223 -20 214 -20 hstemhm
          47 49 217 22 hintmask 10111100
          47 337 rmoveto
          -32 23 -44 14 -25 vhcurveto
          -93 53 93 -22 101 hhcurveto
          66 88 -1 66 39 hvcurveto
          38 63 26 48 71 vvcurveto
          111 -84 99 -106 34 vhcurveto
          1 -1 -12 1 -5 hhcurveto
          -5 -12 -1 -1 -2 hvcurveto
          -6 -40 -23 -2 -4 hvcurveto
          -6 -1 -40 -9 -5 -2 -38 -13 rcurveline
          -80 -32 -95 -101 -92 vvcurveto
          49 9 rmoveto
          111 117 73 98 20 vhcurveto
          4 1 40 -2 6 1 rrcurveto
          1 3 31 11 3 1 5 1 1 hhcurveto
          2 4 -16 callsubr
          72 -30 47 -31 19 -77 rrcurveto
          5 -15 8 -45 -2 vvcurveto
          -1 -14 -18 -70 -6 -17 -3 -7 -26 -43 -9 -13 rrcurveto
          -51 -36 -63 -1 -54 hhcurveto
          -137 -113 55 145 hvcurveto
          113 -35 rmoveto
          -15 2 -9 11 -14 vhcurveto
          hintmask 01111100
          -39 34 27 -37 53 hhcurveto
          22 91 20 37 9 -2 5 -10 5 hvcurveto
          -28 -15 -30 -15 -31 -7 rrcurveto
          -12 24 -1 9 22 vvcurveto
          41 6 39 7 41 vhcurveto
          24 7 37 -16 10 hhcurveto
          -11 0 -11 15 26 20 73 19 vhcurveto
          -4 -19 -2 -1 -3 hvcurveto
          -3 -21 -12 -1 -2 hvcurveto
          -8 -2 -71 -9 -9 -1 -8 -2 -27 -9 -2 -2 -11 -7 -36 -36 -4 -7 -3 -5 -18 -54 -4 -17 rrcurveto
          0 -1 -9 -3 vvcurveto
          36 18 rmoveto
          9 2 22 2 vvcurveto
          2 4 36 35 13 11 rrcurveto
          2 11 4 2 hhcurveto
          -55 -8 -59 -7 -54 vhcurveto
          -10 5 -36 34 -5 11 rrcurveto
          2 -2 21 8 vvcurveto
          endchar
        </CharString>
        <CharString name="currency">
          -146 145 -21 49 43 -23 23 355 -20 hstemhm
          71 50 262 43 hintmask 10111100
          65 143 rmoveto
          -12 12 -7 11 vhcurveto
          3 hlineto
          3 1 9 4 1 vvcurveto
          56 62 rlineto
          0 4 -33 callsubr
          hintmask 11011100
          32 27 -20 31 25 22 13 25 hhcurveto
          56 -56 rlineto
          31 19 hlineto
          -43 55 rlineto
          13 vlineto
          31 30 25 40 45 vvcurveto
          60 -22 37 -41 49 vhcurveto
          -3 50 65 12 vvcurveto
          9 -9 10 -9 -3 -9 -5 -2 -1 vhcurveto
          -56 -68 rlineto
          -8 hlineto
          -30 -26 19 -32 -42 -20 -57 -40 -1 -5 54 callsubr
          28 -21 -25 18 -36 hhcurveto
          -38 21 -12 31 -27 vhcurveto
          -35 -20 -22 -33 vvcurveto
          -4 0 -20 1 -4 vhcurveto
          -63 37 12 -26 1 hhcurveto
          -1 -2 0 -2 0 vvcurveto
          -55 -68 rlineto
          50 callgsubr
          56 193 rmoveto
          14 -1 14 8 15 vhcurveto
          48 43 45 45 36 hhcurveto
          2 9 0 -1 1 hvcurveto
          81 -31 rlineto
          33 -12 5 -57 -27 vvcurveto
          -65 -18 -12 -51 -25 vhcurveto
          -11 -21 -7 -15 -27 hhcurveto
          -66 -72 47 73 hvcurveto
          endchar
        </CharString>
        <CharString name="d">
          31 -39 49 -32 45 9 -21 350 52 269 -20 hstemhm
          33 50 71 45 230 31 46 37 -37 156 hintmask 1011111110000000
          33 190 rmoveto
          -128 44 -101 129 89 81 48 63 51 vhcurveto
          hintmask 0101111101000000
          -41 20 35 -53 53 hhcurveto
          42 85 20 56 16 -9 7 -15 1 hvcurveto
          -27 -27 -26 -21 -38 -2 rrcurveto
          hintmask 0101111110000000
          -3 13 -1 10 10 vvcurveto
          49 9 27 3 50 vhcurveto
          8 133 24 163 15 127 rrcurveto
          1 16 14 9 20 vvcurveto
          18 -4 9 -26 -18 -2 -4 -12 -19 vhcurveto
          -1 -1 -9 -3 -2 hhcurveto
          -19 -7 -148 -41 -18 -3 rrcurveto
          -12 -3 -11 -14 -13 vvcurveto
          -11 7 -11 18 vhcurveto
          24 17 16 24 hhcurveto
          9 2 -46 -32 -48 -1 -42 -18 -36 hvcurveto
          8 -21 -19 34 -107 hhcurveto
          -63 -167 -103 -120 hvcurveto
          166 34 rmoveto
          77 51 60 69 55 47 -55 -35 -59 -23 -189 -114 -70 -15 135 66 vhcurveto
          270 363 rmoveto
          16 68 2 16 vhcurveto
          -7 -109 -9 -133 -14 -119 -7 -56 -9 -108 -1 -50 rrcurveto
          -30 9 -16 59 38 37 3 24 16 42 -3 39 38 22 10 158 15 5 -2 47 5 vvcurveto
          -385 -396 rmoveto
          47 28 64 77 50 vhcurveto
          -29 -67 -5 -86 0 vvcurveto
          hintmask 1011111110000000
          -66 15 -88 43 -31 vhcurveto
          26 callgsubr
          -3 hhcurveto
          -58 -66 36 142 hvcurveto
          endchar
        </CharString>
        <CharString name="dagger">
          -278 39 -21 615 -20 hstemhm
          35 168 -51 164 hintmask 11100000
          167 31 rmoveto
          -13 4 7 0 12 hhcurveto
          4 9 1 6 hvcurveto
          344 100 vlineto
          hintmask 11010000
          12 1 18 7 hvcurveto
          61 -116 -68 72 vvcurveto
          155 vlineto
          9 -17 10 -8 -19 -4 -33 -34 vhcurveto
          -35 2 -33 -39 vvcurveto
          4 -9 3 -7 -9 vvcurveto
          hintmask 11100000
          -33 -126 27 -47 vvcurveto
          -23 26 -4 19 vhcurveto
          3 20 38 10 1 hhcurveto
          19 4 -21 -24 hvcurveto
          -17 -2 -17 -9 vvcurveto
          1 -37 4 -173 2 -38 rrcurveto
          endchar
        </CharString>
        <CharString name="daggerdbl">
          -217 27 -21 168 48 -48 62 179 50 -50 231 hstemhm
          46 186 -56 56 -36 36 -36 186 hintmask 1011010000000000
          196 52 rmoveto
          -13 6 -33 19 4 7 3 3 vhcurveto
          2 14 3 61 1 12 rrcurveto
          10 -1 55 12 vvcurveto
          13 58 -2 26 hhcurveto
          hintmask 1011000010000000
          20 28 3 25 18 -20 16 -18 hvcurveto
          -20 -20 -7 -16 hhcurveto
          hintmask 1010110000000000
          -22 -10 0 7 -24 hvcurveto
          -6 75 0 20 84 14 149 -17 41 vvcurveto
          15 -21 10 -10 vhcurveto
          -5 -38 -69 -2 -1 hhcurveto
          -9 -2 8 8 hvcurveto
          46 7 45 46 vvcurveto
          16 -12 6 -14 vhcurveto
          hintmask 1101001000000000
          -19 -11 -2 -52 hvcurveto
          -38 7 -39 -38 vvcurveto
          -7 -1 -5 -11 vhcurveto
          hintmask 1101010000000000
          -125 hlineto
          -1 -12 -20 -1 -2 12 -27 1 hvcurveto
          131 hlineto
          6 -6 rlineto
          hintmask 1101000100000000
          10 -10 3 -117 -12 vvcurveto
          -16 vlineto
          -21 -3 -11 -31 vhcurveto
          -34 -20 7 -30 hhcurveto
          hintmask 1101010000000000
          -19 -13 -13 -17 -15 6 -10 19 hvcurveto
          hintmask 1101000100000000
          125 hlineto
          5 2 -8 -6 hvcurveto
          -38 -7 -35 -35 vvcurveto
          endchar
        </CharString>
        <CharString name="degree">
          -402 502 44 93 45 -2 -20 hstemhm
          22 49 95 43 hintmask 11011000
          22 605 rmoveto
          -9 2 -12 6 -7 vhcurveto
          55 -48 callgsubr
          hintmask 10111000
          -5 -24 -2 -5 hhcurveto
          -29 -12 -22 -33 -32 vvcurveto
          49 hmoveto
          hintmask 11011000
          22 1 12 44 26 24 -3 -31 -26 -24 -33 -29 -26 -16 39 20 vhcurveto
          endchar
        </CharString>
        <CharString name="dieresis">
          -52 703 95 hstem
          126 106 96 106 vstem
          126 746 -97 callgsubr
        </CharString>
        <CharString name="divide">
          -126 126 -21 407 -20 hstem
          69 333 rmoveto
          -12 -6 -3 -10 -12 vvcurveto
          5 29 2 6 hhcurveto
          18 3 151 21 20 2 rrcurveto
          11 91 -3 3 11 hvcurveto
          8 1 36 18 6 6 rrcurveto
          4 4 7 20 4 vvcurveto
          -6 -37 -2 -1 -6 hvcurveto
          -51 -7 -237 -35 -51 -8 rrcurveto
          188 -163 rmoveto
          -40 -16 -29 -35 -6 hvcurveto
          -1 4 22 0 5 hhcurveto
          29 28 8 38 hvcurveto
          5 vlineto
          5 -4 -17 9 -5 hhcurveto
          -62 301 rmoveto
          -16 3 17 2 11 hhcurveto
          36 25 18 37 hvcurveto
          -41 -27 -8 -33 -24 hvcurveto
          endchar
        </CharString>
        <CharString name="dollar">
          -161 -33 -21 410 153 196 -20 hstemhm
          47 52 85 36 41 40 -40 174 hintmask 11111010
          168 41 rmoveto
          1 -12 8 -56 4 -12 rrcurveto
          -15 4 13 0 10 hhcurveto
          53 -55 83 12 41 hvcurveto
          84 23 104 -12 122 vvcurveto
          15 -1 10 -13 15 vhcurveto
          -14 16 -56 56 -10 8 -54 27 rcurveline
          -9 4 -47 19 -11 3 rrcurveto
          161 vlineto
          14 26 rlineto
          1 1 22 1 9 hhcurveto
          31 30 1 -16 27 hvcurveto
          -6 -5 -8 -29 1 -7 1 -7 19 -18 6 -1 3 1 9 10 1 2 9 16 38 75 8 16 rrcurveto
          13 vlineto
          -6 5 -18 9 -4 -1 rrcurveto
          -3 -19 -25 -1 -5 hvcurveto
          -1 -21 0 -9 -8 -26 0 1 -2 vhcurveto
          -11 1 -22 9 3 vvcurveto
          118 vlineto
          0 -24 -2 -10 -9 vhcurveto
          -1 -2 -10 -28 -2 -10 -1 -7 -9 -54 -4 -6 rrcurveto
          -1 -18 -9 -8 -3 vhcurveto
          -40 -13 rlineto
          -56 -28 -51 -68 -64 vvcurveto
          -30 71 -45 23 -5 vhcurveto
          93 -14 rlineto
          9 -2 18 -9 -2 vvcurveto
          -191 vlineto
          -16 -75 -12 3 -16 hvcurveto
          -13 2 -37 19 -2 6 -6 8 -10 35 -3 19 rrcurveto
          -25 -26 -25 -48 -35 vvcurveto
          -3 0 -14 1 -3 vhcurveto
          6 3 28 8 6 3 rrcurveto
          6 hlineto
          28 36 -11 -16 24 hvcurveto
          hintmask 11111100
          133 239 rmoveto
          5 -1 18 -8 4 -4 17 -14 46 -48 3 -4 rrcurveto
          1 -1 0 -17 -5 vvcurveto
          -18 1 -26 -16 -13 vhcurveto
          -15 -17 -35 -16 -27 hhcurveto
          -202 325 rmoveto
          26 33 68 29 vhcurveto
          0 6 53 callgsubr
          9 -52 7 -48 -52 vvcurveto
          -46 -39 10 49 hvcurveto
          -17 -223 rmoveto
          -2 0 -3 1 -4 vhcurveto
          4 4 2 1 -6 3 -1 1 rlinecurve
          endchar
        </CharString>
        <CharString name="dotlessi">
          -236 -8 49 -42 -21 22 -21 469 9 callsubr
          hintmask 01011010
          -32 callsubr
          hintmask 00111010
          7 callsubr
          hintmask 10011010
          -10 callsubr
          hintmask 00111010
          -9 callgsubr
          hintmask 01010110
          -93 callgsubr
          hintmask 10011010
          -85 callgsubr
          endchar
        </CharString>
        <CharString name="e">
          -11 callsubr
          -36 callsubr
          hintmask 11101110
          -106 callsubr
          hintmask 11110110
          -90 callsubr
          endchar
        </CharString>
        <CharString name="eacute">
          -11 callsubr
          235 -102 callsubr
          -249 223 -105 callgsubr
        </CharString>
        <CharString name="ecircumflex">
          -11 callsubr
          236 -102 callsubr
          -328 194 -99 callsubr
        </CharString>
        <CharString name="edieresis">
          -11 callsubr
          133 95 hstemhm
          28 50 40 116 -46 58 74 108 -45 45 39 41 hintmask 1111011010000000
          -106 callsubr
          hintmask 1111100110000000
          -90 callsubr
          -292 233 -82 callsubr
          hintmask 1111101010000000
          -90 callgsubr
        </CharString>
        <CharString name="egrave">
          -11 callsubr
          244 -102 callsubr
          -28 232 -101 callgsubr
        </CharString>
        <CharString name="eight">
          -35 -35 -21 64 -21 31 -21 332 30 286 37 hstemhm
          4 93 -35 35 32 62 19 44 -31 31 18 43 -30 30 187 51 hintmask 1011101110101000
          55 117 rmoveto
          -65 96 -79 59 -17 vhcurveto
          32 -10 5 9 25 -11 87 12 rcurveline
          130 62 13 6 28 64 2 11 rlinecurve
          1 2 11 74 1 17 -25 74 rcurveline
          -10 24 -59 34 7 vvcurveto
          5 12 4 8 vhcurveto
          61 39 21 64 68 vvcurveto
          83 -43 24 -52 33 vhcurveto
          -1 -4 4 2 -1 hvcurveto
          20 -40 -34 5 -45 hhcurveto
          -113 -5 -33 -79 -61 hvcurveto
          -17 -23 -8 8 -18 vvcurveto
          -10 1 -8 12 -5 vhcurveto
          37 -118 rlineto
          4 -6 9 -13 -2 -16 callgsubr
          -59 -40 -70 -77 -76 vvcurveto
          hintmask 1101110110101000
          -24 -34 2 -32 -28 28 -1 23 -2 hvcurveto
          199 -18 rmoveto
          51 28 161 78 85 57 -67 -80 -105 -91 -72 -118 -39 0 90 22 vhcurveto
          61 363 rmoveto
          39 12 144 38 81 67 -68 -78 -76 -60 -64 -78 -68 8 48 55 vhcurveto
          -218 -328 rmoveto
          97 76 98 99 vhcurveto
          -13 vlineto
          -27 -64 -35 -111 -20 vvcurveto
          hintmask 1011110101101000
          -30 13 -54 -40 vvcurveto
          -69 -57 71 66 hvcurveto
          94 367 rmoveto
          36 14 39 30 25 vhcurveto
          1 2 16 3 2 1 rrcurveto
          14 17 0 18 27 hhcurveto
          -63 -26 -63 -64 vvcurveto
          hintmask 1101110110011000
          -28 13 -25 -27 vvcurveto
          -54 -40 91 41 hvcurveto
          endchar
        </CharString>
        <CharString name="ellipsis">
          167 -23 119 hstem
          40 131 162 131 162 131 cntrmask 01110000
          -6 callsubr
          293 hmoveto
          -32 38 -23 29 -23 callsubr
          -35 -46 -25 -39 vhcurveto
          293 hmoveto
          -49 callsubr
          endchar
        </CharString>
        <CharString name="emdash">
          19 -43 callgsubr
          194 -27 callsubr
          -119 -6 -48 -64 -130 -25 callsubr
        </CharString>
        <CharString name="endash">
          -53 -43 callgsubr
          123 0 8 118 vhcurveto
          17 8 10 15 17 -15 2 -18 hvcurveto
          -49 -118 -25 callgsubr
        </CharString>
        <CharString name="equal">
          -195 189 -21 203 39 hstem
          268 221 rmoveto
          -31 hlineto
          -53 -6 -123 -18 -1 vvcurveto
          -28 vlineto
          10 43 2 1 10 hvcurveto
          10 80 11 1 10 hvcurveto
          12 1 90 -2 12 1 rrcurveto
          11 2 15 4 13 vvcurveto
          2 0 4 -1 vhcurveto
          13 -41 -17 0 -37 hhcurveto
          -182 189 rmoveto
          -40 vlineto
          11 53 1 12 hhcurveto
          32 2 149 9 32 3 rrcurveto
          0 1 4 2 vvcurveto
          6 -4 13 -9 vhcurveto
          endchar
        </CharString>
        <CharString name="eth">
          -54 -31 58 345 49 262 -20 hstem
          31 44 118 41 142 33 76 44 vstem
          241 627 rmoveto
          18 -30 15 -23 11 -22 rrcurveto
          -26 -11 -66 -16 -31 vvcurveto
          -17 10 -5 12 11 15 7 7 15 vhcurveto
          51 24 15 -31 10 -29 13 -36 rlinecurve
          5 -23 -21 2 -20 hhcurveto
          -61 -46 -20 -44 -59 hvcurveto
          -38 -28 -10 -8 -30 -73 rrcurveto
          -4 -11 -2 -7 -8 vvcurveto
          -50 4 -49 28 -43 vhcurveto
          -81 68 73 -30 90 hhcurveto
          102 64 19 96 50 hvcurveto
          18 35 1 52 49 vvcurveto
          62 -37 171 -73 115 vhcurveto
          42 25 rlineto
          8 3 3 7 7 vvcurveto
          16 -1 -11 7 -7 hhcurveto
          -15 -29 -18 -11 -17 hvcurveto
          40 -33 -50 39 -59 hhcurveto
          -15 -8 -10 -12 hvcurveto
          1 -9 4 -12 9 -13 rrcurveto
          -7 -445 rmoveto
          -1 10 0 12 11 vvcurveto
          71 18 86 72 36 17 -110 -39 -54 -8 -23 -6 -49 vhcurveto
          -43 -6 -15 -27 -49 hhcurveto
          -48 -9 104 51 -1 hvcurveto
          84 447 rmoveto
          33 -22 24 -35 34 -55 rrcurveto
          55 -92 21 -133 -96 vvcurveto
          -81 -40 -86 -54 -2 vhcurveto
          -11 -2 5 13 hvcurveto
          26 43 5 104 43 vvcurveto
          142 -37 110 -76 110 vhcurveto
          -12 18 -11 13 8 vvcurveto
          3 3 3 3 6 16 -4 -9 17 vhcurveto
          -243 -426 rmoveto
          66 109 97 36 2 vhcurveto
          -22 -35 -4 -64 -43 vvcurveto
          -65 9 -71 18 -61 vhcurveto
          0 2 -6 -1 vvcurveto
          -65 -83 103 78 hvcurveto
          endchar
        </CharString>
        <CharString name="exclam">
          -312 -7 37 119 38 501 -20 hstemhm
          49 43 132 25 -13 43 hintmask 11110100
          67 443 rmoveto
          -58 11 -144 87 27 19 31 25 6 vhcurveto
          62 299 rlineto
          72 -68 20 -61 -25 -30 -9 -28 -8 vhcurveto
          -19 -192 rlineto
          -2 -1 -11 -3 vvcurveto
          44 12 rmoveto
          54 6 70 13 53 vhcurveto
          15 4 11 -1 11 hhcurveto
          24 17 -3 -5 26 hvcurveto
          14 -24 -1 -11 -24 -22 -8 -21 -20 -3 1 -2 -3 vvcurveto
          -55 -198 -19 -19 -6 6 -24 43 -1 7 rlinecurve
          2 -10 79 -3 27 vhcurveto
          -62 -370 rmoveto
          -56 59 -36 51 vhcurveto
          hintmask 11111000
          46 44 21 52 33 -5 88 -69 -67 -59 -30 -72 hvcurveto
          43 1 rmoveto
          38 46 25 36 32 18 -27 -29 -38 -27 -25 -38 -29 -38 24 32 vhcurveto
          endchar
        </CharString>
        <CharString name="exclamdown">
          -311 14 -21 447 -20 75 37 119 37 hstemhm
          50 43 136 21 -21 51 hintmask 11111010
          112 226 rmoveto
          3 28 10 78 2 vvcurveto
          1 7 24 43 6 6 19 -19 rcurveline
          55 -198 rlineto
          -2 -1 -3 -3 -19 8 -22 -21 vvcurveto
          -24 1 -12 -14 -24 vhcurveto
          -5 -26 -17 -2 -24 hhcurveto
          -11 -12 -2 15 -3 hvcurveto
          -14 53 -5 70 54 vvcurveto
          -44 12 rmoveto
          -3 1 -11 -2 vvcurveto
          3 -28 12 -135 4 -29 rrcurveto
          -27 8 30 -10 25 hhcurveto
          61 68 20 73 hvcurveto
          -63 298 rlineto
          25 -5 -19 31 -27 hhcurveto
          -87 -11 -144 -58 hvcurveto
          25 358 rmoveto
          32 38 23 29 38 27 -25 -38 -29 -18 -27 -32 -36 -46 25 39 vhcurveto
          -43 hmoveto
          -72 59 -29 66 vhcurveto
          hintmask 11111100
          70 5 87 33 52 -44 21 -47 -50 -59 -36 -56 hvcurveto
          endchar
        </CharString>
        <CharString name="f">
          -203 0 52 -36 -21 476 202 -42 61 hstemhm
          31 92 -38 38 98 45 32 95 hintmask 10101011
          31 19 rmoveto
          -12 11 -7 11 vhcurveto
          hintmask 01101011
          177 119 -5 4 hhcurveto
          19 21 4 20 37 -44 -23 -7 20 hvcurveto
          -13 135 -18 86 -13 36 rrcurveto
          12 76 9 28 14 -12 6 -12 hvcurveto
          -4 -39 -7 -21 hhcurveto
          -29 -3 94 73 49 0 7 13 39 hvcurveto
          14 5 23 0 12 hhcurveto
          50 1 -67 -34 32 hvcurveto
          -39 36 29 -25 13 hhcurveto
          21 1 21 18 hvcurveto
          23 -13 110 24 vvcurveto
          4 -10 -8 2 -10 -19 -4 -20 -24 hhcurveto
          hintmask 10010111
          14 -38 -45 25 -38 hhcurveto
          -64 -39 -8 -56 -55 hvcurveto
          -37 -44 -13 -53 -178 vvcurveto
          -18 -7 -32 4 -25 vvcurveto
          -19 31 0 26 -3 vhcurveto
          -81 26 -61 -74 -2 -1 -16 -3 vvcurveto
          hintmask 10011011
          -28 -22 -58 27 -52 vvcurveto
          92 416 rmoveto
          44 34 149 64 3 vhcurveto
          -150 7 -86 30 -110 vhcurveto
          21 -75 19 -88 -53 vvcurveto
          -17 -46 0 -19 vhcurveto
          -5 -29 1 -20 hhcurveto
          -24 15 9 20 -4 22 rrcurveto
          -22 109 -15 109 107 vvcurveto
          291 162 rmoveto
          4 11 14 3 13 hhcurveto
          -57 vlineto
          -12 14 -16 19 -10 17 rrcurveto
          endchar
        </CharString>
        <CharString name="five">
          -14 -31 48 678 -20 hstemhm
          308 211 -39 39 29 50 hintmask 11101000
          14 124 rmoveto
          -91 190 -64 66 vhcurveto
          17 2 43 9 1 1 143 87 rcurveline
          37 22 8 56 39 vvcurveto
          36 -7 51 -38 19 vhcurveto
          -124 63 -107 11 71 217 234 32 rlineto
          -118 vlineto
          -8 11 1 5 39 -5 78 29 21 6 78 -37 -21 -17 -29 -9 -17 vhcurveto
          -30 -59 -81 4 -63 hhcurveto
          -17 -46 0 1 -1 hvcurveto
          -8 1 -54 17 -6 1 rrcurveto
          -1 -7 1 -3 hhcurveto
          -22 -18 -39 -22 -3 0 -2 1 -3 hvcurveto
          -38 -229 rlineto
          -8 -8 2 -18 -10 vvcurveto
          -19 2 -3 20 vhcurveto
          53 49 27 53 4 20 -1 4 hhcurveto
          12 -78 8 -84 -64 -10 -2 -51 -10 vvcurveto
          -8 -7 -11 0 -11 hhcurveto
          -38 -63 1 31 -30 hvcurveto
          -81 81 rlineto
          15 -3 -14 4 -11 hhcurveto
          -16 -7 -11 -14 hvcurveto
          323 186 rmoveto
          19 hlineto
          5 47 -22 -9 16 hvcurveto
          hintmask 11011000
          42 -26 14 -21 -46 vvcurveto
          -60 -62 -55 -56 -22 vhcurveto
          -6 hlineto
          -3 41 -16 204 16 vvcurveto
          -198 61 rmoveto
          38 206 rlineto
          11 2 8 7 14 hhcurveto
          3 31 -6 -1 3 hvcurveto
          3 27 -3 -2 2 hvcurveto
          -12 vlineto
          -75 -206 rlineto
          -15 -6 -33 2 -17 hhcurveto
          endchar
        </CharString>
        <CharString name="florin">
          -86 -7 44 254 40 56 48 198 55 hstem
          3 78 rmoveto
          -53 95 3 30 -9 vhcurveto
          -8 27 7 -18 31 hhcurveto
          58 54 38 56 21 hvcurveto
          80 204 rlineto
          88 hlineto
          12 0 14 7 3 0 16 -6 hvcurveto
          -71 hlineto
          5 -4 12 11 vvcurveto
          10 3 8 10 2 vhcurveto
          93 11 rlineto
          8 2 17 12 8 vvcurveto
          16 -11 7 -13 -24 -20 -4 -3 -25 vhcurveto
          6 vlineto
          32 109 167 46 2 3 54 callgsubr
          75 -49 rlineto
          0 10 -2 4 16 8 0 18 14 -3 1 -16 12 vhcurveto
          -12 9 -61 39 -14 8 -43 6 rcurveline
          -142 -103 -125 -123 -35 hvcurveto
          29 callsubr
          -42 -3 -70 4 -26 vvcurveto
          -7 3 -15 10 vhcurveto
          86 hlineto
          -13 -4 -45 -20 vhcurveto
          -81 hlineto
          -12 0 -14 -8 -36 64 16 23 -8 hvcurveto
          -12 -43 -81 -143 rlineto
          -17 -9 -19 -8 -19 -37 -24 32 -35 hhcurveto
          -13 -6 -12 -10 hvcurveto
          180 -32 rmoveto
          3 vlineto
          75 118 124 341 4 11 66 68 17 15 rlinecurve
          9 12 39 21 4 hhcurveto
          12 hlineto
          -67 -86 -174 -428 rlineto
          -41 -17 -41 -40 -48 hhcurveto
          -3 -3 8 1 hvcurveto
          endchar
        </CharString>
        <CharString name="flower">
          49 -104 -21 472 203 -78 39 hstemhm
          110 38 -38 238 278 27 hintmask 10110100
          22 56 rmoveto
          -47 63 28 26 -6 vhcurveto
          7 -2 53 -26 15 -9 rrcurveto
          -32 51 -19 -87 73 hhcurveto
          5 -3 32 -1 6 vhcurveto
          -1 2 -12 9 1 vvcurveto
          7 vlineto
          19 34 21 16 4 vhcurveto
          12 3 53 8 11 2 rrcurveto
          29 -34 8 -23 vhcurveto
          -6 hlineto
          -63 -12 rlineto
          -12 hlineto
          6 39 15 38 16 36 rrcurveto
          -54 40 59 -22 66 hhcurveto
          64 62 57 64 hvcurveto
          4 -1 13 1 vvcurveto
          -4 12 -27 53 -7 11 rrcurveto
          37 33 37 25 18 hvcurveto
          14 21 0 28 22 vvcurveto
          57 -50 50 -56 -51 -33 -15 -37 -38 vhcurveto
          hintmask 11001100
          37 -49 15 54 -80 -9 -27 -3 -1 hhcurveto
          -3 -1 -36 -35 -11 -15 -25 -31 19 -30 -19 -39 -2 -4 -32 -18 -4 -3 rrcurveto
          -30 -30 -21 -54 -41 vvcurveto
          -30 0 -3 14 -31 vhcurveto
          5 -13 18 -35 2 -2 rrcurveto
          -21 21 43 12 23 hhcurveto
          -2 1 -12 -2 vvcurveto
          -3 -11 -8 -53 -2 -12 -16 10 -79 36 -18 4 rrcurveto
          1 -2 -24 2 -10 hhcurveto
          -26 -27 4 -32 hvcurveto
          326 119 rmoveto
          57 23 32 54 19 vhcurveto
          0 9 1 4 24 15 -10 -16 23 vhcurveto
          11 -7 26 -27 2 -4 rrcurveto
          -1 2 -26 -9 -11 -2 -27 -1 vvcurveto
          -23 -7 -62 -28 -19 hhcurveto
          -23 -71 23 28 -8 hvcurveto
          1 -1 21 8 vvcurveto
          hintmask 11010100
          -200 63 rmoveto
          51 27 58 56 35 39 -22 -29 19 vhcurveto
          -19 -52 -14 -52 -54 -22 rrcurveto
          -4 -10 -27 -9 -1 hhcurveto
          -39 -12 55 26 hvcurveto
          290 108 rmoveto
          -2 3 -2 18 4 vvcurveto
          6 2 18 2 1 vhcurveto
          3 5 44 44 15 14 rrcurveto
          hintmask 10110100
          15 18 14 -2 21 hhcurveto
          30 43 -34 -29 -6 -9 -27 -3 -5 hvcurveto
          -7 -10 -36 -35 -7 -5 -8 -6 -36 -8 -7 1 -13 3 -52 26 -10 9 rrcurveto
          -189 75 rmoveto
          34 17 38 33 16 vhcurveto
          1 1 13 1 5 hhcurveto
          6 12 -1 -1 1 hvcurveto
          9 -5 27 -25 1 -8 rrcurveto
          1 2 -26 -10 -10 -2 -27 -1 -2 hvcurveto
          -1 -6 -17 -18 -7 -1 rrcurveto
          -3 -30 11 1 -4 hvcurveto
          -24 7 -39 -3 34 vvcurveto
          endchar
        </CharString>
        <CharString name="four">
          -15 -13 53 -40 40 189 43 435 28 callsubr
          252 50 -34 195 -178 178 -42 42 -27 27 -27 40 68 46 hintmask 1010110010010000
          79 12 rmoveto
          -25 23 0 19 vhcurveto
          hintmask 0110110000110000
          153 155 4 9 153 hvcurveto
          -2 callgsubr
          -106 hlineto
          hintmask 1010101000010000
          49 -13 48 50 vvcurveto
          7 1 17 0 vhcurveto
          112 12 12 13 rlineto
          6 2 22 7 vvcurveto
          27 -2 43 -28 -12 -4 -3 -12 vhcurveto
          -5 7 -21 -15 vvcurveto
          -6 -5 -13 -1 vhcurveto
          -74 hlineto
          -7 -1 8 11 5 0 6 1 1 hvcurveto
          -31 267 rlineto
          1 8 1 14 15 vvcurveto
          45 -7 62 -32 vhcurveto
          hintmask 1011000100010000
          -2 -3 10 callsubr
          -390 -453 rlineto
          0 -1 -2 -1 vvcurveto
          -12 23 -10 9 vhcurveto
          211 hlineto
          5 9 7 2 10 hhcurveto
          16 2 -70 -48 hvcurveto
          -37 -1 -17 -15 vvcurveto
          29 callsubr
          -1 -143 -5 -16 -19 -21 -1 -24 vhcurveto
          hintmask 1010110010010000
          223 489 rmoveto
          12 1 32 1 vvcurveto
          86 92 rlineto
          7 hlineto
          5 -45 17 -213 3 -45 rrcurveto
          -123 vlineto
          hintmask 1010110001010000
          -18 15 -104 -47 vvcurveto
          -96 hlineto
          -6 12 rlineto
          -11 21 -21 401 24 vvcurveto
          -61 -23 rmoveto
          11 hlineto
          hintmask 1010101000010000
          -69 16 -68 -69 vvcurveto
          -201 hlineto
          endchar
        </CharString>
        <CharString name="g">
          -35 -274 26 266 58 259 75 -75 102 hstemhm
          35 47 -47 62 -62 160 -18 48 145 55 -42 42 -42 175 -70 42 hintmask 1110100101010000
          174 -274 rmoveto
          125 66 52 71 60 hvcurveto
          93 110 12 119 140 vvcurveto
          49 -4 56 -4 42 vhcurveto
          hintmask 1101100100100000
          8 15 28 10 18 vvcurveto
          29 -70 0 -48 -34 -30 -2 -34 -7 1 -49 3 -9 vhcurveto
          hintmask 1110001001010000
          27 -23 -85 47 -33 hhcurveto
          -131 -73 -128 -100 -104 70 -60 99 54 88 26 58 37 hvcurveto
          -114 -41 -190 -124 -24 vhcurveto
          -5 2 -18 60 9 14 8 59 8 vvcurveto
          23 -8 13 -17 9 vhcurveto
          -19 -2 -41 0 -2 -1 rrcurveto
          -62 -14 -17 -18 -66 vvcurveto
          -87 57 -57 80 vhcurveto
          hintmask 1110010110010000
          -77 145 rmoveto
          38 22 -4 18 3 vhcurveto
          10 -68 20 -72 2 -15 rrcurveto
          -2 -2 -1 -3 hhcurveto
          -50 -15 83 36 hvcurveto
          312 513 rmoveto
          19 9 20 3 22 3 rrcurveto
          11 -83 7 -108 -42 vvcurveto
          -111 -19 -125 -105 -85 vhcurveto
          46 80 15 89 89 vvcurveto
          77 -3 131 -13 73 vhcurveto
          -181 -236 rmoveto
          -2 13 -1 16 16 vvcurveto
          59 13 83 44 53 35 -35 -76 -126 -56 -22 -43 -23 -16 35 37 -4 vhcurveto
          hintmask 1110100110010000
          -146 27 rmoveto
          71 60 97 71 9 vhcurveto
          -24 -46 -12 -56 -56 vvcurveto
          -23 13 -54 14 -41 vhcurveto
          -3 -2 10 callsubr
          -65 -50 42 58 hvcurveto
          endchar
        </CharString>
        <CharString name="germandbls">
          -20 -99 55 -54 -21 120 -21 304 48 311 36 hstemhm
          109 42 -17 161 -62 43 -29 29 62 244 -188 188 -99 48 6 45 hintmask 1011110101000000
          35 -99 rmoveto
          hintmask 0111110101000000
          -14 24 9 -6 23 hhcurveto
          hintmask 1011101001000000
          21 11 20 24 hhcurveto
          204 hlineto
          8 0 12 4 hvcurveto
          40 -64 -28 52 vvcurveto
          hintmask 1011110101000000
          -12 98 -7 158 79 vvcurveto
          hintmask 1011101000011000
          83 8 54 11 78 vhcurveto
          6 vlineto
          31 75 rlineto
          22 9 47 9 19 hhcurveto
          49 33 -40 -45 -57 -44 -42 -38 -39 hvcurveto
          hintmask 1011110100100000
          -6 -13 -1 -8 -12 vvcurveto
          -20 3 -5 22 -17 vhcurveto
          hintmask 1011110100011000
          67 -30 51 -76 -73 vvcurveto
          hintmask 1011110101000000
          -135 -199 19 -35 vvcurveto
          -11 8 -24 14 1 3 25 callgsubr
          161 56 rlineto
          54 18 3 90 42 vvcurveto
          74 -80 84 -51 31 vhcurveto
          -8 4 0 1 7 vvcurveto
          7 34 33 11 16 vhcurveto
          hintmask 1011110100011000
          13 19 29 62 1 6 rrcurveto
          62 vlineto
          21 -80 65 -25 vhcurveto
          -112 hlineto
          -6 -53 -21 -9 -15 hvcurveto
          -104 -62 -27 -103 -109 vvcurveto
          -37 vlineto
          29 callsubr
          -80 hlineto
          -10 -4 -20 -7 -15 2 -9 6 -17 hvcurveto
          16 18 17 4 24 hhcurveto
          31 6 -55 -37 3 hvcurveto
          hintmask 1011101001000000
          5 -74 13 -85 -71 -30 -100 44 -63 vvcurveto
          -1 0 -9 1 -2 vhcurveto
          hintmask 1011110101000000
          116 444 rmoveto
          13 1 61 1 13 vhcurveto
          5 24 11 62 21 26 12 15 40 39 4 1 19 6 rcurveline
          -42 -21 -43 -4 -45 vhcurveto
          -1 -4 -5 -23 -4 -19 -1 -88 -20 vvcurveto
          hintmask 1011110011000000
          -103 14 -155 -103 vvcurveto
          -63 hlineto
          -4 -21 228 74 -6 hvcurveto
          -1 4 -1 61 22 vvcurveto
          endchar
        </CharString>
        <CharString name="grave">
          44 callsubr
          232 700 -101 callgsubr
        </CharString>
        <CharString name="greater">
          -196 145 -21 429 -20 hstem
          353 286 rmoveto
          8 56 22 16 vvcurveto
          6 0 11 -7 5 vhcurveto
          -323 198 -2 1 rlineto
          -4 -11 -9 -7 -2 hvcurveto
          -3 18 -31 1 vhcurveto
          137 -88 6 -6 106 -68 rlineto
          -12 vlineto
          -249 -174 rlineto
          -7 -5 0 0 -7 vvcurveto
          -5 2 -14 5 vhcurveto
          32 hlineto
          endchar
        </CharString>
        <CharString name="guillemotleft">
          -210 -53 callsubr
          18 -179 -2 callsubr
          -14 10 vhcurveto
          -69 105 rlineto
          5 2 9 4 4 vhcurveto
          125 143 rlineto
          31 vlineto
          6 -15 1 -4 -6 -8 -1 -6 -4 vhcurveto
          endchar
        </CharString>
        <CharString name="guillemotright">
          -210 -53 callgsubr
          18 179 rmoveto
          6 -5 -7 1 -6 hhcurveto
          -5 -14 -1 -6 hvcurveto
          -31 vlineto
          124 -143 rlineto
          5 -4 1 -9 -5 vvcurveto
          -68 -105 rlineto
          -15 -13 callgsubr
          endchar
        </CharString>
        <CharString name="guilsinglleft">
          -389 -53 callsubr
          endchar
        </CharString>
        <CharString name="guilsinglright">
          -388 -53 callgsubr
          endchar
        </CharString>
        <CharString name="h">
          26 -18 49 -48 -21 34 -21 39 -21 378 81 -51 51 230 -20 hstemhm
          64 226 -188 31 250 56 98 40 hintmask 0101101101100000
          -11 -9 rmoveto
          -20 11 -9 21 vhcurveto
          6 hlineto
          hintmask 1000101101100000
          11 43 21 9 53 hhcurveto
          hintmask 0010101101100000
          79 -9 -7 53 hhcurveto
          17 18 1 24 hvcurveto
          21 -5 -16 4 -8 -6 -5 -1 -6 hhcurveto
          hintmask 1000101101100000
          -5 -5 1 6 -7 hvcurveto
          -1 12 -5 52 11 vvcurveto
          7 10 83 4 29 vhcurveto
          61 7 45 85 37 hhcurveto
          31 16 -21 -31 hvcurveto
          -182 vlineto
          -5 15 -36 5 -14 vhcurveto
          hintmask 0101011101100000
          -62 24 39 -27 67 hhcurveto
          40 81 22 22 11 hvcurveto
          29 -7 4 -41 vhcurveto
          -9 -9 -1 -3 hhcurveto
          -12 11 -7 68 0 vvcurveto
          13 vlineto
          80 0 96 -63 63 vhcurveto
          36 -36 -43 16 -50 hhcurveto
          -32 -17 -3 -18 -27 hvcurveto
          -9 -5 -41 -30 -7 -9 rrcurveto
          5 -1 20 4 vvcurveto
          3 13 124 7 52 vhcurveto
          2 18 17 21 20 vvcurveto
          12 -5 16 -15 -7 -11 -13 -7 -5 vhcurveto
          hintmask 1000101011100000
          -41 -25 -62 -19 -42 -11 rrcurveto
          hintmask 1000101101100000
          -16 -4 -22 1 -16 vvcurveto
          -26 9 -4 20 vhcurveto
          6 8 1 7 hhcurveto
          hintmask 1000011011100000
          -133 -5 -131 -7 -133 vhcurveto
          -55 -1 -60 -68 -27 vhcurveto
          -19 -8 -25 2 -23 vvcurveto
          246 613 rmoveto
          -5 -1 -20 -1 -3 vhcurveto
          -1 -12 -17 -90 -12 0 -1 -6 -6 -12 1 -17 -2 vvcurveto
          -7 -74 -10 -121 -2 -4 rrcurveto
          -189 -69 vlineto
          5 7 1 5 7 vvcurveto
          6 vlineto
          27 352 -8 119 6 42 rrcurveto
          19 3 56 16 18 hhcurveto
          199 -388 rmoveto
          30 5 28 30 vvcurveto
          33 -5 33 -13 30 vhcurveto
          2 7 1 0 hvcurveto
          68 30 -114 -17 9 hvcurveto
          -164 vlineto
          22 -55 rlineto
          -5 -17 -3 -5 -6 -66 12 14 vhcurveto
          -23 47 -8 47 53 vvcurveto
          endchar
        </CharString>
        <CharString name="heart">
          60 -96 -21 92 -21 456 37 -25 39 hstemhm
          26 38 567 39 hintmask 11101100
          26 276 rmoveto
          -90 38 -70 52 -72 vhcurveto
          2 -3 9 -9 1 -1 229 -148 rcurveline
          274 274 rlineto
          29 30 10 66 39 vvcurveto
          56 -31 78 -58 20 vhcurveto
          1 -10 -49 0 -11 hhcurveto
          -44 -24 6 -19 -38 hvcurveto
          -10 -19 -23 -29 -22 -4 -7 54 callsubr
          -62 63 rlineto
          hintmask 11011100
          1 -2 -32 1 -13 hhcurveto
          -15 -47 -1 -1 -5 hvcurveto
          -7 -1 -26 -9 -4 -3 -11 -8 -44 -43 -9 -12 -6 -8 -18 -35 -1 -7 rrcurveto
          -3 -1 -40 -14 vvcurveto
          38 -21 rmoveto
          89 52 78 94 45 31 -19 -45 18 vhcurveto
          0 1 -9 -2 -43 -27 -37 -41 vvcurveto
          -15 14 -5 12 vhcurveto
          2 9 1 2 hhcurveto
          4 18 27 79 6 17 rrcurveto
          hintmask 11101100
          63 27 74 26 63 hhcurveto
          64 14 -16 -61 22 hvcurveto
          4 -10 9 -36 -4 vvcurveto
          -73 -49 -58 -52 -45 vhcurveto
          -25 -24 -123 -105 -28 -22 rrcurveto
          -1 -2 -9 -1 -1 hhcurveto
          -33 -26 23 17 -29 hvcurveto
          -100 58 -90 80 123 vvcurveto
          endchar
        </CharString>
        <CharString name="heart1">
          242 -139 -21 138 -21 33 -21 366 50 11 51 -26 -20 159 -20 hstemhm
          93 37 555 38 hintmask 1101101110000000
          86 -43 rmoveto
          -2 -3 -16 callsubr
          -8 -6 -35 -36 -8 -8 rrcurveto
          -15 -19 -1 -24 -23 vvcurveto
          39 14 4 11 39 hvcurveto
          11 4 26 9 0 vvcurveto
          5 6 0 26 -5 6 rrcurveto
          hintmask 1011011110000000
          63 63 rlineto
          12 hlineto
          8 88 -44 -19 30 hvcurveto
          5 -2 29 -33 5 -3 rrcurveto
          0 8 -1 3 30 3 33 19 18 vhcurveto
          10 9 70 61 21 17 4 4 30 19 4 2 17 17 80 80 16 17 rrcurveto
          24 26 2 48 33 vvcurveto
          35 3 14 -17 32 vhcurveto
          -1 4 -24 30 4 vvcurveto
          2 27 27 11 9 vhcurveto
          3 4 17 9 4 hhcurveto
          28 3 61 -23 47 vvcurveto
          37 -50 -23 -14 22 vhcurveto
          -4 5 -7 52 -2 6 rrcurveto
          3 -9 8 -3 2 vhcurveto
          -7 -4 -27 -27 -4 -7 -3 -7 -18 -61 -4 -8 -6 -10 -26 -26 -6 -1 -5 -1 -40 24 -5 2 rrcurveto
          hintmask 1101101110000000
          10 -24 -16 3 -22 hhcurveto
          -77 -54 -27 -61 -46 hvcurveto
          -2 -9 -1 -2 -39 -33 27 -41 hhcurveto
          -109 -29 -122 -87 -39 2 -36 23 -31 hvcurveto
          5 -7 41 -50 4 -7 rrcurveto
          -1 2 -3 -2 -2 -2 -3 -1 vvcurveto
          -7 -8 -35 -35 -8 -7 rrcurveto
          7 -10 -10 6 -12 hhcurveto
          44 219 rmoveto
          61 34 98 71 9 24 -1 53 callgsubr
          4 35 -18 -7 11 hvcurveto
          25 -14 -12 -36 25 -12 17 26 0 38 21 23 rrcurveto
          20 16 44 43 3 hhcurveto
          138 hlineto
          13 -12 rlineto
          -2 -16 -26 -9 -10 vhcurveto
          -13 -14 -62 -61 -14 -13 rrcurveto
          -49 vlineto
          151 137 rlineto
          6 hlineto
          16 15 -26 -12 1 hvcurveto
          -2 1 -39 -15 -15 -1 -40 -2 vvcurveto
          -4 -9 -17 -4 -4 vhcurveto
          -80 -91 -105 -68 -91 -80 -16 6 -70 36 -15 8 rrcurveto
          -70 40 -94 63 92 vvcurveto
          endchar
        </CharString>
        <CharString name="hyphen">
          -51 callsubr
        </CharString>
        <CharString name="i">
          -42 callgsubr
          56 45 -45 201 hstemhm
          49 125 -94 43 -43 181 -130 43 87 38 hintmask 0101011000100000
          -32 callsubr
          hintmask 0011010010000000
          7 callsubr
          hintmask 1001011000100000
          -10 callsubr
          hintmask 0011011000100000
          -9 callgsubr
          hintmask 0101010101100000
          -41 callsubr
          13 -65 21 -9 36 hvcurveto
          -19 61 -2 5 72 -63 callgsubr
          -54 -26 -18 -51 -75 callgsubr
          hintmask 1001011000100000
          -9 callsubr
          125 50 rmoveto
          82 -12 146 -1 9 vhcurveto
          -3 21 -8 -69 callsubr
          -61 6 -102 -82 vvcurveto
          -31 callsubr
          hintmask 1001010010000000
          -106 522 rmoveto
          -46 19 -33 48 53 61 59 54 54 -37 34 -56 vhcurveto
          -50 -25 -38 -39 -58 vvcurveto
          hintmask 1001100101100000
          43 4 rmoveto
          37 35 27 31 11 vhcurveto
          22 0 -24 -2 hvcurveto
          1 -3 12 -19 -3 vvcurveto
          -14 -37 -48 -32 -25 -7 13 25 vhcurveto
          endchar
        </CharString>
        <CharString name="iacute">
          -42 callgsubr
          243 -100 callgsubr
          -90 561 -105 callgsubr
        </CharString>
        <CharString name="icircumflex">
          -42 callgsubr
          244 -100 callgsubr
          -170 532 -99 callsubr
        </CharString>
        <CharString name="idieresis">
          -42 callgsubr
          150 95 hstemhm
          49 110 -28 43 87 38 -38 100 hintmask 0101110100000000
          -32 callsubr
          hintmask 0011110100000000
          7 callsubr
          hintmask 1001110100000000
          -10 callsubr
          hintmask 0011110100000000
          -9 callgsubr
          hintmask 0101101100000000
          -93 callgsubr
          hintmask 1001110100000000
          -9 callsubr
          hintmask 1001101100000000
          -89 callgsubr
          -133 580 rmoveto
          -21 callsubr
          vhcurveto
          hintmask 1001110010000000
          31 21 19 32 23 -14 21 -26 -26 callsubr
        </CharString>
        <CharString name="igrave">
          -42 callgsubr
          252 -100 callgsubr
          131 570 -101 callgsubr
        </CharString>
        <CharString name="j">
          -171 -262 69 154 -21 38 -21 60 -21 308 42 30 44 -44 163 hstemhm
          -17 51 -51 126 81 164 -106 44 12 50 5 44 hintmask 1011110010111000
          59 -236 rmoveto
          3 23 -10 -2 12 hvcurveto
          -7 24 31 -7 27 hhcurveto
          88 44 39 43 30 hvcurveto
          52 75 10 113 249 vvcurveto
          70 vlineto
          9 -16 10 -3 vhcurveto
          -12 -230 84 -14 -51 -11 -15 20 callsubr
          -6 -2 -1 -7 -6 vvcurveto
          -54 37 27 33 -46 vhcurveto
          25 -36 1 -58 -28 vvcurveto
          -73 -10 -85 -10 -71 vhcurveto
          -46 -7 -21 -29 -53 hhcurveto
          -25 13 -13 34 35 vvcurveto
          11 1 57 6 vhcurveto
          -7 18 -1 9 -17 4 rrcurveto
          8 -32 -23 0 -33 hhcurveto
          -19 -20 rlineto
          -14 -1 -38 -29 vvcurveto
          -27 2 -29 18 -19 vhcurveto
          8 -9 40 -39 8 -8 rrcurveto
          233 347 rmoveto
          55 -2 78 -56 44 vhcurveto
          14 21 36 2 28 hhcurveto
          40 -297 hlineto
          -31 -38 -142 -73 -27 vhcurveto
          28 75 16 225 4 vvcurveto
          hintmask 1101101101001000
          -258 -248 rmoveto
          77 vlineto
          7 10 0 -7 2 hvcurveto
          23 -120 rlineto
          114 627 rmoveto
          -53 25 -11 49 56 34 38 56 25 -64 44 -12 -32 -50 -46 -29 -5 vhcurveto
          -1 -1 -17 -6 vvcurveto
          51 -2 rmoveto
          24 18 9 20 vhcurveto
          hintmask 1011110100111000
          7 18 0 -17 -17 -26 -17 -15 -12 -10 6 12 hvcurveto
          endchar
        </CharString>
        <CharString name="k">
          -16 -11 45 -41 -21 34 -21 227 241 233 -20 hstemhm
          79 227 -213 37 245 170 hintmask 01011101
          28 -3 rmoveto
          -18 9 -7 23 vhcurveto
          hintmask 00111101
          3 35 165 10 33 hhcurveto
          9 4 6 10 44 -68 -24 -9 26 hvcurveto
          -2 14 -3 66 -1 14 rrcurveto
          8 5 48 -33 callsubr
          13 12 rlineto
          1 2 14 1 5 hhcurveto
          93 -11 -187 -27 100 hvcurveto
          hintmask 10011101
          -8 29 15 -1 43 hhcurveto
          35 57 3 20 32 -56 3 -19 18 hvcurveto
          -48 46 -59 133 -88 48 126 99 rcurveline
          28 37 2 24 34 -68 2 -43 -33 -26 -6 -21 -24 25 -3 18 -2 hvcurveto
          -52 -51 -65 -45 -59 -35 rrcurveto
          8 -1 37 8 vvcurveto
          13 5 186 8 99 vhcurveto
          6 15 1 12 15 vvcurveto
          11 -2 16 -20 -12 -25 -28 -4 -10 vhcurveto
          -21 -10 -95 -44 -22 -9 rrcurveto
          -2 -2 20 callsubr
          -17 -22 -10 -18 hvcurveto
          -1 1 -2 -1 vvcurveto
          22 -30 39 30 8 -49 rrcurveto
          hintmask 10011011
          13 -89 1 -27 -94 vvcurveto
          hintmask 10011101
          -93 0 -32 -14 -97 vhcurveto
          -50 -51 4 -36 vvcurveto
          hintmask 10011011
          102 290 rmoveto
          59 0 123 -32 91 vhcurveto
          38 18 47 26 22 6 rrcurveto
          5 -59 0 -40 -7 -42 -5 -54 -17 -42 -27 -258 -37 vvcurveto
          -8 0 -9 1 -2 vhcurveto
          -6 -27 -8 0 -34 hhcurveto
          10 87 10 137 34 vvcurveto
          169 -48 rmoveto
          3 32 13 1 9 hvcurveto
          123 -108 -22 -52 66 -59 rrcurveto
          -87 -11 58 45 -18 hvcurveto
          -17 43 -39 31 -39 28 rrcurveto
          endchar
        </CharString>
        <CharString name="l">
          -310 -16 51 -31 47 -45 -21 713 28 callsubr
          41 200 -143 30 57 37 -37 135 -115 36 -36 55 hintmask 1000110000000000
          3 16 rmoveto
          -26 32 -6 22 vhcurveto
          hintmask 0010110000000000
          3 11 1 1 hhcurveto
          hintmask 0100101010000000
          82 11 61 5 85 3 rrcurveto
          16 2 4 14 13 vvcurveto
          18 -22 0 -22 vhcurveto
          -6 hlineto
          -28 -9 0 34 -4 hvcurveto
          hintmask 1000101100000000
          -6 29 -1 13 27 vvcurveto
          hintmask 1000110000000000
          142 19 99 154 vvcurveto
          hintmask 1000101000100000
          16 19 63 33 vvcurveto
          13 -8 25 -17 vhcurveto
          hintmask 1001010000000000
          -2 -2 10 callsubr
          -39 -11 -41 -22 -46 -17 rrcurveto
          -14 -7 -48 -15 -19 vvcurveto
          -20 14 -4 15 7 8 2 1 7 vhcurveto
          hintmask 1000101001000000
          5 -13 1 -9 -10 -86 -7 -86 -86 vvcurveto
          -61 4 -59 8 -60 vhcurveto
          2 -13 5 -44 -5 vvcurveto
          -6 -4 -13 -3 vhcurveto
          -81 hlineto
          -9 -10 -10 -9 hvcurveto
          125 331 rmoveto
          99 7 21 56 vvcurveto
          11 -4 53 -2 11 vhcurveto
          6 12 rlineto
          11 5 56 17 9 hhcurveto
          hintmask 1000101100000000
          -174 -20 -179 -112 vvcurveto
          -56 0 -18 7 -39 vhcurveto
          -12 -6 -2 -9 vhcurveto
          -6 -11 1 -6 hhcurveto
          -18 107 -8 84 109 vvcurveto
          endchar
        </CharString>
        <CharString name="leaf">
          107 -83 -21 100 -21 186 39 91 35 -35 203 97 -20 hstemhm
          hintmask 11110100
          118 -25 rmoveto
          38 -51 rlineto
          -3 2 9 -9 1 hhcurveto
          10 -3 53 -9 13 52 callsubr
          13 61 -2 14 hhcurveto
          28 vlineto
          -19 1 -89 9 -18 3 rrcurveto
          -24 4 -27 28 25 49 121 -32 66 vvcurveto
          -47 -41 -18 -9 -45 hvcurveto
          -1 -9 -1 -2 -2 -9 20 callsubr
          1 12 9 52 3 12 4 20 21 60 25 7 rrcurveto
          1 1 23 2 8 70 -1 -55 79 hhcurveto
          11 33 -8 callgsubr
          hvcurveto
          11 2 80 33 9 3 7 2 51 -3 6 1 rrcurveto
          3 1 9 9 2 35 -51 24 37 vvcurveto
          2 39 callgsubr
          3 2 31 9 4 2 rrcurveto
          66 33 72 84 78 vvcurveto
          12 3 15 -15 4 vhcurveto
          1 -10 -44 3 -10 hhcurveto
          -15 -44 -3 -1 -3 hvcurveto
          -21 -5 -88 -44 -17 -14 rrcurveto
          -16 hlineto
          38 3 63 -57 -48 -61 -77 -36 -22 vhcurveto
          -7 -12 -27 -53 -4 -11 -2 -5 -9 -40 -2 -5 -6 -20 -17 -53 -2 -2 -3 -6 -42 -39 -5 -6 -23 -30 -12 -46 -2 -37 -1 -9 3 -71 -2 -8 -7 -13 -43 -44 -14 -6 rrcurveto
          -2 -1 -8 -3 vvcurveto
          -12 5 -13 15 vhcurveto
          26 12 51 38 hhcurveto
          550 544 rmoveto
          -23 0 -25 -16 -18 vhcurveto
          -11 -13 -53 -53 -11 -10 -3 -3 -18 -8 -4 -2 rrcurveto
          -20 -71 -76 -18 -73 hhcurveto
          27 11 7 20 17 vhcurveto
          15 12 44 35 4 4 30 18 98 54 10 3 rrcurveto
          5 16 73 11 15 hhcurveto
          -256 -136 rmoveto
          -13 1 -19 19 1 5 25 callgsubr
          9 3 45 17 9 5 22 10 89 44 15 9 rrcurveto
          hintmask 11101100
          20 11 -3 21 22 vvcurveto
          -84 -78 -55 -37 -69 hvcurveto
          -2 -1 -13 -4 vvcurveto
          -162 -119 rmoveto
          17 74 57 10 72 hhcurveto
          10 25 -2 0 hvcurveto
          25 -25 rlineto
          -35 -23 -102 -29 -39 hhcurveto
          -3 -8 1 0 hvcurveto
          -33 19 -19 33 -36 11 rrcurveto
          143 264 rmoveto
          -30 -11 -36 -19 -22 vhcurveto
          -17 -20 -89 -88 -19 -18 rrcurveto
          7 vlineto
          41 22 59 28 32 vhcurveto
          22 19 54 53 2 hhcurveto
          endchar
        </CharString>
        <CharString name="less">
          -197 145 -21 429 -20 hstem
          85 286 rmoveto
          242 -162 rlineto
          31 hlineto
          5 2 14 5 7 0 0 -7 5 hvcurveto
          -248 174 rlineto
          12 vlineto
          105 68 6 6 137 88 rlineto
          2 18 31 3 hvcurveto
          7 -3 -11 9 -3 hhcurveto
          -3 -1 -322 -198 rlineto
          -7 -5 0 -11 -6 -16 56 -22 -8 vvcurveto
          endchar
        </CharString>
        <CharString name="lily">
          -2 62 216 -202 -21 70 38 -38 153 -128 215 -50 50 -12 38 302 -20 hstemhm
          159 26 0 51 0 35 98 39 0 25 0 178 hintmask 1000001110101000
          271 87 rmoveto
          8 -12 16 -8 14 -5 12 25 rcurveline
          25 9 115 4 24 vhcurveto
          3 23 43 181 4 23 rrcurveto
          1 1 8 3 3 -1 9 1 vvcurveto
          -2 9 -21 81 -2 11 -6 39 17 14 -24 34 rrcurveto
          1 -3 1 -2 -8 -8 -5 -9 -4 vhcurveto
          -1 -7 -9 -51 -2 -5 rrcurveto
          -18 -48 -32 -31 -53 vvcurveto
          -6 vlineto
          1 -8 11 -60 -8 vvcurveto
          1 -47 0 -220 -1 -48 rrcurveto
          100 39 rmoveto
          -28 7 17 -36 33 hhcurveto
          9 5 2 11 5 hvcurveto
          -3 6 -18 26 -4 5 rrcurveto
          -4 7 -8 18 1 vvcurveto
          -1 2 -1 39 15 vvcurveto
          63 14 96 83 5 12 0 -1 vhcurveto
          6 -3 26 -27 7 -8 rrcurveto
          15 -23 -2 -30 -25 -10 -1 -24 -1 vvcurveto
          -1 -3 -18 -18 -6 -4 rrcurveto
          hintmask 0110010110101000
          -4 -5 -18 -9 -3 hhcurveto
          -25 -13 24 20 4 0 11 1 3 hvcurveto
          -4 3 17 -8 5 hhcurveto
          5 18 9 4 2 hvcurveto
          1 1 1 8 3 vvcurveto
          hintmask 0101001101010100
          22 -17 18 -21 -31 -35 -25 -32 -54 32 -42 58 31 25 28 23 19 vhcurveto
          20 24 -7 23 31 vvcurveto
          48 vlineto
          -1 2 -17 27 -7 8 -12 14 -35 35 -4 1 rrcurveto
          1 -20 1 -8 -37 -39 -4 -35 -21 vhcurveto
          -11 -16 -26 -53 -2 -6 rrcurveto
          -4 -2 -52 -20 -12 2 -52 -11 vvcurveto
          -186 95 rmoveto
          -35 3 -30 -18 -30 vhcurveto
          -3 -6 -31 -40 -3 -5 rrcurveto
          -2 -2 -2 -16 -2 vvcurveto
          hintmask 1000010101001000
          4 21 5 2 4 hvcurveto
          61 41 17 62 68 vvcurveto
          hintmask 0100100110101000
          64 -37 68 -72 -37 -22 -23 -28 -23 vhcurveto
          -20 -25 6 -24 -33 vvcurveto
          -9 0 -39 1 -8 vhcurveto
          -22 14 25 -4 24 hhcurveto
          41 23 16 43 4 0 12 -1 1 hvcurveto
          -4 6 -26 27 -8 4 rrcurveto
          1 -9 1 -3 -18 -9 -10 -17 vhcurveto
          -3 1 -8 -1 vvcurveto
          2 -3 22 -7 2 -3 rrcurveto
          2 -3 -10 -18 -4 vvcurveto
          -26 hlineto
          hintmask 1000010101001000
          40 -15 87 66 61 -1 -45 -49 vhcurveto
          endchar
        </CharString>
        <CharString name="logicalnot">
          -52 125 -21 291 -20 hstemhm
          431 89 -77 77 hintmask 11100000
          433 311 rmoveto
          -11 -2 -51 -12 vvcurveto
          hintmask 11010000
          -21 12 -22 -44 vvcurveto
          -27 6 -5 -19 50 5 12 2 1 hhcurveto
          6 6 rlineto
          26 2 58 33 vvcurveto
          93 -4 73 -35 vhcurveto
          -166 -20 -104 -8 -112 -11 rrcurveto
          -26 -37 -5 -32 -25 34 -1 20 hvcurveto
          75 76 19 76 32 68 -1 16 hhcurveto
          endchar
        </CharString>
        <CharString name="m">
          233 -10 53 -30 -21 24 -21 23 -21 25 -21 334 84 -51 51 hstemhm
          33 115 -47 47 57 36 -36 87 93 43 -29 46 55 38 98 60 -41 41 45 50 -37 37 -37 88 hintmask 100001010101011010000000
          33 15 rmoveto
          -24 14 2 42 -3 vhcurveto
          hintmask 010001010010111010000000
          1 33 124 1 32 hhcurveto
          8 5 6 8 9 vvcurveto
          31 -40 -14 -15 13 vhcurveto
          9 195 rlineto
          33 1 32 63 60 hhcurveto
          30 30 -41 -60 hvcurveto
          hintmask 000101010101011010000000
          -68 -14 -60 -69 vvcurveto
          -34 21 -3 33 -3 vhcurveto
          hintmask 000011010101010110000000
          8 36 2 2 12 hvcurveto
          35 4 8 110 35 vvcurveto
          41 1 50 -10 30 vhcurveto
          34 57 34 28 2 vhcurveto
          34 -3 7 -24 -36 vvcurveto
          hintmask 001001010101011010000000
          -84 -19 -85 -82 vvcurveto
          -31 64 -1 28 vhcurveto
          hintmask 000011010101011000100000
          25 1 6 36 hhcurveto
          25 27 2 21 34 -38 -15 -11 19 hvcurveto
          -11 20 3 28 43 vvcurveto
          hintmask 100001001101011001000000
          55 6 67 57 vvcurveto
          78 -98 9 -32 -53 -55 -37 -31 -40 vhcurveto
          15 -19 -40 53 -31 hhcurveto
          -43 -66 -34 -21 -62 hvcurveto
          23 0 30 -31 -30 -23 -24 -5 -28 vhcurveto
          -114 -19 rlineto
          -6 -1 -1 -6 -5 vvcurveto
          -3 6 -19 6 vhcurveto
          57 -3 9 -1 8 -33 5 -20 rlinecurve
          -4 -30 -5 -132 -17 -17 5 -24 -4 vvcurveto
          hintmask 100000110100111010000000
          -2 -32 -69 33 -2 -40 rrcurveto
          115 250 rmoveto
          20 -3 18 -7 35 vhcurveto
          1 13 63 6 3 vvcurveto
          1 -23 2 -23 -21 -91 -7 -58 -90 vvcurveto
          -3 -1 -9 -6 vhcurveto
          -54 3 rlineto
          3 81 8 69 70 vvcurveto
          297 -45 rmoveto
          55 -1 65 -69 20 vhcurveto
          8 12 18 0 12 hhcurveto
          51 -6 32 -55 -112 vvcurveto
          -50 -7 -61 -7 -44 vhcurveto
          hintmask 100001010101011010000000
          -4 -20 -18 0 -20 hhcurveto
          hintmask 100000110100111001000000
          7 116 10 33 35 vvcurveto
          235 -173 rmoveto
          15 130 1 24 15 vvcurveto
          55 -6 46 -18 51 vhcurveto
          7 hlineto
          47 28 0 -74 hvcurveto
          hintmask 100001010101011010000000
          -24 -13 -64 -57 -29 7 -38 -29 vvcurveto
          -13 -5 -2 -12 -24 -27 2 7 vhcurveto
          endchar
        </CharString>
        <CharString name="mu">
          85 -196 31 152 14 callgsubr
          33 -21 44 -21 23 -21 386 48 2 -20 hstemhm
          114 163 -151 151 -38 38 189 37 -37 125 -125 164 hintmask 1001011010010000
          38 -165 rmoveto
          -31 239 vlineto
          38 50 -38 38 rlineto
          151 vlineto
          13 25 7 -10 44 -36 11 -4 rlinecurve
          -1 1 17 -2 5 34 20 28 31 hhcurveto
          5 hlineto
          2 -2 9 -21 2 -2 8 -11 27 -26 2 -2 rrcurveto
          hintmask 1010011010010000
          4 62 -9 -3 23 hvcurveto
          hintmask 1100011010001000
          1 9 -1 3 hhcurveto
          22 43 3 23 9 hvcurveto
          4 -9 8 -3 vhcurveto
          -6 2 -51 -5 -6 3 -1 2 -9 44 -2 18 -2 8 -8 88 -3 30 rrcurveto
          7 vlineto
          hintmask 1001011010000100
          20 39 -17 20 vvcurveto
          hintmask 1001011010001000
          27 -24 -11 -15 vhcurveto
          160 vlineto
          14 5 16 8 8 12 -13 13 rcurveline
          -138 hlineto
          -2 -18 -8 -5 -5 hvcurveto
          -4 -2 -9 -8 -2 vvcurveto
          -3 12 -19 1 -3 vhcurveto
          12 -61 1 -28 -56 vvcurveto
          -77 -7 -78 -69 -45 vhcurveto
          -1 -9 -1 -4 -3 -9 -33 callsubr
          -36 21 -18 40 -9 39 rrcurveto
          -4 14 -8 44 5 4 -2 61 23 13 2 82 13 vvcurveto
          3 3 9 18 4 vvcurveto
          hintmask 1001010101010000
          4 -9 9 -3 -24 -105 -9 -4 -22 vhcurveto
          -13 -2 -29 -7 -9 -16 6 -5 27 -26 5 -6 rrcurveto
          -13 vlineto
          hintmask 1001011010010000
          -2 -45 -9 -383 -1 -45 rrcurveto
          -44 vlineto
          34 180 rmoveto
          51 1 151 2 14 vhcurveto
          41 2 18 118 5 hhcurveto
          hintmask 1001101000110000
          63 -549 -75 hlineto
          -13 26 rlineto
          -2 12 -1 104 32 vvcurveto
          355 385 rmoveto
          37 hlineto
          3 -37 9 -169 2 -39 12 -87 rcurveline
          1 -10 4 -47 -9 vvcurveto
          -24 -44 7 34 hvcurveto
          endchar
        </CharString>
        <CharString name="multiply">
          -188 86 -21 431 -20 hstem
          40 94 rmoveto
          -29 vlineto
          22 3 1 15 13 hvcurveto
          125 151 rlineto
          10 9 0 4 11 hhcurveto
          1 4 -16 callsubr
          101 -100 rlineto
          0 5 -1 1 10 5 3 10 4 vhcurveto
          -7 10 -35 44 -8 9 rrcurveto
          -15 17 -36 22 30 1 1 5 1 vvcurveto
          17 19 80 97 16 22 rrcurveto
          12 14 4 17 19 vvcurveto
          -16 hlineto
          -151 -163 -126 163 rlineto
          3 -3 -17 9 -5 hhcurveto
          -6 -9 -9 -3 3 hvcurveto
          143 -195 rlineto
          158 -157 rmoveto
          -21 24 -20 18 vhcurveto
          37 -19 -9 28 vvcurveto
          -7 -16 -9 -6 hvcurveto
          endchar
        </CharString>
        <CharString name="n">
          2 callsubr
          42 -20 hstemhm
          20 110 -34 34 12 callgsubr
          hintmask 011010000100000010000000
          11 callsubr
          hintmask 000110000001000010000000
          -40 callsubr
          hintmask 100010000100000010000000
          -15 callsubr
          hintmask 100010000100001000000000
          -1 6 -1 9 12 vvcurveto
          hintmask 100001000100000100000000
          -39 callsubr
          rlineto
          hintmask 100000011100000010000000
          -5 2 -12 11 -16 2 rrcurveto
          -11 -24 -28 -11 -26 hhcurveto
          hintmask 100000101100000010000000
          30 callsubr
          hintmask 100001000100000010000000
          3 callgsubr
          hintmask 100010000000100010000000
          2 -22 1 -22 -22 vvcurveto
          hintmask 100001000010000010000000
          -56 callgsubr
          -40 -1 1 57 vhcurveto
          hintmask 100010000000010010000000
          -59 callgsubr
          endchar
        </CharString>
        <CharString name="nine">
          -40 26 -21 246 46 336 46 hstemhm
          25 44 82 41 -22 22 134 42 144 42 hintmask 11111011
          175 28 rmoveto
          -17 16 -6 15 2 4 25 callgsubr
          137 38 35 10 65 66 43 59 rlinecurve
          4 29 8 -12 13 33 rrcurveto
          25 64 12 56 24 vvcurveto
          98 -33 91 -73 70 vhcurveto
          35 -36 -57 12 -49 hhcurveto
          -9 -26 39 callsubr
          hvcurveto
          -149 -50 -8 -2 -38 -44 -10 -16 rlinecurve
          -30 -49 -9 -48 -46 vvcurveto
          -7 1 -35 1 -7 vhcurveto
          -117 55 80 -4 119 hhcurveto
          -9 vlineto
          -87 -180 rlineto
          -12 -8 -7 -12 -14 vvcurveto
          94 52 rmoveto
          99 311 rlineto
          136 vlineto
          50 -42 12 -14 43 vhcurveto
          3 15 1 4 hhcurveto
          116 62 -147 -101 -128 -104 -175 -139 -14 hvcurveto
          -75 353 rmoveto
          37 150 rlineto
          18 5 15 13 18 hhcurveto
          43 -39 14 -31 -77 vvcurveto
          -59 -2 -16 -19 -58 vhcurveto
          -7 -1 -9 -18 -1 hhcurveto
          -63 hlineto
          -12 -27 69 41 5 1 5 1 4 hvcurveto
          -125 3 rmoveto
          38 4 22 22 37 vhcurveto
          10 18 40 48 6 2 31 13 rcurveline
          -6 vlineto
          -19 -67 -12 -39 -69 vvcurveto
          hintmask 11110111
          -42 19 -42 -40 vvcurveto
          -63 15 -38 50 62 vvcurveto
          endchar
        </CharString>
        <CharString name="ntilde">
          2 callsubr
          144 -44 callgsubr
          20 110 12 callgsubr
          hintmask 011010001000100000100000
          11 callsubr
          hintmask 000110001000010000100000
          -40 callsubr
          hintmask 100010001000100000100000
          -15 callsubr
          hintmask 100010001000100010000000
          -1 6 -1 9 12 vvcurveto
          hintmask 100001001000100001000000
          -39 callsubr
          -5 2 -12 11 -16 2 rlinecurve
          hintmask 100000011000100000100000
          -11 -24 -28 -11 -26 hhcurveto
          hintmask 100000101000100000100000
          30 callsubr
          hintmask 100001001000100000100000
          3 callgsubr
          hintmask 100010001000001000100000
          2 -22 1 -22 -22 vvcurveto
          hintmask 100001001000010000100000
          -56 callgsubr
          vhcurveto
          hintmask 100010001000100000100000
          -40 -1 1 57 hvcurveto
          hintmask 100010001000000100100000
          -59 callgsubr
          -312 192 -10 callgsubr
          hintmask 100010000110100000100000
          -66 callgsubr
          hintmask 100010000101100000100000
          -60 callsubr
          hintmask 100010001000100000100000
          -73 callsubr
        </CharString>
        <CharString name="numbersign">
          -71 -24 -21 29 -21 204 43 -31 190 -47 47 239 -20 hstemhm
          158 43 hintmask 10101110
          158 -20 rmoveto
          -15 10 -10 15 10 14 16 10 vhcurveto
          12 -6 2 25 vvcurveto
          26 4 116 27 11 vhcurveto
          69 13 rlineto
          1 3 -1 1 hhcurveto
          -12 vlineto
          -36 -173 rlineto
          hintmask 01101110
          -2 -1 -11 -3 vvcurveto
          hintmask 10101110
          -13 2 -16 16 vhcurveto
          hintmask 01010110
          15 10 8 15 hhcurveto
          17 -15 14 17 vvcurveto
          7 vlineto
          34 161 rlineto
          159 hlineto
          1 6 19 3 8 -14 7 -5 1 hvcurveto
          -137 12 rlineto
          hintmask 10101110
          19 93 rlineto
          137 hlineto
          12 0 14 7 13 -11 13 -14 hvcurveto
          -116 hlineto
          60 207 rlineto
          1 1 7 3 vvcurveto
          9 -5 12 -11 -12 -13 -21 -11 -3 vhcurveto
          -50 -192 rlineto
          -21 -5 -24 -4 -22 -13 -14 2 -9 hhcurveto
          10 vlineto
          49 199 rlineto
          1 1 6 2 vvcurveto
          9 -1 14 -11 -9 -8 -4 -10 -2 vhcurveto
          -62 -235 rlineto
          0 -57 -8 -24 -4 vhcurveto
          -19 -3 -56 3 -34 vvcurveto
          -19 16 -4 16 4 4 0 1 4 vhcurveto
          38 -68 rlineto
          -6 -10 -12 -1 -12 -27 -23 7 -25 hhcurveto
          -9 -1 -9 -7 -30 24 -2 20 -8 hvcurveto
          15 -7 -2 -17 12 -8 rrcurveto
          -2 3 0 6 8 vvcurveto
          18 6 3 26 vhcurveto
          13 29 -2 7 hhcurveto
          -61 -17 -63 -61 vvcurveto
          93 330 rmoveto
          4 28 26 3 28 hhcurveto
          -30 -12 -58 -9 vhcurveto
          -7 -24 -34 -1 -25 hhcurveto
          31 9 30 13 28 vhcurveto
          -127 -14 rmoveto
          24 23 8 25 hhcurveto
          8 4 -4 -8 -14 -3 -62 -22 -19 -40 63 17 hvcurveto
          -22 -173 rmoveto
          -2 26 callgsubr
          -2 1 -1 2 2 0 1 2 0 0 2 -2 hvcurveto
          endchar
        </CharString>
        <CharString name="o">
          -31 callgsubr
          hstemhm
          31 -22 callgsubr
          hintmask 11011110
          57 -103 callsubr
          hintmask 10111110
          -95 callsubr
          endchar
        </CharString>
        <CharString name="oacute">
          -31 callgsubr
          263 -98 callsubr
          -218 575 -105 callgsubr
        </CharString>
        <CharString name="ocircumflex">
          -31 callgsubr
          228 -98 callsubr
          -297 510 -99 callsubr
        </CharString>
        <CharString name="odieresis">
          -31 callgsubr
          152 95 hstemhm
          31 40 53 99 -45 45 103 106 -54 41 81 50 hintmask 1101101101000000
          57 -103 callsubr
          hintmask 1011110011000000
          -95 callsubr
          -261 576 rmoveto
          hintmask 1101101101000000
          -21 callsubr
          -65 callsubr
          vhcurveto
          hintmask 1101110101000000
          -26 callsubr
        </CharString>
</ttFont>
